<svg width="18" height="18" viewBox="0 0 18 18" fill="none" xmlns="http://www.w3.org/2000/svg">
<g clip-path="url(#clip0_2370_609)">
<path fill-rule="evenodd" clip-rule="evenodd" d="M0 9C0 4.0372 4.0372 0 9 0C13.9628 0 18 4.0372 18 9C18 13.9628 13.9628 18 9 18C4.0372 18 0 13.9628 0 9ZM8.68648 11.9677L13.5615 7.09277C13.8547 6.79943 13.8547 6.32551 13.5615 6.03231C13.2682 5.73898 12.7943 5.73898 12.5011 6.03231L8.15625 10.377L6.24903 8.46977C5.95569 8.17643 5.48177 8.17643 5.18857 8.46977C4.89524 8.76297 4.89524 9.23703 5.18857 9.53022L7.62603 11.9677C7.77228 12.1139 7.96427 12.1875 8.15625 12.1875C8.34824 12.1875 8.54023 12.1139 8.68648 11.9677Z" fill="#6081D2"/>
</g>
<defs>
<clipPath id="clip0_2370_609">
<rect width="18" height="18" fill="white"/>
</clipPath>
</defs>
</svg>
