<svg width="18" height="18" viewBox="0 0 18 18" fill="none" xmlns="http://www.w3.org/2000/svg">
<g clip-path="url(#clip0_2014_144)">
<path d="M17.352 15.1829L15.2878 10.7563C14.148 12.4159 12.3683 13.5977 10.3083 13.956L12.0363 17.6615C12.2572 18.1357 12.9409 18.1041 13.1188 17.6144L14.0045 15.1814L14.1871 15.0963L16.62 15.982C17.1083 16.1612 17.5726 15.6552 17.352 15.1829Z" fill="#6081D2"/>
<path d="M8.99995 0C5.44263 0 2.54822 2.89424 2.54822 6.45173C2.54822 10.0092 5.44267 12.9035 8.99995 12.9035C12.5573 12.9035 15.4517 10.0092 15.4517 6.45173C15.4517 2.89424 12.5573 0 8.99995 0ZM12.1392 5.97769L10.9952 7.09291L11.2655 8.66805C11.3482 9.14896 10.8415 9.51026 10.4144 9.28628L8.99999 8.54279L7.58562 9.28624C7.15604 9.5118 6.65225 9.14625 6.73445 8.66802L7.0048 7.09288L5.86078 5.97765C5.51309 5.63868 5.70606 5.04696 6.1858 4.97725L7.76702 4.74757L8.47423 3.31485C8.68822 2.87975 9.31161 2.87937 9.52586 3.31485L10.2331 4.74757L11.8143 4.97725C12.294 5.04693 12.4869 5.63868 12.1392 5.97769Z" fill="#6081D2"/>
<path d="M2.7126 10.7563L0.648366 15.1829C0.426705 15.6574 0.895268 16.1606 1.38035 15.9819L3.81331 15.0962L3.99584 15.1813L4.88153 17.6143C5.0591 18.103 5.74272 18.1366 5.9641 17.6615L7.6921 13.956C5.63205 13.5977 3.85244 12.4159 2.7126 10.7563Z" fill="#6081D2"/>
</g>
<defs>
<clipPath id="clip0_2014_144">
<rect width="18" height="18" fill="white"/>
</clipPath>
</defs>
</svg>
