<svg width="18" height="18" viewBox="0 0 18 18" fill="none" xmlns="http://www.w3.org/2000/svg">
<path d="M16.6667 2.25H11.1667H9.75H8.25H6.83334H1.33333C0.583332 2.25 0 2.83333 0 3.58333V14.3333C0 15.0833 0.583332 15.6667 1.33333 15.6667H16.6667C17.4167 15.6667 18 15.0833 18 14.3333V3.5C18 2.83333 17.4167 2.25 16.6667 2.25ZM12.6667 12.6667C12.6667 13.0833 12.3333 13.3333 12 13.3333H2.91667C2.5 13.3333 2.25 13 2.25 12.6667V5.08333C2.25 4.66667 2.58333 4.41667 2.91667 4.41667H12C12.4167 4.41667 12.6667 4.75 12.6667 5.08333V12.6667ZM15.25 12.5C14.5833 12.5 14 11.9167 14 11.25C14 10.5833 14.5833 10 15.25 10C15.9167 10 16.5 10.5833 16.5 11.25C16.5 11.9167 15.9167 12.5 15.25 12.5ZM15.25 7.75C14.5833 7.75 14 7.16667 14 6.5C14 5.83333 14.5833 5.25 15.25 5.25C15.9167 5.25 16.5 5.83333 16.5 6.5C16.5 7.16667 15.9167 7.75 15.25 7.75Z" fill="#6081D2"/>
</svg>
