<svg width="18" height="18" viewBox="0 0 18 18" fill="none" xmlns="http://www.w3.org/2000/svg">
<path d="M8.99999 12.1088C8.09627 12.1088 7.35685 12.8483 7.35685 13.752C7.35685 14.6557 8.09627 15.3951 8.99999 15.3951C9.90372 15.3951 10.6431 14.6557 10.6431 13.752C10.6431 12.8483 9.90372 12.1088 8.99999 12.1088ZM17.7908 6.35785C15.5726 3.72883 12.3684 2.25 8.99999 2.25C5.63156 2.25 2.42744 3.72883 0.209202 6.35785C-0.119426 6.68648 -0.0372636 7.26158 0.291364 7.50805C0.455678 7.67236 0.619985 7.67236 0.784298 7.67236C1.03077 7.67236 1.27724 7.5902 1.44156 7.34373C3.33117 5.12549 6.04234 3.81098 8.99999 3.81098C11.9576 3.81098 14.6688 5.12549 16.5584 7.34373C16.7228 7.50805 16.9692 7.67236 17.2157 7.67236C17.38 7.67236 17.6265 7.5902 17.7086 7.50805C18.0373 7.26158 18.1194 6.68648 17.7908 6.35785ZM8.99999 5.53628C6.53529 5.53628 4.31705 6.60432 2.67391 8.49393C2.34528 8.82256 2.42744 9.39766 2.75607 9.64413C2.92039 9.80844 3.08469 9.80844 3.24901 9.80844C3.49548 9.80844 3.74195 9.72629 3.90627 9.47982C5.22078 8.00099 7.02823 7.17942 8.99999 7.17942C10.9718 7.17942 12.7792 8.00099 14.0116 9.56197C14.1759 9.72629 14.4224 9.8906 14.6688 9.8906C14.8331 9.8906 15.0796 9.80844 15.1618 9.72629C15.4904 9.39766 15.5726 8.90472 15.2439 8.57609C13.6829 6.60432 11.3825 5.53628 8.99999 5.53628ZM8.99999 8.82256C7.52117 8.82256 6.20666 9.47982 5.22078 10.5479C4.89215 10.8765 4.9743 11.4516 5.30293 11.6981C5.46724 11.8624 5.63156 11.8624 5.79588 11.8624C6.04235 11.8624 6.28882 11.7802 6.45314 11.5337C7.11039 10.7943 8.01411 10.3835 8.99999 10.3835C9.98588 10.3835 10.8896 10.7943 11.5469 11.5337C11.7112 11.6981 11.9577 11.8624 12.2041 11.8624C12.3684 11.8624 12.6149 11.7802 12.6971 11.6981C13.0257 11.3694 13.1078 10.8765 12.7792 10.5479C11.7933 9.47982 10.4788 8.82256 8.99999 8.82256Z" fill="#4A80C6"/>
</svg>
