<svg width="138" height="38" viewBox="0 0 138 38" fill="none" xmlns="http://www.w3.org/2000/svg">
<g clip-path="url(#clip0_6450_1125)">
<path d="M133 38H4.22222C1.9 38 0 36.1 0 33.7778V4.22222C0 1.9 1.9 0 4.22222 0H133C135.322 0 137.222 1.9 137.222 4.22222V33.7778C137.222 36.1 135.322 38 133 38Z" fill="black"/>
<path d="M31.4554 18.7889C31.4554 15.6223 34.0943 14.0389 34.1999 13.9334C32.7221 11.7167 30.2943 11.4001 29.5554 11.4001C27.5499 11.1889 25.6499 12.5612 24.6999 12.5612C23.7499 12.5612 22.061 11.4001 20.4777 11.5056C18.3666 11.5056 16.361 12.7723 15.3054 14.6723C12.9832 18.5778 14.6721 24.2778 16.8888 27.5501C17.9443 29.1334 19.3166 30.8223 20.8999 30.7167C22.4832 30.6112 23.1166 29.7667 25.1221 29.7667C27.0221 29.7667 27.6554 30.7167 29.3443 30.7167C31.0332 30.7167 32.0888 29.1334 33.2499 27.6556C34.5166 25.8612 35.0443 24.1723 35.0443 24.0667C34.8332 23.8556 31.561 22.6945 31.4554 18.7889ZM28.2888 9.3945C29.1332 8.33894 29.7666 6.75561 29.5554 5.27783C28.2888 5.38339 26.811 6.12228 25.7554 7.17783C24.911 8.02228 24.2777 9.71117 24.4888 11.0834C25.9666 11.1889 27.3388 10.4501 28.2888 9.3945ZM54.8888 30.4001H52.5666L51.4054 26.4945H47.0777L45.9166 30.4001H43.6999L48.0277 17.2056H50.6666L54.8888 30.4001ZM51.0888 25.0167L50.0332 21.5334C49.8221 21.1112 49.611 20.2667 49.2943 19.0001C49.1888 19.6334 48.9777 20.3723 48.661 21.5334L47.6054 25.0167H51.0888ZM65.8666 25.5445C65.8666 27.1278 65.4443 28.3945 64.5999 29.4501C63.7554 30.2945 62.8054 30.7167 61.7499 30.7167C60.4832 30.7167 59.5332 30.1889 59.111 29.3445V34.4112H56.9999V24.0667C56.9999 23.1167 56.9999 21.9556 56.8943 20.9001H58.7943L58.8999 22.3778C59.6388 21.3223 60.6943 20.6889 62.0666 20.6889C63.1221 20.6889 64.1777 21.1112 64.811 21.9556C65.4443 23.0112 65.8666 24.0667 65.8666 25.5445ZM63.6499 25.6501C63.6499 24.8056 63.4388 23.9612 63.0166 23.3278C62.4888 22.6945 61.961 22.4834 61.1166 22.4834C60.5888 22.4834 60.1666 22.6945 59.7443 23.0112C59.3221 23.4334 59.0054 23.8556 58.8999 24.3834C58.7943 24.7001 58.7943 24.9112 58.7943 25.0167V26.6001C58.7943 27.3389 59.0054 27.8667 59.4277 28.3945C59.8499 28.9223 60.3777 29.1334 61.1166 29.1334C61.961 29.1334 62.4888 28.8167 63.0166 28.2889C63.4388 27.4445 63.6499 26.7056 63.6499 25.6501ZM76.8443 25.5445C76.8443 27.1278 76.4221 28.3945 75.5777 29.4501C74.7332 30.2945 73.7832 30.7167 72.7277 30.7167C71.461 30.7167 70.511 30.1889 70.0888 29.3445V34.4112H67.9777V24.0667C67.9777 23.1167 67.9777 21.9556 67.8721 20.9001H69.6666L69.7721 22.3778C70.511 21.3223 71.5666 20.6889 72.9388 20.6889C73.9943 20.6889 75.0499 21.1112 75.6832 21.9556C76.4221 23.0112 76.8443 24.0667 76.8443 25.5445ZM74.6277 25.6501C74.6277 24.8056 74.4166 23.9612 73.9943 23.3278C73.4666 22.6945 72.9388 22.4834 72.0943 22.4834C71.5666 22.4834 71.1443 22.6945 70.7221 23.0112C70.2999 23.4334 69.9832 23.8556 69.8777 24.3834C69.7721 24.7001 69.7721 24.9112 69.7721 25.0167V26.6001C69.7721 27.3389 69.9832 27.8667 70.4054 28.3945C70.8277 28.9223 71.3554 29.1334 72.0943 29.1334C72.9388 29.1334 73.4666 28.8167 73.9943 28.2889C74.4166 27.4445 74.6277 26.7056 74.6277 25.6501ZM89.0888 26.8112C89.0888 27.8667 88.6666 28.9223 87.9277 29.5556C87.0832 30.4001 85.8166 30.7167 84.3388 30.7167C82.9666 30.7167 81.6999 30.4001 80.961 29.8723L81.4888 28.0778C82.3332 28.7112 83.4943 28.9223 84.5499 28.9223C85.3943 28.9223 85.9221 28.7112 86.4499 28.3945C86.8721 27.9723 87.1888 27.5501 87.1888 26.9167C87.1888 26.3889 86.9777 25.9667 86.5554 25.5445C86.1332 25.1223 85.6054 24.8056 84.761 24.5945C82.4388 23.7501 81.2777 22.4834 81.2777 20.7945C81.2777 19.7389 81.6999 18.7889 82.4388 18.1556C83.2832 17.4167 84.3388 17.2056 85.711 17.2056C86.8721 17.2056 87.9277 17.4167 88.6665 17.8389L88.1388 19.5278C87.2943 19.1056 86.5554 18.8945 85.6054 18.8945C84.761 18.8945 84.3388 19.1056 83.811 19.5278C83.3888 19.8445 83.2832 20.2667 83.2832 20.6889C83.2832 21.1112 83.4943 21.6389 83.9165 21.9556C84.3388 22.2723 84.8666 22.6945 85.8166 22.9056C86.8721 23.4334 87.8221 23.8556 88.3499 24.4889C88.8777 25.0167 89.0888 25.8612 89.0888 26.8112ZM96.161 22.4834H93.8388V27.1278C93.8388 28.2889 94.261 28.9223 94.9999 28.9223C95.4221 28.9223 95.7388 28.9223 95.8443 28.8167L95.9499 30.4001C95.6332 30.6112 94.9999 30.6112 94.3666 30.6112C93.5221 30.6112 92.8888 30.2945 92.361 29.7667C91.8332 29.2389 91.6221 28.3945 91.6221 27.1278V22.3778H90.2499V20.7945H91.6221V19.0001L93.7332 18.3667V20.7945H96.0554C96.161 20.9001 96.161 22.4834 96.161 22.4834ZM106.611 25.5445C106.611 27.0223 106.189 28.1834 105.344 29.1334C104.5 30.0834 103.233 30.6112 101.861 30.6112C100.489 30.6112 99.3277 30.0834 98.4832 29.2389C97.6388 28.3945 97.2166 27.1278 97.2166 25.7556C97.2166 24.2778 97.6388 23.1167 98.4832 22.0612C99.3277 21.2167 100.489 20.6889 101.967 20.6889C103.339 20.6889 104.5 21.2167 105.344 22.0612C106.294 23.0112 106.611 24.1723 106.611 25.5445ZM104.5 25.6501C104.5 24.8056 104.289 24.0667 103.867 23.3278C103.444 22.4834 102.811 22.2723 101.967 22.2723C101.122 22.2723 100.489 22.6945 99.961 23.3278C99.5388 23.9612 99.3277 24.7001 99.3277 25.6501C99.3277 26.6001 99.5388 27.2334 99.961 27.9723C100.489 28.8167 101.017 29.0278 101.861 29.0278C102.705 29.0278 103.339 28.6056 103.761 27.8667C104.289 27.3389 104.5 26.6001 104.5 25.6501ZM113.472 22.8001C113.261 22.8001 113.05 22.6945 112.733 22.6945C111.889 22.6945 111.467 23.0112 111.044 23.5389C110.622 24.0667 110.517 24.5945 110.517 25.4389V30.4001H108.405V23.8556C108.405 22.8001 108.405 21.7445 108.3 20.9001H110.2L110.305 22.6945H110.411C110.622 22.0612 111.044 21.6389 111.467 21.2167C111.994 20.9001 112.417 20.6889 112.944 20.6889C113.155 20.6889 113.367 20.6889 113.472 20.6889C113.472 20.7945 113.472 22.8001 113.472 22.8001ZM123.078 25.2278C123.078 25.6501 123.078 25.9667 122.972 26.1778H116.639C116.639 27.0223 116.955 27.8667 117.483 28.3945C118.011 28.8167 118.644 29.1334 119.594 29.1334C120.439 29.1334 121.389 28.9223 122.233 28.6056L122.55 30.0834C121.705 30.5056 120.544 30.7167 119.383 30.7167C117.905 30.7167 116.744 30.2945 115.9 29.4501C115.055 28.6056 114.633 27.4445 114.633 25.9667C114.633 24.5945 115.055 23.3278 115.794 22.3778C116.639 21.4278 117.694 20.9001 119.172 20.9001C120.544 20.9001 121.6 21.4278 122.233 22.3778C122.761 23.1167 123.078 24.0667 123.078 25.2278ZM120.967 24.7001C120.967 24.0667 120.861 23.5389 120.544 23.1167C120.122 22.4834 119.7 22.2723 118.855 22.2723C118.117 22.2723 117.589 22.5889 117.167 23.1167C116.744 23.6445 116.533 24.0667 116.533 24.8056L120.967 24.7001ZM50.3499 9.07783C50.3499 10.2389 49.9277 11.1889 49.2943 11.7167C48.5554 12.2445 47.711 12.5612 46.5499 12.5612C45.9166 12.5612 45.4943 12.5612 45.0721 12.4556V6.12228C45.5999 6.01672 46.1277 6.01672 46.8666 6.01672C47.9221 6.01672 48.8721 6.22783 49.5054 6.75561C49.9277 7.28339 50.3499 8.02228 50.3499 9.07783ZM49.2943 9.07783C49.2943 8.23339 49.0832 7.81117 48.661 7.28339C48.2388 6.86117 47.711 6.65005 46.8666 6.65005C46.5499 6.65005 46.2332 6.65005 46.0221 6.75561V11.6112C46.1277 11.6112 46.4443 11.6112 46.761 11.6112C47.6054 11.6112 48.1332 11.4001 48.661 10.8723C48.9777 10.6612 49.2943 9.92228 49.2943 9.07783ZM56.1554 10.0278C56.1554 10.7667 55.9443 11.2945 55.5221 11.8223C55.0999 12.3501 54.5721 12.5612 53.8332 12.5612C53.0943 12.5612 52.6721 12.3501 52.1443 11.8223C51.7221 11.2945 51.511 10.8723 51.511 10.1334C51.511 9.3945 51.7221 8.86672 52.1443 8.33894C52.5666 7.81117 53.0943 7.60005 53.8332 7.60005C54.5721 7.60005 54.9943 7.81117 55.5221 8.33894C55.9443 8.86672 56.1554 9.3945 56.1554 10.0278ZM54.9943 10.1334C54.9943 9.71117 54.8888 9.28894 54.6777 9.07783C54.5721 8.65561 54.2554 8.4445 53.8332 8.4445C53.411 8.4445 53.0943 8.65561 52.8832 9.07783C52.6721 9.3945 52.5666 9.81672 52.5666 10.1334C52.5666 10.5556 52.6721 10.9778 52.8832 11.1889C53.0943 11.6112 53.411 11.8223 53.8332 11.8223C54.2554 11.8223 54.5721 11.6112 54.6777 11.1889C54.8888 10.9778 54.9943 10.5556 54.9943 10.1334ZM63.9666 7.81117L62.4888 12.4556H61.5388L60.9054 10.4501C60.6943 9.92228 60.5888 9.50005 60.4832 8.97228C60.3777 9.50005 60.2721 9.92228 60.061 10.4501L59.4277 12.4556H58.4777L57.1054 7.81117H58.161L58.6888 10.0278C58.7943 10.5556 58.8999 10.9778 59.0054 11.5056C59.111 11.0834 59.2166 10.6612 59.4277 10.0278L60.1666 7.70561H61.011L61.6443 9.92228C61.8554 10.4501 61.961 10.9778 62.0666 11.5056C62.1721 10.9778 62.2777 10.5556 62.3832 9.92228L63.0166 7.70561L63.9666 7.81117ZM69.3499 12.4556H68.3999V9.71117C68.3999 8.86672 68.0832 8.55005 67.5554 8.55005C67.2388 8.55005 66.9221 8.65561 66.711 8.86672C66.4999 9.07783 66.3943 9.3945 66.3943 9.71117V12.4556H65.4443V9.18339C65.4443 8.76117 65.4443 8.33894 65.4443 7.91672H66.2888V8.65561C66.3943 8.4445 66.6054 8.23339 66.8166 8.02228C67.1332 7.81117 67.4499 7.70561 67.661 7.70561C68.0832 7.70561 68.5054 7.81117 68.7166 8.12783C69.1388 8.4445 69.2443 8.97228 69.2443 9.71117L69.3499 12.4556ZM72.1999 12.4556H71.2499V5.70005H72.1999V12.4556ZM78.4277 10.0278C78.4277 10.7667 78.2166 11.2945 77.7943 11.8223C77.3721 12.3501 76.8443 12.5612 76.1054 12.5612C75.3666 12.5612 74.9443 12.3501 74.4166 11.8223C73.9943 11.2945 73.7832 10.8723 73.7832 10.1334C73.7832 9.3945 73.9943 8.86672 74.4166 8.33894C74.8388 7.81117 75.3666 7.60005 76.1054 7.60005C76.8443 7.60005 77.2666 7.81117 77.7943 8.33894C78.2166 8.86672 78.4277 9.3945 78.4277 10.0278ZM77.2666 10.1334C77.2666 9.71117 77.161 9.28894 76.9499 9.07783C76.8443 8.65561 76.5277 8.4445 76.1054 8.4445C75.6832 8.4445 75.3666 8.65561 75.1554 9.07783C74.9443 9.3945 74.8388 9.81672 74.8388 10.1334C74.8388 10.5556 74.9443 10.9778 75.1554 11.1889C75.3666 11.6112 75.6832 11.8223 76.1054 11.8223C76.5277 11.8223 76.8443 11.6112 76.9499 11.1889C77.2666 10.9778 77.2666 10.5556 77.2666 10.1334ZM83.3888 12.4556H82.5443L82.4388 11.9278C82.1221 12.3501 81.5943 12.5612 81.0666 12.5612C80.6443 12.5612 80.2221 12.4556 80.011 12.1389C79.7999 11.8223 79.5888 11.5056 79.5888 11.1889C79.5888 10.5556 79.7999 10.2389 80.3277 9.92228C80.7499 9.50005 81.3832 9.3945 82.2277 9.50005V9.3945C82.2277 8.76117 81.911 8.55005 81.2777 8.55005C80.7499 8.55005 80.4332 8.65561 80.1166 8.86672L79.9054 8.12783C80.3277 7.81117 80.8554 7.70561 81.4888 7.70561C82.6499 7.70561 83.2832 8.4445 83.2832 9.60561V11.2945C83.3888 11.8223 83.3888 12.2445 83.3888 12.4556ZM82.4388 10.8723V10.1334C81.2777 10.1334 80.7499 10.4501 80.7499 11.0834C80.7499 11.2945 80.8554 11.5056 80.961 11.7167C81.0666 11.8223 81.2777 11.9278 81.4888 11.9278C81.6999 11.9278 81.911 11.8223 82.1221 11.7167C82.3332 11.6112 82.4388 11.4001 82.5443 11.0834C82.3332 11.0834 82.4388 10.9778 82.4388 10.8723ZM89.2999 12.4556H88.4554V11.6112C88.1388 12.2445 87.611 12.4556 86.9777 12.4556C86.3443 12.4556 86.0277 12.2445 85.6054 11.7167C85.1832 11.2945 84.9721 10.7667 84.9721 10.0278C84.9721 9.18339 85.1832 8.65561 85.6054 8.12783C85.9221 7.81117 86.4499 7.4945 86.9777 7.4945C87.611 7.4945 88.0332 7.70561 88.2443 8.12783V5.70005H89.1943V11.2945C89.2999 11.6112 89.2999 12.1389 89.2999 12.4556ZM88.2443 10.5556V9.71117C88.2443 9.60561 88.2443 9.50005 88.2443 9.3945C88.1388 9.07783 88.0332 8.86672 87.8221 8.76117C87.611 8.55005 87.3999 8.4445 87.0832 8.4445C86.661 8.4445 86.3443 8.65561 86.2388 8.97228C86.0277 9.28894 85.9221 9.71117 85.9221 10.1334C85.9221 10.6612 86.0277 10.9778 86.2388 11.1889C86.4499 11.4001 86.7666 11.7167 87.0832 11.7167C87.3999 11.7167 87.7166 11.6112 87.9277 11.2945C88.1388 11.1889 88.2443 10.8723 88.2443 10.5556ZM98.2721 10.0278C98.2721 10.7667 98.061 11.2945 97.6388 11.8223C97.2166 12.3501 96.6888 12.5612 95.9499 12.5612C95.211 12.5612 94.7888 12.3501 94.261 11.8223C93.8388 11.2945 93.6277 10.8723 93.6277 10.1334C93.6277 9.3945 93.8388 8.86672 94.261 8.33894C94.6832 7.81117 95.211 7.60005 95.9499 7.60005C96.6888 7.60005 97.111 7.81117 97.6388 8.33894C98.061 8.86672 98.2721 9.3945 98.2721 10.0278ZM97.2166 10.1334C97.2166 9.71117 97.111 9.28894 96.8999 9.07783C96.6888 8.65561 96.3721 8.4445 96.0554 8.4445C95.6332 8.4445 95.3166 8.65561 95.1054 9.07783C94.8943 9.3945 94.7888 9.81672 94.7888 10.1334C94.7888 10.5556 94.8943 10.9778 95.1054 11.1889C95.3166 11.6112 95.6332 11.8223 96.0554 11.8223C96.4777 11.8223 96.7943 11.6112 96.8999 11.1889C97.111 10.9778 97.2166 10.5556 97.2166 10.1334ZM103.867 12.4556H102.917V9.71117C102.917 8.86672 102.6 8.55005 101.967 8.55005C101.65 8.55005 101.333 8.65561 101.122 8.86672C100.911 9.07783 100.805 9.3945 100.805 9.71117V12.4556H99.8554V9.18339C99.8554 8.76117 99.8554 8.33894 99.8554 7.91672H100.7V8.65561C100.911 8.33894 101.122 8.12783 101.333 8.02228C101.65 7.81117 101.967 7.70561 102.283 7.70561C102.705 7.70561 103.128 7.81117 103.339 8.12783C103.761 8.4445 103.867 8.97228 103.867 9.71117V12.4556ZM110.833 8.55005H109.672V10.8723C109.672 11.5056 109.883 11.7167 110.305 11.7167C110.517 11.7167 110.622 11.7167 110.833 11.7167V12.5612C110.622 12.6667 110.305 12.6667 109.989 12.6667C109.567 12.6667 109.25 12.5612 109.039 12.2445C108.828 11.9278 108.722 11.5056 108.722 10.9778V8.55005H107.983V7.81117H108.722V6.96672L109.672 6.65005V7.81117H110.833V8.55005ZM116.428 12.4556H115.478V9.81672C115.478 8.97228 115.161 8.55005 114.633 8.55005C114.105 8.55005 113.789 8.76117 113.683 9.28894C113.683 9.3945 113.683 9.50005 113.683 9.71117V12.4556H112.733V5.70005H113.683V8.4445C114 7.91672 114.528 7.60005 115.055 7.60005C115.478 7.60005 115.9 7.70561 116.111 8.02228C116.533 8.4445 116.639 8.86672 116.639 9.60561C116.428 9.60561 116.428 12.4556 116.428 12.4556ZM122.128 9.92228C122.128 10.1334 122.128 10.2389 122.128 10.4501H119.067C119.067 10.9778 119.278 11.2945 119.594 11.5056C119.911 11.7167 120.228 11.8223 120.544 11.8223C121.072 11.8223 121.389 11.7167 121.811 11.6112L122.022 12.3501C121.6 12.5612 121.072 12.6667 120.439 12.6667C119.7 12.6667 119.172 12.4556 118.75 12.0334C118.328 11.6112 118.117 11.0834 118.117 10.3445C118.117 9.60561 118.328 9.07783 118.75 8.55005C119.172 8.02228 119.7 7.70561 120.333 7.70561C121.072 7.70561 121.494 8.02228 121.811 8.55005C122.022 8.86672 122.128 9.3945 122.128 9.92228ZM121.072 9.60561C121.072 9.28894 120.967 8.97228 120.861 8.76117C120.65 8.4445 120.333 8.33894 120.017 8.33894C119.7 8.33894 119.383 8.4445 119.172 8.76117C118.961 8.97228 118.855 9.28894 118.855 9.60561H121.072Z" fill="white"/>
</g>
<defs>
<clipPath id="clip0_6450_1125">
<rect width="137.222" height="38" fill="white"/>
</clipPath>
</defs>
</svg>
