<svg width="131" height="38" viewBox="0 0 131 38" fill="none" xmlns="http://www.w3.org/2000/svg">
<g clip-path="url(#clip0_6450_1118)">
<path d="M125.562 38H5.03185C2.33843 38 0.222168 35.8889 0.222168 33.202V4.79798C0.222168 2.20707 2.43462 0 5.03185 0H125.562C128.256 0 130.372 2.11111 130.372 4.79798V33.298C130.372 35.8889 128.256 38 125.562 38Z" fill="black"/>
<path d="M46.0954 9.48939C46.1918 9.58404 46.1918 9.77333 46.1918 9.86798C46.1918 10.5305 45.9027 11.2877 45.5174 11.761C44.9393 12.3289 44.1685 12.6128 43.3014 12.6128C42.4343 12.6128 41.7599 12.3289 41.0855 11.761C40.4111 11.1931 40.2184 10.5305 40.2184 9.58404C40.2184 8.63754 40.5074 8.06964 41.0855 7.4071C41.7599 6.93385 42.4343 6.6499 43.3014 6.6499C43.6868 6.6499 44.0722 6.74455 44.4576 6.93385C44.7466 7.12315 45.132 7.31245 45.3247 7.5964V7.69105L44.7466 8.25894L44.6503 8.16429C44.2649 7.69105 43.7832 7.50175 43.1087 7.50175C42.5307 7.50175 41.9526 7.69105 41.6636 8.16429C41.1819 8.54289 40.9892 9.01614 40.9892 9.77333C40.9892 10.5305 41.1819 11.0038 41.6636 11.2877C42.049 11.6663 42.5307 11.9503 43.2051 11.9503C43.8795 11.9503 44.3612 11.761 44.7466 11.2877C45.0356 11.0038 45.2283 10.6252 45.2283 10.2466H43.1087V9.48939H46.0954ZM50.6236 6.8392H47.1552V12.6128H50.7199V11.761H48.1186V10.1519H50.5273V9.30009H48.1186V7.69105H50.7199L50.6236 6.8392ZM51.298 7.69105H52.8395V12.6128H53.803V7.69105H55.4408V6.8392H51.298V7.69105ZM58.1385 12.6128H59.1019V6.8392H58.1385V12.6128ZM59.7763 7.69105H61.4142V12.6128H62.3776V7.69105H64.0155V6.8392H59.7763V7.69105ZM71.5303 7.50175C72.1084 8.06964 72.3974 8.73219 72.3974 9.67868C72.3974 10.5305 72.1084 11.1931 71.5303 11.8556C70.9523 12.5182 70.2778 12.7075 69.3144 12.7075C68.4473 12.7075 67.7729 12.4235 67.0985 11.8556C66.5204 11.2877 66.2314 10.6252 66.2314 9.67868C66.2314 8.82684 66.5204 8.16429 67.0985 7.50175C67.7729 6.93385 68.4473 6.6499 69.3144 6.6499C70.1815 6.6499 70.8559 6.93385 71.5303 7.50175ZM67.7729 8.16429C67.3875 8.54289 67.0985 9.11079 67.0985 9.67868C67.0985 10.2466 67.2912 10.8145 67.7729 11.1931C68.1583 11.5717 68.7363 11.8556 69.2181 11.8556C69.7961 11.8556 70.3742 11.6663 70.6632 11.1931C71.0486 10.8145 71.3376 10.2466 71.3376 9.58404C71.3376 8.92149 71.1449 8.35359 70.6632 8.06964C70.2778 7.69105 69.6998 7.4071 69.2181 7.4071C68.64 7.50175 68.0619 7.69105 67.7729 8.16429ZM76.9256 6.8392V11.0038L74.3243 6.93385H73.3609V12.6128H73.4572C74.228 12.6128 74.228 12.5182 74.228 12.4235V8.16429L77.1183 12.6128H77.9854V6.8392H76.9256ZM70.2778 24.7279C70.2778 26.9995 68.4473 28.7032 66.135 28.7032C63.8228 28.7032 61.9922 26.9995 61.9922 24.7279C61.9922 22.4564 63.8228 20.7527 66.135 20.7527C68.4473 20.7527 70.2778 22.3617 70.2778 24.7279ZM68.4473 24.6333C68.4473 23.1189 67.3875 22.1724 66.135 22.1724C64.8826 22.1724 63.8228 23.2136 63.8228 24.6333C63.8228 26.053 64.8826 27.0942 66.135 27.0942C67.3875 27.0942 68.4473 26.1477 68.4473 24.6333ZM61.3178 24.7279C61.3178 26.9995 59.4873 28.7032 57.175 28.7032C54.8628 28.7032 53.0322 26.9995 53.0322 24.7279C53.0322 22.4564 54.8628 20.7527 57.175 20.7527C59.3909 20.7527 61.2215 22.3617 61.3178 24.7279ZM59.4873 24.6333C59.4873 23.1189 58.4275 22.1724 57.175 22.1724C55.9225 22.1724 54.8628 23.2136 54.8628 24.6333C54.8628 26.053 55.9225 27.0942 57.175 27.0942C58.4275 27.0942 59.4873 26.1477 59.4873 24.6333ZM52.2615 21.9831C52.3578 22.2671 52.3578 22.6457 52.3578 23.0243C52.3578 24.2547 52.0688 25.8637 51.009 26.7156C49.9492 27.8514 48.504 28.4193 46.5771 28.4193C43.1087 28.4193 40.1221 25.6744 40.1221 22.2671C40.1221 18.8597 43.0124 16.1148 46.5771 16.1148C48.504 16.1148 49.8528 16.872 50.9126 17.8185L49.6602 19.049C48.8894 18.3864 47.8296 17.8185 46.4808 17.8185C43.9758 17.8185 41.9526 19.8062 41.9526 22.3617C41.9526 24.9172 43.8795 26.9049 46.4808 26.9049C48.1187 26.9049 49.0821 26.2423 49.6602 25.6744C50.1419 25.2012 50.5273 24.5387 50.6236 23.5922H46.4808V21.8885C46.4808 21.8885 52.2615 21.8885 52.2615 21.9831ZM90.3175 23.5922L84.8258 25.7691C85.3076 26.6209 85.982 26.9995 86.8491 26.9995C87.8125 26.9995 88.3906 26.5263 88.8723 25.8637L90.3175 26.8102C89.8358 27.4728 88.776 28.6086 86.8491 28.6086C84.5368 28.6086 82.8026 26.9049 82.8026 24.6333C82.8026 22.2671 84.5368 20.658 86.6564 20.658C88.8723 20.658 89.8358 22.3617 90.2211 23.2136C90.2211 23.2136 90.4138 23.6868 90.3175 23.5922ZM88.2942 23.0243C88.1016 22.551 87.4271 22.1724 86.7527 22.1724C85.8856 22.1724 84.6332 23.0243 84.6332 24.5387C84.6332 24.5387 88.2942 23.1189 88.2942 23.0243ZM80.105 16.6827H81.9355V28.4193H80.105V16.6827ZM77.311 21.6045V20.942H79.0452V28.1353C79.0452 31.0695 77.2146 32.2999 75.0951 32.2999C73.0718 32.2999 71.9157 30.9748 71.434 29.9337L72.9755 29.2711C73.1682 29.9337 73.9389 30.6909 74.9987 30.6909C76.3475 30.6909 77.2146 29.839 77.2146 28.3246V27.7567H77.1183C76.7329 28.3246 75.9622 28.7032 74.9987 28.7032C72.9755 28.7032 71.0486 26.9995 71.0486 24.7279C71.0486 22.551 72.9755 20.7527 74.9987 20.7527C75.9622 20.7527 76.7329 21.1313 77.311 21.6045ZM77.311 24.7279C77.311 23.3082 76.3475 22.2671 75.0951 22.2671C73.8426 22.2671 72.7828 23.3082 72.7828 24.7279C72.7828 26.053 73.8426 27.0942 75.0951 27.0942C76.3475 27.0942 77.311 26.1477 77.311 24.7279ZM102.553 20.3741C102.553 22.551 100.626 23.9708 98.6031 23.9708H96.0981V28.4193H94.2676V16.6827H98.6031C100.626 16.6827 102.65 18.1025 102.553 20.3741ZM100.819 20.3741C100.819 19.4276 100.048 18.3864 98.6994 18.3864H96.0981V22.3617H98.6994C100.048 22.3617 100.819 21.2259 100.819 20.3741ZM113.633 23.9708V28.4193H111.899V27.4728H111.802C111.417 28.0407 110.742 28.6086 109.49 28.6086C107.948 28.6086 106.503 27.6621 106.503 26.053C106.503 24.3494 108.238 23.4029 109.972 23.4029C110.839 23.4029 111.61 23.6868 111.899 23.8761V23.7815C111.899 22.835 110.935 22.2671 109.972 22.2671C109.297 22.2671 108.719 22.4564 108.334 23.1189L106.696 22.4564C107.178 21.2259 108.527 20.658 109.875 20.658C111.899 20.658 113.536 21.8885 113.633 23.9708ZM111.706 25.2958C111.224 25.1065 110.839 24.9172 110.068 24.9172C109.201 24.9172 108.141 25.2012 108.141 26.1477C108.141 26.8102 109.008 27.0942 109.586 27.0942C110.646 27.0942 111.61 26.337 111.706 25.2958ZM121.822 20.942L116.909 32.016H114.982L116.812 28.0407L113.633 20.942H115.56L117.679 26.053H117.776L119.799 20.942H121.822ZM103.613 16.6827H105.444V28.4193H103.613V16.6827Z" fill="white"/>
<path d="M10.1972 7.6001C9.91217 7.8874 9.72217 8.27046 9.72217 8.94082V29.9136C9.72217 30.4882 9.91217 30.967 10.1972 31.2543L10.2922 31.3501L22.0722 19.5709V19.2836L10.1972 7.6001Z" fill="url(#paint0_linear_6450_1118)"/>
<path d="M26.2934 22.8L22.0723 19.1341V18.8658L26.2934 15.2L26.3964 15.2894L31.4412 17.7929C32.8826 18.5082 32.8826 19.6705 31.4412 20.3858L26.2934 22.8C26.3964 22.7105 26.2934 22.8 26.2934 22.8Z" fill="url(#paint1_linear_6450_1118)"/>
<path d="M26.8221 23.056L22.7604 19L10.6721 30.9748C11.1557 31.4576 11.8326 31.4576 12.703 31.0714L26.8221 23.056Z" fill="url(#paint2_linear_6450_1118)"/>
<path d="M26.8221 14.9249L12.6909 6.96885C11.8257 6.48372 11.1528 6.58075 10.6721 7.06587L22.7846 18.9999L26.8221 14.9249Z" fill="url(#paint3_linear_6450_1118)"/>
</g>
<defs>
<linearGradient id="paint0_linear_6450_1118" x1="20.9824" y1="30.0993" x2="5.06016" y2="14.1179" gradientUnits="userSpaceOnUse">
<stop stop-color="#00A0FF"/>
<stop offset="0.0066" stop-color="#00A1FF"/>
<stop offset="0.2601" stop-color="#00BEFF"/>
<stop offset="0.5122" stop-color="#00D2FF"/>
<stop offset="0.7604" stop-color="#00DFFF"/>
<stop offset="1" stop-color="#00E3FF"/>
</linearGradient>
<linearGradient id="paint1_linear_6450_1118" x1="33.3106" y1="19" x2="8.33873" y2="19" gradientUnits="userSpaceOnUse">
<stop stop-color="#FFE000"/>
<stop offset="0.4087" stop-color="#FFBD00"/>
<stop offset="0.7754" stop-color="#FFA500"/>
<stop offset="1" stop-color="#FF9C00"/>
</linearGradient>
<linearGradient id="paint2_linear_6450_1118" x1="16.509" y1="24.7828" x2="-5.26257" y2="2.72316" gradientUnits="userSpaceOnUse">
<stop stop-color="#FF3A44"/>
<stop offset="1" stop-color="#C31162"/>
</linearGradient>
<linearGradient id="paint3_linear_6450_1118" x1="-0.329498" y1="30.0482" x2="9.439" y2="20.2555" gradientUnits="userSpaceOnUse">
<stop stop-color="#32A071"/>
<stop offset="0.0685" stop-color="#2DA771"/>
<stop offset="0.4762" stop-color="#15CF74"/>
<stop offset="0.8009" stop-color="#06E775"/>
<stop offset="1" stop-color="#00F076"/>
</linearGradient>
<clipPath id="clip0_6450_1118">
<rect width="130.15" height="38" fill="white" transform="translate(0.222168)"/>
</clipPath>
</defs>
</svg>
