<svg width="30" height="30" viewBox="0 0 30 30" fill="none" xmlns="http://www.w3.org/2000/svg">
<path d="M15 30C23.2843 30 30 23.2843 30 15C30 6.71573 23.2843 0 15 0C6.71573 0 0 6.71573 0 15C0 23.2843 6.71573 30 15 30Z" fill="#338AF3"/>
<path d="M23.4783 15.1631H6.52173C6.52173 16.3337 7.54132 17.2827 8.71185 17.2827H8.6413C8.6413 18.4533 9.59022 19.4022 10.7609 19.4022C10.7609 20.5729 11.7098 21.5218 12.8804 21.5218H17.1196C18.2902 21.5218 19.2392 20.5729 19.2392 19.4022C20.4098 19.4022 21.3587 18.4533 21.3587 17.2827H21.2882C22.4586 17.2827 23.4783 16.3337 23.4783 15.1631Z" fill="#FFDA44"/>
<path d="M20.8695 12.3914C20.8695 15.633 18.2416 18.2609 14.9999 18.2609C11.7582 18.2609 9.13037 15.633 9.13037 12.3914" fill="#338AF3"/>
<path d="M19.4832 12.3913L17.6513 13.2531L18.6268 15.0273L16.6375 14.6467L16.3855 16.6562L14.9999 15.1782L13.6143 16.6562L13.3623 14.6467L11.373 15.0272L12.3485 13.253L10.5166 12.3913L12.3485 11.5296L11.373 9.75549L13.3622 10.136L13.6143 8.12646L14.9999 9.60449L16.3855 8.12646L16.6375 10.136L18.6269 9.75549L17.6513 11.5297L19.4832 12.3913Z" fill="#FFDA44"/>
</svg>
