<svg width="30" height="30" viewBox="0 0 30 30" fill="none" xmlns="http://www.w3.org/2000/svg">
<path d="M15 30C23.2843 30 30 23.2843 30 15C30 6.71573 23.2843 0 15 0C6.71573 0 0 6.71573 0 15C0 23.2843 6.71573 30 15 30Z" fill="#FCFCFC"/>
<path d="M6.19573 13.9131L4.5653 10.9551L6.19573 8.04352L7.82616 10.9551L6.19573 13.9131Z" fill="#A2001D"/>
<path d="M2.93487 13.9131L1.30444 10.9551L2.93487 8.04352L4.5653 10.9551L2.93487 13.9131Z" fill="#A2001D"/>
<path d="M6.19573 21.9566L4.5653 18.9986L6.19573 16.087L7.82616 18.9986L6.19573 21.9566Z" fill="#A2001D"/>
<path d="M2.93487 21.9566L1.30444 18.9986L2.93487 16.087L4.5653 18.9986L2.93487 21.9566Z" fill="#A2001D"/>
<path d="M7.82616 2.9117L7.36456 2.0874C6.53663 2.57795 5.76009 3.1459 5.0446 3.78129L6.19573 5.86963L7.82616 2.9117Z" fill="#A2001D"/>
<path d="M6.19573 24.1305L5.03241 26.208C5.74726 26.8442 6.52327 27.413 7.35085 27.9046L7.82622 27.0421L6.19573 24.1305Z" fill="#A2001D"/>
<path d="M9.13037 18.9131V28.8074C10.9332 29.5748 12.9168 30 14.9999 30C21.4494 30 26.9476 25.9294 29.067 20.2174L9.13037 18.9131Z" fill="#6DA544"/>
<path d="M29.067 20.2174C29.6699 18.5924 29.9999 16.8348 29.9999 15C29.9999 6.71578 23.2842 0 14.9999 0C12.917 0 10.9332 0.42498 9.13037 1.19227V20.2174H29.067V20.2174Z" fill="#A2001D"/>
</svg>
