<svg width="208" height="32" viewBox="0 0 208 32" fill="none" xmlns="http://www.w3.org/2000/svg">
<path fill-rule="evenodd" clip-rule="evenodd" d="M77.1549 11.0968V7.39457H91.3715V11.0968H86.2624V24.573H82.338V11.0968H77.1549ZM125.951 19.9082C124.766 20.7967 123.433 21.1669 122.248 21.1669C119.138 21.1669 117.065 19.0196 117.065 15.9838C117.065 12.5777 119.212 10.8006 121.878 10.8006C123.507 10.8006 124.47 11.319 125.358 11.8373L127.061 8.87547C126.025 7.83884 124.099 7.09839 121.804 7.09839C115.88 7.09839 112.845 11.0228 112.845 15.9838C112.845 21.315 116.547 24.8692 121.804 24.8692C124.099 24.8692 126.321 24.0547 127.357 22.87L125.951 19.9082ZM130.097 24.573H140.537V20.8708H134.021V17.7609H139.501V14.0586H134.021V11.0968H140.241V7.39457H130.097V24.573ZM11.4029 19.3899C11.4029 23.0181 8.58922 24.6471 4.88697 24.6471C3.25798 24.6471 0.962585 24.573 0 24.499V7.46861C0.962585 7.39457 3.33202 7.32052 5.18315 7.32052C9.25562 7.32052 10.9587 9.17165 10.9587 11.6151C10.9587 13.3922 10.2923 14.5769 9.03349 15.4655V15.5395C10.2182 15.9097 11.4029 17.1685 11.4029 19.3899ZM3.92438 14.2067H5.18315C6.21978 14.2067 6.96023 13.7624 6.96023 12.5777C6.96023 11.5411 5.99764 11.0228 5.1091 11.0228C4.59079 11.0228 4.29461 11.0968 3.85034 11.0968V14.2067H3.92438ZM7.55259 19.1677C7.55259 18.057 6.73809 17.6128 5.47933 17.6128H3.99843V20.7967C4.29461 20.8708 4.59079 20.9448 5.33124 20.9448C6.73809 20.9448 7.55259 20.3524 7.55259 19.1677ZM54.6452 7.39457L61.7535 24.499H57.533L56.1261 20.8708H49.314L47.9071 24.499H43.9827L51.1651 7.39457H54.6452ZM54.7192 17.3166L52.7941 12.5037L50.8689 17.3166H54.7192ZM75.4518 19.3899C75.4518 23.0181 72.6381 24.6471 68.9359 24.6471C67.3069 24.6471 65.0115 24.573 64.0489 24.499V7.46861C65.0115 7.39457 67.3809 7.32052 69.2321 7.32052C73.3045 7.32052 75.0076 9.17165 75.0076 11.6151C75.0076 13.3922 74.3412 14.5769 73.0824 15.4655V15.5395C74.1931 15.9097 75.4518 17.1685 75.4518 19.3899ZM67.8993 14.2067H69.2321C70.2687 14.2067 71.0091 13.7624 71.0091 12.5777C71.0091 11.5411 70.0466 11.0228 69.158 11.0228C68.6397 11.0228 68.3435 11.0968 67.8993 11.0968V14.2067ZM71.5275 19.1677C71.5275 18.057 70.713 17.6128 69.4542 17.6128H67.9733V20.7967C68.2695 20.8708 68.5657 20.9448 69.3061 20.9448C70.713 20.9448 71.5275 20.3524 71.5275 19.1677ZM110.031 15.9838C110.031 21.1669 106.106 24.8692 100.923 24.8692C95.7402 24.8692 91.8158 21.4631 91.8158 15.9838C91.8158 11.0228 95.444 7.09839 100.923 7.09839C106.181 7.09839 110.031 10.5045 110.031 15.9838ZM105.884 15.9838C105.884 12.8739 103.737 10.8006 100.923 10.8006C98.1096 10.8006 95.9623 12.8739 95.9623 15.9838C95.9623 18.9456 98.1837 21.1669 100.923 21.1669C104.181 21.1669 105.884 18.8715 105.884 15.9838ZM156.383 13.022C156.383 16.0578 154.014 18.7975 150.015 18.7975C149.645 18.7975 148.682 18.7975 148.09 18.7235V24.573H144.166V7.39457C145.128 7.39457 148.09 7.32052 149.423 7.32052C154.606 7.39457 156.383 10.0602 156.383 13.022ZM152.162 13.022C152.162 11.5411 151.2 11.0228 149.793 11.0228C149.275 11.0228 148.904 11.0228 148.09 11.0968V15.0212C148.682 15.0952 149.349 15.1693 149.867 15.1693C150.904 15.0952 152.162 14.651 152.162 13.022ZM170.97 19.3899C170.97 23.0181 168.156 24.6471 164.454 24.6471C162.825 24.6471 160.53 24.573 159.567 24.499V7.46861C160.53 7.39457 162.899 7.32052 164.75 7.32052C168.823 7.32052 170.526 9.17165 170.526 11.6151C170.526 13.3922 169.859 14.5769 168.6 15.4655V15.5395C169.785 15.9097 170.97 17.1685 170.97 19.3899ZM163.491 14.2067H164.824C165.861 14.2067 166.601 13.7624 166.601 12.5777C166.601 11.5411 165.639 11.0228 164.75 11.0228C164.232 11.0228 163.936 11.0968 163.491 11.0968V14.2067ZM167.046 19.1677C167.046 18.057 166.231 17.6128 164.972 17.6128H163.491V20.7967C163.788 20.8708 164.084 20.9448 164.824 20.9448C166.305 20.9448 167.046 20.3524 167.046 19.1677ZM178.078 24.573L185.631 13.9105V24.573H189.555V7.39457H186.149L178.597 18.057V7.39457H174.672V24.499H178.078V24.573ZM205.845 19.9082C204.66 20.7967 203.328 21.1669 202.143 21.1669C199.033 21.1669 196.96 19.0196 196.96 15.9838C196.96 12.5777 199.107 10.8006 201.773 10.8006C203.402 10.8006 204.364 11.319 205.253 11.8373L206.956 8.87547C205.919 7.83884 203.994 7.09839 201.699 7.09839C195.775 7.09839 192.739 11.0228 192.739 15.9838C192.739 21.315 196.441 24.8692 201.699 24.8692C203.994 24.8692 206.215 24.0547 207.252 22.87L205.845 19.9082Z" fill="#3A3A3A"/>
<path fill-rule="evenodd" clip-rule="evenodd" d="M43.2423 6.06167C41.9835 4.87695 39.6141 1.10066 36.4301 5.83954C35.6156 7.0983 35.0233 8.72729 34.579 10.5044L25.3234 4.35864L16.3639 10.2822C16.6601 8.5792 17.1044 6.87617 17.7708 5.39527C20.6586 -1.34283 23.8425 0.138071 32.2096 0.138071C34.3569 0.138071 39.7622 -0.232154 41.3912 0.508296C42.8721 1.1747 44.7972 3.76628 45.2415 6.06167H43.2423ZM34.0607 15.6875L25.3234 9.91201L15.9197 16.1318C15.9197 17.3165 15.9937 18.5753 16.2159 19.76L25.3234 13.6883L34.2828 19.6119C34.1347 18.3531 34.0607 17.0203 34.0607 15.6875ZM25.3234 19.2417L17.2525 24.5729C17.7708 26.1279 18.3632 27.6088 19.1036 29.0156C21.399 32.1255 23.9906 32.0515 28.8035 31.9774H36.8744C39.0217 31.9774 40.8728 32.2736 42.5759 30.6446C43.9827 29.3858 45.0934 27.3866 45.2415 25.7576H43.2423C42.4278 26.8683 41.9095 28.1271 40.1324 28.4973C38.6515 28.7935 37.3927 27.979 36.4301 26.5721L25.3234 19.2417Z" fill="#6081D2"/>
</svg>
