<svg width="18" height="18" viewBox="0 0 18 18" fill="none" xmlns="http://www.w3.org/2000/svg">
<path d="M9.41602 9.8543H15.8531V18H9.41602V9.8543ZM1.80469 9.8543H8.2418V18H1.80469V9.8543ZM13.8492 3.31875C14.025 2.99883 14.1234 2.6332 14.1234 2.24648C14.1234 1.00898 13.1145 0 11.877 0C10.9594 0 10.0242 0.474609 9.30352 1.30078C9.12422 1.50469 8.96602 1.72617 8.82891 1.95469C8.6918 1.72617 8.53359 1.5082 8.3543 1.30078C7.63711 0.474609 6.69844 0 5.78086 0C4.54336 0 3.53437 1.00898 3.53437 2.24648C3.53437 2.6332 3.63281 2.99883 3.80859 3.31875H0.75V8.68359H8.2418V3.31875H9.41602V8.68359H16.9078V3.31875H13.8492ZM5.78437 3.31875C5.19375 3.31875 4.71211 2.83711 4.71211 2.24648C4.71211 1.65586 5.19375 1.17422 5.78437 1.17422C6.84961 1.17422 7.86211 2.26406 8.15742 3.31875H5.78437ZM11.8734 3.31875H9.50039C9.7957 2.26406 10.8082 1.17422 11.8734 1.17422C12.4641 1.17422 12.9457 1.65586 12.9457 2.24648C12.9457 2.83711 12.4676 3.31875 11.8734 3.31875Z" fill="#6081D2"/>
</svg>
