<svg width="156" height="24" viewBox="0 0 156 24" fill="none" xmlns="http://www.w3.org/2000/svg">
<path fill-rule="evenodd" clip-rule="evenodd" d="M57.8662 8.32304V5.54635H68.5286V8.32304H64.6968V18.4302H61.7535V8.32304H57.8662ZM94.4629 14.9316C93.5744 15.598 92.5748 15.8756 91.6862 15.8756C89.3538 15.8756 87.7989 14.2652 87.7989 11.9883C87.7989 9.43372 89.4093 8.10091 91.4085 8.10091C92.6303 8.10091 93.3522 8.48964 94.0186 8.87838L95.2959 6.65703C94.5184 5.87956 93.0746 5.32422 91.353 5.32422C86.9103 5.32422 84.6334 8.26751 84.6334 11.9883C84.6334 15.9867 87.4101 18.6523 91.353 18.6523C93.0746 18.6523 94.7406 18.0414 95.518 17.1529L94.4629 14.9316ZM97.5728 18.4302H105.403V15.6535H100.516V13.3211H104.626V10.5444H100.516V8.32304H105.181V5.54635H97.5728V18.4302ZM8.5522 14.5428C8.5522 17.264 6.44191 18.4857 3.66523 18.4857C2.44348 18.4857 0.721939 18.4302 0 18.3746V5.60189C0.721939 5.54635 2.49902 5.49082 3.88736 5.49082C6.94172 5.49082 8.21899 6.87916 8.21899 8.71178C8.21899 10.0446 7.71919 10.9331 6.77512 11.5995V11.6551C7.66366 11.9327 8.5522 12.8768 8.5522 14.5428ZM2.94329 10.6555H3.88736C4.66483 10.6555 5.22017 10.3223 5.22017 9.43372C5.22017 8.65624 4.49823 8.26751 3.83183 8.26751C3.44309 8.26751 3.22096 8.32304 2.88775 8.32304V10.6555H2.94329ZM5.66444 14.3762C5.66444 13.5432 5.05357 13.21 4.1095 13.21H2.99882V15.598C3.22096 15.6535 3.44309 15.709 3.99843 15.709C5.05357 15.709 5.66444 15.2648 5.66444 14.3762ZM40.9839 5.54635L46.3151 18.3746H43.1497L42.0946 15.6535H36.9855L35.9303 18.3746H32.987L38.3738 5.54635H40.9839ZM41.0394 12.9879L39.5956 9.37818L38.1517 12.9879H41.0394ZM56.5889 14.5428C56.5889 17.264 54.4786 18.4857 51.7019 18.4857C50.4802 18.4857 48.7586 18.4302 48.0367 18.3746V5.60189C48.7586 5.54635 50.5357 5.49082 51.924 5.49082C54.9784 5.49082 56.2557 6.87916 56.2557 8.71178C56.2557 10.0446 55.7559 10.9331 54.8118 11.5995V11.6551C55.6448 11.9327 56.5889 12.8768 56.5889 14.5428ZM50.9244 10.6555H51.924C52.7015 10.6555 53.2569 10.3223 53.2569 9.43372C53.2569 8.65624 52.5349 8.26751 51.8685 8.26751C51.4798 8.26751 51.2576 8.32304 50.9244 8.32304V10.6555ZM53.6456 14.3762C53.6456 13.5432 53.0347 13.21 52.0907 13.21H50.98V15.598C51.2021 15.6535 51.4242 15.709 51.9796 15.709C53.0347 15.709 53.6456 15.2648 53.6456 14.3762ZM82.5231 11.9883C82.5231 15.8756 79.5799 18.6523 75.6925 18.6523C71.8051 18.6523 68.8618 16.0978 68.8618 11.9883C68.8618 8.26751 71.583 5.32422 75.6925 5.32422C79.6354 5.32422 82.5231 7.87877 82.5231 11.9883ZM79.4133 11.9883C79.4133 9.65585 77.8028 8.10091 75.6925 8.10091C73.5822 8.10091 71.9717 9.65585 71.9717 11.9883C71.9717 14.2096 73.6377 15.8756 75.6925 15.8756C78.136 15.8756 79.4133 14.1541 79.4133 11.9883ZM117.287 9.76692C117.287 12.0438 115.51 14.0985 112.511 14.0985C112.234 14.0985 111.512 14.0985 111.067 14.043V18.4302H108.124V5.54635C108.846 5.54635 111.067 5.49082 112.067 5.49082C115.954 5.54635 117.287 7.54557 117.287 9.76692ZM114.122 9.76692C114.122 8.65624 113.4 8.26751 112.345 8.26751C111.956 8.26751 111.678 8.26751 111.067 8.32304V11.2663C111.512 11.3219 112.012 11.3774 112.4 11.3774C113.178 11.3219 114.122 10.9887 114.122 9.76692ZM128.227 14.5428C128.227 17.264 126.117 18.4857 123.34 18.4857C122.119 18.4857 120.397 18.4302 119.675 18.3746V5.60189C120.397 5.54635 122.174 5.49082 123.563 5.49082C126.617 5.49082 127.894 6.87916 127.894 8.71178C127.894 10.0446 127.394 10.9331 126.45 11.5995V11.6551C127.339 11.9327 128.227 12.8768 128.227 14.5428ZM122.619 10.6555H123.618C124.396 10.6555 124.951 10.3223 124.951 9.43372C124.951 8.65624 124.229 8.26751 123.563 8.26751C123.174 8.26751 122.952 8.32304 122.619 8.32304V10.6555ZM125.284 14.3762C125.284 13.5432 124.673 13.21 123.729 13.21H122.619V15.598C122.841 15.6535 123.063 15.709 123.618 15.709C124.729 15.709 125.284 15.2648 125.284 14.3762ZM133.559 18.4302L139.223 10.4333V18.4302H142.166V5.54635H139.612L133.947 13.5432V5.54635H131.004V18.3746H133.559V18.4302ZM154.384 14.9316C153.495 15.598 152.496 15.8756 151.607 15.8756C149.275 15.8756 147.72 14.2652 147.72 11.9883C147.72 9.43372 149.33 8.10091 151.329 8.10091C152.551 8.10091 153.273 8.48964 153.94 8.87838L155.217 6.65703C154.439 5.87956 152.995 5.32422 151.274 5.32422C146.831 5.32422 144.554 8.26751 144.554 11.9883C144.554 15.9867 147.331 18.6523 151.274 18.6523C152.995 18.6523 154.661 18.0414 155.439 17.1529L154.384 14.9316Z" fill="#3A3A3A"/>
<path fill-rule="evenodd" clip-rule="evenodd" d="M32.4294 4.54625C31.4854 3.65771 29.7083 0.825492 27.3203 4.37965C26.7095 5.32373 26.2652 6.54547 25.932 7.87828L18.9903 3.26898L12.2707 7.71168C12.4928 6.4344 12.826 5.15712 13.3258 4.04645C15.4917 -1.00712 17.8796 0.103553 24.1549 0.103553C25.7654 0.103553 29.8194 -0.174115 31.0411 0.381222C32.1518 0.881026 33.5957 2.82471 33.9289 4.54625H32.4294ZM25.5433 11.7656L18.9903 7.43401L11.9375 12.0988C11.9375 12.9874 11.993 13.9315 12.1596 14.82L18.9903 10.2662L25.7099 14.7089C25.5988 13.7649 25.5433 12.7652 25.5433 11.7656ZM18.9903 14.4313L12.9371 18.4297C13.3258 19.5959 13.7701 20.7066 14.3255 21.7617C16.047 24.0941 17.9907 24.0386 21.6004 23.9831H27.6535C29.264 23.9831 30.6524 24.2052 31.9296 22.9835C32.9848 22.0394 33.8178 20.54 33.9289 19.3182H32.4294C31.8186 20.1512 31.4298 21.0953 30.097 21.373C28.9864 21.5951 28.0423 20.9842 27.3203 19.9291L18.9903 14.4313Z" fill="#4A80C6"/>
</svg>
