<svg width="16" height="16" viewBox="0 0 16 16" fill="none" xmlns="http://www.w3.org/2000/svg">
<circle cx="8" cy="8" r="8" fill="#DB4661"/>
<path d="M10.7822 12H5.29297V10.8452L7.26416 8.85254C7.66162 8.44434 7.98031 8.10417 8.22021 7.83203C8.4637 7.55632 8.63916 7.30566 8.74658 7.08008C8.85758 6.85449 8.91309 6.61279 8.91309 6.35498C8.91309 6.04346 8.82536 5.81071 8.6499 5.65674C8.47803 5.49919 8.24707 5.42041 7.95703 5.42041C7.65267 5.42041 7.35726 5.49023 7.0708 5.62988C6.78434 5.76953 6.48535 5.96826 6.17383 6.22607L5.27148 5.15723C5.49707 4.96387 5.73519 4.78125 5.98584 4.60938C6.24007 4.4375 6.53369 4.29964 6.8667 4.1958C7.20329 4.08838 7.60612 4.03467 8.0752 4.03467C8.59082 4.03467 9.03304 4.12777 9.40186 4.31396C9.77425 4.50016 10.0607 4.75439 10.2612 5.07666C10.4618 5.39535 10.562 5.757 10.562 6.16162C10.562 6.59489 10.4761 6.99056 10.3042 7.34863C10.1323 7.70671 9.88167 8.0612 9.55225 8.41211C9.2264 8.76302 8.83252 9.15153 8.37061 9.57764L7.36084 10.5283V10.6035H10.7822V12Z" fill="white"/>
</svg>
