<svg width="18" height="18" viewBox="0 0 18 18" fill="none" xmlns="http://www.w3.org/2000/svg">
<g clip-path="url(#clip0_6450_7063)">
<path d="M10.89 11.88C10.98 12.06 10.98 12.33 10.8 12.42C10.26 12.78 9.63 13.05 8.91 13.05C8.28 13.05 7.56 12.87 7.02 12.42C6.84 12.33 6.84 12.06 6.93 11.88C7.02 11.7 7.29 11.7 7.47 11.79C8.28 12.42 9.45 12.42 10.26 11.79C10.53 11.7 10.8 11.7 10.89 11.88ZM7.74 9.81C7.74 9.36 7.38 9 6.93 9C6.48 9 6.12 9.36 6.12 9.81C6.12 10.26 6.48 10.62 6.93 10.62C7.38 10.62 7.74 10.26 7.74 9.81ZM10.98 9C10.53 9 10.17 9.36 10.17 9.81C10.17 10.26 10.53 10.62 10.98 10.62C11.43 10.62 11.79 10.26 11.79 9.81C11.79 9.36 11.43 9 10.98 9ZM18 9C18 13.95 13.95 18 9 18C4.05 18 0 13.95 0 9C0 4.05 4.05 0 9 0C13.95 0 18 4.05 18 9ZM15.48 8.64C15.48 7.74 14.76 7.02 13.86 7.02C13.5 7.02 13.14 7.11 12.87 7.38C11.97 6.75 10.8 6.39 9.54 6.3L10.26 4.68L12.24 5.13C12.33 5.76 12.78 6.21 13.41 6.21C14.04 6.21 14.58 5.67 14.58 5.04C14.58 4.41 14.04 3.87 13.41 3.87C12.96 3.87 12.6 4.05 12.42 4.41L10.08 3.87C9.9 3.87 9.72 3.96 9.63 4.14L8.73 6.3C7.38 6.39 6.12 6.75 5.13 7.38C4.86 7.2 4.5 7.11 4.14 7.11C3.24 7.11 2.52 7.83 2.52 8.73C2.52 9.36 2.88 9.81 3.33 10.17C3.33 10.26 3.33 10.35 3.33 10.35C3.33 12.6 5.85 14.4 9 14.4C12.15 14.4 14.67 12.6 14.67 10.35C14.67 10.26 14.67 10.26 14.67 10.17C15.12 9.72 15.48 9.18 15.48 8.64Z" fill="#6081D2"/>
</g>
<defs>
<clipPath id="clip0_6450_7063">
<rect width="18" height="18" fill="white"/>
</clipPath>
</defs>
</svg>
