<svg width="30" height="30" viewBox="0 0 30 30" fill="none" xmlns="http://www.w3.org/2000/svg">
<rect opacity="0.08" x="0.5" y="0.5" width="29" height="29" rx="3.5" fill="#6081D2" stroke="#DB4661"/>
<g clip-path="url(#clip0_2110_69)">
<path d="M23.1197 9.96384C22.2825 8.91373 21.1454 8.08428 19.7086 7.47555C18.2719 6.8669 16.7022 6.5625 15.0002 6.5625C13.7306 6.5625 12.5168 6.74223 11.3589 7.10177C10.201 7.46127 9.2036 7.94719 8.36652 8.55944C7.5293 9.17175 6.8633 9.89973 6.36796 10.7433C5.87263 11.587 5.625 12.4716 5.625 13.3972C5.625 14.465 5.94054 15.4657 6.57187 16.3983C7.20321 17.3308 8.0663 18.1141 9.16156 18.7477C9.08475 19.0324 8.99408 19.3031 8.88941 19.5592C8.78478 19.8155 8.69064 20.0258 8.60693 20.1895C8.52316 20.3532 8.40991 20.5348 8.2668 20.7342C8.12391 20.9335 8.0158 21.0741 7.94254 21.1559C7.86936 21.2378 7.74904 21.3733 7.58152 21.5617C7.41423 21.7505 7.30604 21.8733 7.25726 21.9303C7.25019 21.9337 7.22234 21.966 7.17352 22.0264C7.12474 22.0868 7.10026 22.117 7.10026 22.117L7.03748 22.213C7.00256 22.2665 6.98687 22.3003 6.99032 22.3142C6.99384 22.3282 6.98687 22.364 6.96943 22.4209C6.95195 22.478 6.95374 22.5207 6.97463 22.5493V22.5599C7.00267 22.6882 7.06369 22.7913 7.1578 22.8695C7.25191 22.9478 7.35841 22.9799 7.47693 22.9654C7.93045 22.9084 8.32801 22.8305 8.66975 22.7306C10.4974 22.2534 12.1018 21.3922 13.4829 20.1461C14.0059 20.203 14.5116 20.2316 14.9999 20.2316C16.7019 20.2316 18.2715 19.9272 19.7084 19.3182C21.1453 18.7096 22.2823 17.8801 23.1193 16.8302C23.9565 15.7805 24.375 14.6359 24.375 13.3971C24.375 12.1583 23.9566 11.0138 23.1197 9.96384Z" fill="#DB4661"/>
</g>
<defs>
<clipPath id="clip0_2110_69">
<rect width="18.75" height="18.75" fill="white" transform="translate(5.625 5.625)"/>
</clipPath>
</defs>
</svg>
