<svg width="32" height="32" viewBox="0 0 32 32" fill="none" xmlns="http://www.w3.org/2000/svg">
<g clip-path="url(#clip0_1149_4)">
<path d="M15.9992 26.196C14.821 26.196 13.8658 27.1513 13.8658 28.3295C13.8658 29.5077 14.821 30.4629 15.9992 30.4629C17.1776 30.4629 18.1326 29.5077 18.1326 28.3295C18.1326 27.1513 17.1776 26.196 15.9992 26.196ZM15.9992 29.3962C15.4101 29.3962 14.9325 28.9186 14.9325 28.3295C14.9325 27.7404 15.4101 27.2628 15.9992 27.2628C16.5883 27.2628 17.0659 27.7404 17.0659 28.3295C17.0659 28.9186 16.5883 29.3962 15.9992 29.3962Z" fill="#DB4661"/>
<path d="M26.6663 19.2624C28.4339 19.2624 29.8665 17.8297 29.8665 16.0622C29.8665 14.2949 28.4339 12.8621 26.6663 12.8621C24.8991 12.8621 23.4662 14.2949 23.4662 16.0622C23.468 17.829 24.8998 19.2605 26.6663 19.2624ZM26.6663 13.9288C27.8448 13.9288 28.7998 14.884 28.7998 16.0622C28.7998 17.2404 27.8448 18.1956 26.6663 18.1956C25.4882 18.1956 24.5329 17.2404 24.5329 16.0622C24.5329 14.884 25.4882 13.9288 26.6663 13.9288Z" fill="#DB4661"/>
<path d="M31.9999 16.0623C31.9968 13.1179 29.6108 10.7321 26.6664 10.7287C26.5656 10.7287 26.4679 10.7384 26.3687 10.7436L16.1594 4.78887C14.395 1.24913 10.4286 -0.61294 6.57844 0.291008C2.728 1.19496 0.00469378 4.62767 6.05982e-06 8.58254C-0.00468166 12.5374 2.71081 15.9766 6.55891 16.8897L12.4035 27.3397C12.0219 28.7194 12.4636 30.1958 13.5402 31.139C14.6171 32.0823 16.1385 32.3263 17.4563 31.7667C18.7738 31.207 19.6548 29.9429 19.7236 28.5131L27.1906 21.3693C29.9183 21.0969 31.9966 18.8036 31.9999 16.0623ZM14.7507 24.8153L10.3687 16.9248C14.1207 16.0907 16.8531 12.8528 17.0446 9.01407L22.8167 12.3822C21.7443 13.4973 21.2112 15.0242 21.3565 16.5647C21.5018 18.1049 22.3109 19.5052 23.573 20.4L18.3269 25.4169C17.3214 24.6049 15.9648 24.377 14.7491 24.8153H14.7507ZM24.5415 20.9516C24.9176 21.1146 25.3113 21.2336 25.715 21.3058L19.5561 27.1972C19.4413 26.8404 19.2733 26.5032 19.0582 26.1961L24.5415 20.9516ZM30.9332 16.0623C30.9332 18.4189 29.023 20.3292 26.6664 20.3292C24.31 20.3292 22.3995 18.4189 22.3995 16.0623C22.3995 13.7057 24.31 11.7954 26.6664 11.7954C29.0219 11.798 30.9306 13.707 30.9332 16.0623ZM24.8082 11.0696C24.4092 11.2165 24.0293 11.4108 23.6764 11.6483L17.0237 7.76766C16.9763 7.29732 16.8891 6.83193 16.763 6.37645L24.8082 11.0696ZM1.06516 8.5953C1.06516 4.47141 4.40829 1.12829 8.53218 1.12829C12.6561 1.12829 15.9992 4.47141 15.9992 8.5953C15.9992 12.7192 12.6561 16.0623 8.53218 16.0623C4.41011 16.0579 1.06959 12.7174 1.06516 8.5953ZM7.89803 17.097C8.1082 17.1126 8.31837 17.129 8.53218 17.129C8.77177 17.129 9.00746 17.1126 9.24211 17.0933L13.8077 25.314C13.4837 25.5495 13.1998 25.8354 12.9665 26.161L7.89803 17.097ZM15.9992 30.9963C14.5265 30.9963 13.3324 29.8025 13.3324 28.3295C13.3324 26.8568 14.5265 25.6628 15.9992 25.6628C17.4722 25.6628 18.666 26.8568 18.666 28.3295C18.6642 29.8017 17.4714 30.9945 15.9992 30.9963Z" fill="#DB4661"/>
<path d="M14.9325 8.59512C14.9325 5.06032 12.067 2.19482 8.53216 2.19482C4.99736 2.19482 2.13187 5.06032 2.13187 8.59512C2.13187 12.1299 4.99736 14.9954 8.53216 14.9954C12.0654 14.9915 14.9288 12.1284 14.9325 8.59512ZM3.19858 8.59512C3.19858 5.64941 5.58645 3.26154 8.53216 3.26154C11.4779 3.26154 13.8657 5.64941 13.8657 8.59512C13.8657 11.5408 11.4779 13.9287 8.53216 13.9287C5.58802 13.9256 3.20197 11.5395 3.19858 8.59512Z" fill="#DB4661"/>
<path d="M10.1323 8.59519C10.1323 7.71156 9.41581 6.99512 8.53217 6.99512C7.64854 6.99512 6.9321 7.71156 6.9321 8.59519C6.9321 9.47883 7.64854 10.1953 8.53217 10.1953C9.41581 10.1953 10.1323 9.47883 10.1323 8.59519ZM8.53217 9.12855C8.23763 9.12855 7.99882 8.88974 7.99882 8.59519C7.99882 8.30065 8.23763 8.06183 8.53217 8.06183C8.82672 8.06183 9.06553 8.30065 9.06553 8.59519C9.06553 8.88974 8.82672 9.12855 8.53217 9.12855Z" fill="#DB4661"/>
<path d="M10.1323 5.395C10.1323 4.51136 9.41581 3.79492 8.53217 3.79492C7.64854 3.79492 6.9321 4.51136 6.9321 5.395C6.9321 6.27863 7.64854 6.99507 8.53217 6.99507C9.41581 6.99507 10.1323 6.27863 10.1323 5.395ZM8.53217 5.92835C8.23763 5.92835 7.99882 5.68954 7.99882 5.395C7.99882 5.10045 8.23763 4.86164 8.53217 4.86164C8.82672 4.86164 9.06553 5.10045 9.06553 5.395C9.06553 5.68954 8.82672 5.92835 8.53217 5.92835Z" fill="#DB4661"/>
<path d="M5.33201 6.99512C4.44837 6.99512 3.73193 7.71156 3.73193 8.59519C3.73193 9.47883 4.44837 10.1953 5.33201 10.1953C6.21564 10.1953 6.93208 9.47883 6.93208 8.59519C6.93208 7.71156 6.21564 6.99512 5.33201 6.99512ZM5.33201 9.12855C5.03746 9.12855 4.79865 8.88974 4.79865 8.59519C4.79865 8.30065 5.03746 8.06183 5.33201 8.06183C5.62655 8.06183 5.86537 8.30065 5.86537 8.59519C5.86537 8.88974 5.62655 9.12855 5.33201 9.12855Z" fill="#DB4661"/>
<path d="M10.1323 11.7954C10.1323 10.9118 9.41581 10.1953 8.53217 10.1953C7.64854 10.1953 6.9321 10.9118 6.9321 11.7954C6.9321 12.679 7.64854 13.3955 8.53217 13.3955C9.41581 13.3955 10.1323 12.679 10.1323 11.7954ZM7.99882 11.7954C7.99882 11.5008 8.23763 11.262 8.53217 11.262C8.82672 11.262 9.06553 11.5008 9.06553 11.7954C9.06553 12.0899 8.82672 12.3287 8.53217 12.3287C8.23763 12.3287 7.99882 12.0899 7.99882 11.7954Z" fill="#DB4661"/>
<path d="M11.7323 10.1953C12.6159 10.1953 13.3324 9.47883 13.3324 8.59519C13.3324 7.71156 12.6159 6.99512 11.7323 6.99512C10.8487 6.99512 10.1322 7.71156 10.1322 8.59519C10.1322 9.47883 10.8487 10.1953 11.7323 10.1953ZM11.7323 8.06183C12.0269 8.06183 12.2657 8.30065 12.2657 8.59519C12.2657 8.88974 12.0269 9.12855 11.7323 9.12855C11.4378 9.12855 11.199 8.88974 11.199 8.59519C11.199 8.30065 11.4378 8.06183 11.7323 8.06183Z" fill="#DB4661"/>
<path d="M18.666 5.39506H19.7327C19.7309 3.92312 18.5381 2.73009 17.0659 2.72827V3.79499C17.9495 3.79499 18.666 4.51143 18.666 5.39506Z" fill="#DB4661"/>
<path d="M20.7994 5.39495H21.8661C21.8633 2.74509 19.7158 0.597591 17.0659 0.594727V1.66144C19.127 1.66405 20.7968 3.33418 20.7994 5.39495Z" fill="#DB4661"/>
<path d="M4.79865 17.1289H3.73193C3.73376 18.6011 4.92678 19.7939 6.39873 19.7957V18.729C5.51509 18.729 4.79865 18.0125 4.79865 17.1289Z" fill="#DB4661"/>
<path d="M2.66523 17.1289H1.59851C1.60164 19.7788 3.74887 21.9263 6.39873 21.9291V20.8624C4.33796 20.8598 2.66783 19.1897 2.66523 17.1289Z" fill="#DB4661"/>
</g>
<defs>
<clipPath id="clip0_1149_4">
<rect width="32" height="32" fill="white"/>
</clipPath>
</defs>
</svg>
