<svg width="10" height="10" viewBox="0 0 10 10" fill="none" xmlns="http://www.w3.org/2000/svg">
<g clip-path="url(#clip0_6395_1229)">
<path d="M9.28516 4.28516C9.28516 3.89258 8.96289 3.57031 8.57031 3.57031H4.86719L5.3418 1.30273C5.35156 1.25 5.35938 1.19141 5.35938 1.13477C5.35938 0.914062 5.26953 0.712891 5.12305 0.566406L4.55664 0L1.0293 3.5293C0.835938 3.72266 0.714844 3.99023 0.714844 4.28711V8.92969C0.714844 9.52344 1.19336 10.002 1.78711 10.002H6.60938C7.05273 10.002 7.43359 9.73438 7.5957 9.34766L9.21289 5.56836C9.25977 5.44727 9.28711 5.31836 9.28711 5.17969V4.28516H9.28516Z" fill="#6081D2"/>
</g>
<defs>
<clipPath id="clip0_6395_1229">
<rect width="10" height="10" fill="white"/>
</clipPath>
</defs>
</svg>
