<svg width="32" height="32" viewBox="0 0 32 32" fill="none" xmlns="http://www.w3.org/2000/svg">
<g clip-path="url(#clip0_1149_29)">
<path d="M16 0C7.16347 0 0 7.16347 0 16C0 24.8365 7.16347 32 16 32C24.8365 32 32 24.8365 32 16C31.99 7.1676 24.8324 0.01 16 0ZM30.3552 20.1035L29.3531 19.7776L29.0229 20.7909L30.0293 21.1179C29.6131 22.2533 29.0604 23.3339 28.3835 24.336L27.5301 23.7173L26.9029 24.5803L27.7499 25.1957C27.0045 26.1471 26.1475 27.0053 25.1973 27.752L24.5819 26.9051L23.7189 27.5323L24.3376 28.3856C23.3356 29.0618 22.2551 29.6137 21.12 30.0293L20.7931 29.0229L19.7797 29.3531L20.1056 30.3552C18.9423 30.6883 17.7427 30.8779 16.5333 30.92V29.8667H15.4667V30.92C14.2581 30.8778 13.0591 30.6881 11.8965 30.3552L12.2224 29.3531L11.2091 29.0229L10.88 30.0293C9.7446 29.6131 8.66393 29.0604 7.66187 28.3835L8.28053 27.5301L7.4176 26.9029L6.80213 27.7499C5.85127 27.0038 4.99353 26.1461 4.24747 25.1952L5.0944 24.5797L4.4672 23.7168L3.61387 24.3355C2.93893 23.3339 2.38807 22.2543 1.97333 21.12L2.97973 20.7931L2.6496 19.7797L1.64747 20.1056C1.31347 18.9424 1.12293 17.7427 1.08 16.5333H2.13333V15.4667H1.08C1.1222 14.2581 1.31187 13.0591 1.6448 11.8965L2.64693 12.2224L2.97707 11.2091L1.97333 10.88C2.3896 9.7446 2.94227 8.66393 3.6192 7.66187L4.47253 8.28053L5.09973 7.4176L4.248 6.80267C4.99407 5.8518 5.8518 4.99407 6.80267 4.248L7.41813 5.09493L8.28107 4.46773L7.6624 3.6144C8.66453 2.93913 9.745 2.38807 10.88 1.97333L11.2069 2.97973L12.2203 2.6496L11.8944 1.64747C13.0576 1.31347 14.2573 1.12293 15.4667 1.08V2.13333H16.5333V1.08C17.7419 1.1222 18.9409 1.31187 20.1035 1.6448L19.7776 2.64693L20.7909 2.97707L21.12 1.97333C22.2554 2.3896 23.3361 2.94227 24.3381 3.6192L23.7195 4.47253L24.5824 5.09973L25.1979 4.2528C26.1487 4.99887 27.0065 5.8566 27.7525 6.80747L26.9056 7.42293L27.5328 8.28587L28.3861 7.6672C29.0618 8.66773 29.6135 9.74653 30.0293 10.88L29.0229 11.2069L29.3531 12.2203L30.3552 11.8944C30.6883 13.0577 30.8779 14.2573 30.92 15.4667H29.8667V16.5333H30.92C30.8778 17.7419 30.6881 18.9409 30.3552 20.1035Z" fill="#DB4661"/>
<path d="M16 4.2666C9.51986 4.2666 4.26666 9.5198 4.26666 15.9999C4.26666 22.4801 9.51986 27.7333 16 27.7333C22.4801 27.7333 27.7333 22.4801 27.7333 15.9999C27.726 9.52287 22.4771 4.27393 16 4.2666ZM16 26.6666C10.1089 26.6666 5.33333 21.891 5.33333 15.9999C5.33333 10.1089 10.1089 5.33327 16 5.33327C21.8911 5.33327 26.6667 10.1089 26.6667 15.9999C26.6599 21.8881 21.8883 26.6599 16 26.6666Z" fill="#DB4661"/>
<path d="M16 6.93335C10.9926 6.93335 6.93335 10.9926 6.93335 16C6.93335 21.0074 10.9926 25.0667 16 25.0667C21.0074 25.0667 25.0667 21.0074 25.0667 16C25.0611 10.9949 21.0051 6.93895 16 6.93335ZM22.8581 11.9024C23.4782 12.9317 23.8563 14.0885 23.9637 15.2853L20.6235 15.0155C20.3299 14.9908 20.112 14.7328 20.1367 14.4393C20.1485 14.3002 20.2143 14.1712 20.32 14.08L22.8581 11.9024ZM17.7808 8.20695L16.4923 11.3003C16.3789 11.5721 16.0667 11.7007 15.7948 11.5873C15.665 11.5332 15.5619 11.4301 15.5077 11.3003L14.2192 8.20695C15.3904 7.93102 16.6096 7.93102 17.7808 8.20695ZM9.14188 11.9023L11.68 14.08C11.9037 14.2717 11.9295 14.6084 11.7379 14.832C11.6463 14.9388 11.5163 15.0051 11.376 15.0165L8.03575 15.2864C8.14322 14.0891 8.52148 12.9319 9.14188 11.9023ZM13.6331 20.0928L12.8587 23.3557C11.7553 22.8794 10.7728 22.1617 9.98348 21.2555H9.98188L12.8363 19.5141C13.0877 19.3606 13.4159 19.4399 13.5694 19.6913C13.6428 19.8115 13.6657 19.9558 13.6331 20.0928ZM19.1413 23.3557H19.1397L18.3637 20.0928C18.2955 19.8063 18.4725 19.5187 18.7591 19.4505C18.8961 19.4179 19.0403 19.4407 19.1605 19.5141L22.0149 21.2555C21.2261 22.1615 20.2441 22.8792 19.1413 23.3557ZM19.7173 18.6032C18.963 18.1429 17.9784 18.3813 17.5181 19.1356C17.2982 19.4961 17.2296 19.9289 17.3275 20.3397L18.1275 23.704C16.7363 24.0987 15.2627 24.0987 13.8715 23.704H13.8704L14.6704 20.3397C14.8748 19.4801 14.3436 18.6174 13.4839 18.413C13.0733 18.3154 12.6408 18.3839 12.2805 18.6037L9.32908 20.4053C8.53215 19.2001 8.07895 17.8004 8.01815 16.3568L11.4624 16.0784C12.3431 16.0062 12.9985 15.2337 12.9263 14.353C12.8918 13.9331 12.6931 13.5437 12.3733 13.2693L9.74935 11.0187C10.651 9.89055 11.8403 9.02662 13.192 8.51788L14.5211 11.7088C14.8607 12.5245 15.7974 12.9105 16.6132 12.5708C17.0031 12.4085 17.3129 12.0986 17.4752 11.7088L18.8048 8.51788C20.1563 9.02675 21.3457 9.89068 22.2475 11.0187L19.6267 13.2693C18.956 13.8447 18.8788 14.8549 19.4542 15.5255C19.7289 15.8456 20.1188 16.0443 20.5392 16.0784L23.9835 16.3568C23.9227 17.8004 23.4695 19.2001 22.6725 20.4053L19.7173 18.6032Z" fill="#DB4661"/>
<path d="M16 13.8667C14.8218 13.8667 13.8667 14.8218 13.8667 16C13.8667 17.1782 14.8218 18.1334 16 18.1334C17.1782 18.1334 18.1333 17.1782 18.1333 16C18.1333 14.8218 17.1782 13.8667 16 13.8667ZM16 17.0667C15.4109 17.0667 14.9333 16.5892 14.9333 16C14.9333 15.4109 15.4109 14.9334 16 14.9334C16.5891 14.9334 17.0667 15.4109 17.0667 16C17.0667 16.5892 16.5891 17.0667 16 17.0667Z" fill="#DB4661"/>
</g>
<defs>
<clipPath id="clip0_1149_29">
<rect width="32" height="32" fill="white"/>
</clipPath>
</defs>
</svg>
