<svg width="24" height="24" viewBox="0 0 24 24" fill="none" xmlns="http://www.w3.org/2000/svg">
<g clip-path="url(#clip0_1044_78)">
<path d="M8.03941 15.0142L8.98581 15.9606L2.72086 22.2255C2.54834 22.398 2.35118 22.4227 2.24767 22.4227C2.14415 22.4227 1.94206 22.398 1.77447 22.2255C1.51322 21.9643 1.51322 21.5404 1.77447 21.2791L8.03941 15.0142ZM8.03941 12.7813L0.660482 20.1651C-0.216905 21.0425 -0.216905 22.467 0.660482 23.3444C1.09918 23.7831 1.67589 24 2.2526 24C2.82931 24 3.40109 23.7831 3.84471 23.3444L11.2236 15.9655L8.03941 12.7813Z" fill="#6081D2"/>
<path d="M22.0037 2.00123L21.146 3.6525L19.4898 4.50524L20.3475 2.8589L22.0037 2.00123ZM22.4325 0L19.1793 1.68577L17.5132 4.89464L13.6044 8.81331L15.1916 10.4005L19.1053 6.48675L22.3191 4.82563L24 1.5724L22.4325 0Z" fill="#6081D2"/>
<path d="M19.8053 15.0142L19.5046 14.9846C18.9575 14.9846 18.435 15.098 17.9519 15.2754L8.72456 6.05299C8.90201 5.56993 9.01538 5.04744 9.01538 4.50031L8.98581 4.19963C8.82807 1.85336 6.90078 0 4.52 0C3.82992 0 3.17927 0.167591 2.59271 0.448552L5.57977 3.43561C5.7375 3.59335 5.84594 3.78065 5.91495 3.97289C6.11211 4.50524 6.00367 5.12138 5.57977 5.55022C5.28895 5.84103 4.90447 5.98891 4.52 5.98891C4.34255 5.98891 4.17003 5.94948 4.00244 5.8854C3.80528 5.81146 3.61797 5.70795 3.46516 5.54529L0.478104 2.56808C0.197143 3.15465 0.0246225 3.8053 0.0246225 4.49538C0.0246225 6.87615 1.87798 8.80345 4.21932 8.96118L4.52 8.99076C5.06714 8.99076 5.58963 8.87739 6.07268 8.69994L15.2951 17.9273C15.1177 18.4104 15.0043 18.9328 15.0043 19.48L15.0339 19.7807C15.1916 22.122 17.1189 23.9754 19.4997 23.9754C20.1898 23.9754 20.8404 23.8078 21.427 23.5268L18.4399 20.5397C18.2822 20.382 18.1737 20.1947 18.0998 20.0025C17.9026 19.4701 18.0111 18.849 18.4399 18.4202C18.7307 18.1294 19.1152 17.9815 19.4997 17.9815C19.6771 17.9815 19.8496 18.0209 20.0222 18.085C20.2193 18.159 20.4066 18.2625 20.5594 18.4202L23.5465 21.4073C23.8275 20.8207 23.995 20.175 23.995 19.48C24 17.1041 22.1466 15.1768 19.8053 15.0142Z" fill="#6081D2"/>
</g>
<defs>
<clipPath id="clip0_1044_78">
<rect width="24" height="24" fill="white"/>
</clipPath>
</defs>
</svg>
