<svg width="24" height="24" viewBox="0 0 24 24" fill="none" xmlns="http://www.w3.org/2000/svg">
<g clip-path="url(#clip0_1044_38)">
<path d="M10.2422 2.3437C9.72186 1.82339 8.88279 1.82339 8.36248 2.33902L3.98436 6.71714L2.26873 4.99683C1.74842 4.47652 0.909357 4.47652 0.389044 4.99683C-0.131268 5.51714 -0.131268 6.3562 0.389044 6.87652L3.04686 9.53433C3.30467 9.79683 3.64686 9.92339 3.98436 9.92339C4.32654 9.92339 4.66404 9.79214 4.92654 9.53433L10.2422 4.22339C10.7578 3.70308 10.7578 2.85933 10.2422 2.3437Z" fill="#6081D2"/>
<path d="M23.6109 2.3437C23.0906 1.82339 22.2515 1.82339 21.7312 2.33902L17.3578 6.71714L15.6421 4.99683C15.1218 4.47652 14.2828 4.47652 13.7625 4.99683C13.2421 5.51714 13.2421 6.3562 13.7625 6.87652L16.4203 9.53433C16.6781 9.79683 17.0203 9.92339 17.3578 9.92339C17.7 9.92339 18.0375 9.79214 18.3 9.53433L23.6109 4.22339C24.1312 3.70308 24.1312 2.85933 23.6109 2.3437Z" fill="#6081D2"/>
<path d="M10.2422 14.3812C9.72186 13.8609 8.88279 13.8609 8.36248 14.3765L3.98436 18.7593L2.26873 17.0437C1.74842 16.5234 0.909357 16.5234 0.389044 17.0437C-0.131268 17.564 -0.131268 18.4031 0.389044 18.9234L3.04686 21.5765C3.30467 21.8343 3.64686 21.9656 3.98436 21.9656C4.32654 21.9656 4.66404 21.8343 4.92654 21.5765L10.2422 16.2609C10.7578 15.7453 10.7578 14.9015 10.2422 14.3812Z" fill="#6081D2"/>
<path d="M23.6109 14.3812C23.0906 13.8609 22.2515 13.8609 21.7312 14.3765L17.3578 18.7547L15.6421 17.039C15.1218 16.5187 14.2828 16.5187 13.7625 17.039C13.2421 17.5593 13.2421 18.3984 13.7625 18.9187L16.4203 21.5765C16.6781 21.8343 17.0203 21.9656 17.3578 21.9656C17.6999 21.9656 18.0374 21.8343 18.2999 21.5765L23.6156 16.2609C24.1312 15.7453 24.1312 14.9015 23.6109 14.3812Z" fill="#6081D2"/>
</g>
<defs>
<clipPath id="clip0_1044_38">
<rect width="24" height="24" fill="white"/>
</clipPath>
</defs>
</svg>
