<svg width="32" height="32" viewBox="0 0 32 32" fill="none" xmlns="http://www.w3.org/2000/svg">
<g clip-path="url(#clip0_1149_18)">
<path d="M31.9622 12.1306C31.9387 11.7864 31.6406 11.5261 31.2961 11.5496C30.9517 11.573 30.6916 11.8711 30.7151 12.2156C30.7383 12.5571 30.75 12.8989 30.75 13.2312C30.75 16.1804 29.8828 19.0266 28.2419 21.4622C28.0493 21.7485 28.125 22.1367 28.4111 22.3296C28.5183 22.4019 28.6396 22.4363 28.7598 22.4363C28.9607 22.4363 29.158 22.3396 29.2788 22.1604C31.0591 19.5178 32 16.4302 32 13.2312C32 12.8709 31.9873 12.5005 31.9622 12.1306Z" fill="#DB4661"/>
<path d="M1.25 13.2311C1.25 9.98109 2.28711 6.89857 4.24878 4.31654C4.45776 4.04188 4.40405 3.64955 4.12939 3.44081C3.85449 3.23207 3.4624 3.28553 3.25366 3.56044C1.125 6.36171 0 9.7057 0 13.2311C0 15.4901 0.462402 17.6754 1.37451 19.726C1.47803 19.9589 1.70654 20.0971 1.94604 20.0971C2.03076 20.0971 2.11694 20.0797 2.19971 20.0429C2.51489 19.9027 2.65698 19.5333 2.5166 19.2179C1.67603 17.3283 1.25 15.3141 1.25 13.2311Z" fill="#DB4661"/>
<path d="M11.3137 6.69016C11.4143 6.93576 11.6726 7.09494 11.937 7.07444C12.2087 7.0532 12.4407 6.85447 12.5005 6.58811C12.6228 6.04416 11.9897 5.61789 11.5317 5.9404C11.2964 6.10617 11.2026 6.4238 11.3137 6.69016Z" fill="#DB4661"/>
<path d="M20.2019 6.21269C20.0728 5.89799 19.6992 5.74369 19.3855 5.87455C19.0711 6.0059 18.9172 6.3748 19.0474 6.69023C19.1775 7.00493 19.5493 7.15922 19.8638 7.02836C20.1777 6.89775 20.333 6.52739 20.2019 6.21269Z" fill="#DB4661"/>
<path d="M11.5444 20.5427C12.0164 20.8572 12.6443 20.4014 12.4932 19.8567C12.4219 19.5999 12.188 19.4121 11.9216 19.3989C11.6558 19.3857 11.4036 19.5503 11.3081 19.7983C11.2051 20.0662 11.3027 20.3845 11.5444 20.5427Z" fill="#DB4661"/>
<path d="M20.2019 19.7839C20.0994 19.538 19.8447 19.3801 19.5786 19.3999C19.3066 19.4201 19.0757 19.6206 19.0151 19.8859C18.8906 20.4323 19.5266 20.8535 19.9844 20.5339C20.2222 20.3679 20.3113 20.051 20.2019 19.7839Z" fill="#DB4661"/>
<path d="M24.1807 12.9807C24.0495 12.6662 23.6794 12.5124 23.3642 12.6425C23.0498 12.7727 22.8955 13.1445 23.0264 13.4589C23.157 13.7734 23.5276 13.9274 23.8425 13.7971C24.1565 13.6669 24.3115 13.2949 24.1807 12.9807Z" fill="#DB4661"/>
<path d="M7.68261 13.7395C8.15429 14.054 8.78344 13.5979 8.63159 13.053C8.5603 12.7967 8.32666 12.6089 8.0603 12.5957C7.79345 12.5823 7.5432 12.7466 7.44701 12.9952C7.34325 13.2627 7.44091 13.5813 7.68261 13.7395Z" fill="#DB4661"/>
<path d="M24.397 23.4307C24.9336 22.989 25.4377 22.5034 25.9038 21.9766C28.042 19.5598 29.2195 16.45 29.2195 13.2197C29.2195 5.93042 23.2893 0 16 0C8.71069 0 2.78052 5.93042 2.78052 13.2195C2.78052 16.4055 3.92969 19.4832 6.01636 21.8855C6.47754 22.4163 6.97778 22.9065 7.51074 23.353L3.84253 31.0503C3.75024 31.2439 3.76367 31.4712 3.87817 31.6526C3.99268 31.8342 4.19214 31.9441 4.40674 31.9441H7.02588C7.20898 31.9441 7.38257 31.8633 7.50146 31.7239C7.62012 31.5847 7.67163 31.3997 7.64282 31.2188C7.59204 30.9004 7.30713 30.6777 6.99365 30.6941H5.39673L8.5271 24.1257C8.54907 24.1409 8.57153 24.155 8.59375 24.1702C9.68579 24.9097 10.8892 25.4858 12.1514 25.8691C12.52 25.9812 12.8938 26.0771 13.271 26.1565C13.2942 26.1614 13.3171 26.1667 13.3403 26.1716L12.9329 27.7083H11.4807C11.1355 27.7083 10.8557 27.988 10.8557 28.3333C10.8557 28.6785 11.1355 28.9583 11.4807 28.9583H20.2402C20.5854 28.9583 20.8652 28.6785 20.8652 28.3333C20.8652 27.988 20.5854 27.7083 20.2402 27.7083H18.8076L18.4197 26.2183C18.4417 26.2144 18.4634 26.2095 18.4854 26.2053C19.8269 25.9497 21.127 25.4834 22.3259 24.8293C22.6626 24.6458 22.991 24.4468 23.3105 24.2346C23.3313 24.2207 23.3525 24.2075 23.3733 24.1936L26.3967 30.6941H12.7017C12.6914 30.6936 12.6812 30.6934 12.6707 30.6934C12.3254 30.6934 12.0457 30.9739 12.0457 31.3191C12.0457 31.6643 12.3254 31.9441 12.6707 31.9441H27.3767C27.5903 31.9441 27.7891 31.8352 27.9038 31.655C28.0186 31.4751 28.0334 31.249 27.9436 31.0554L24.397 23.4307ZM6.96021 21.0657C5.0708 18.8909 4.03052 16.1045 4.03052 13.2195C4.03052 6.61963 9.3999 1.25 16 1.25C22.6001 1.25 27.9695 6.61963 27.9695 13.2195C27.9695 16.1445 26.9033 18.9602 24.9675 21.1482C24.4331 21.7522 23.8433 22.2961 23.209 22.7754C22.0872 23.623 20.8157 24.271 19.4697 24.678C19.0896 24.793 18.7039 24.8896 18.3142 24.9658C18.2441 24.9795 18.1738 24.9915 18.1038 25.0039L17.8215 23.9194C20.9199 23.3574 23.6628 21.4409 25.2551 18.6887C25.2566 18.686 25.2581 18.6829 25.2595 18.6802C26.2036 17.0454 26.7026 15.1792 26.7026 13.2825C26.7026 11.3821 26.2019 9.51245 25.2546 7.87549C25.2546 7.87524 25.2544 7.875 25.2542 7.87476C24.3208 6.26196 22.979 4.90918 21.3735 3.96289C19.7185 2.9873 17.823 2.47168 15.8918 2.47168C13.9607 2.47168 12.0652 2.9873 10.4104 3.96289C8.80444 4.90918 7.4624 6.26221 6.52905 7.87524C6.52905 7.87549 6.52881 7.87549 6.52856 7.87573C5.58203 9.5127 5.08154 11.3823 5.08154 13.2825C5.08154 15.1821 5.58203 17.0515 6.52856 18.6885C6.52905 18.6895 6.52979 18.6899 6.53003 18.6909C8.11816 21.4336 10.8513 23.3477 13.9387 23.915L13.6619 24.9597C13.6055 24.9485 13.5493 24.938 13.4934 24.926C12.2268 24.6558 11.002 24.1772 9.88989 23.5132C9.57324 23.3242 9.26465 23.1221 8.96631 22.9053C8.87842 22.8416 8.79175 22.7761 8.70581 22.71C8.07471 22.2246 7.48926 21.6748 6.96021 21.0657ZM14.2263 27.7083L15.8865 21.4487L17.5161 27.7083H14.2263ZM16.5171 18.9084V17.0569C17.4287 16.9048 18.2598 16.4248 18.8481 15.7112L23.842 18.594C22.384 20.7695 20.0791 22.2666 17.5059 22.7068L16.5171 18.9084ZM24.4678 17.512L19.4736 14.6289C19.6343 14.2007 19.7178 13.7441 19.7178 13.2825C19.7178 12.8208 19.6343 12.3643 19.4736 11.936L24.4678 9.05249C25.1135 10.3613 25.4526 11.8113 25.4526 13.2825C25.4526 14.7532 25.1135 16.2029 24.4678 17.512ZM18.8477 10.8538C18.2595 10.1401 17.4282 9.66016 16.5168 9.5083V3.74194C18.0068 3.83911 19.4548 4.28271 20.7388 5.03955C21.9795 5.771 23.0422 6.77661 23.8418 7.97046L18.8477 10.8538ZM18.1233 11.9946C18.4304 12.481 18.5244 13.1194 18.437 13.6807C18.3523 14.2241 18.0913 14.7327 17.6987 15.1177C16.9705 15.8323 15.8608 16.0535 14.9163 15.6655C13.8977 15.2468 13.2429 14.1985 13.3223 13.0977C13.3997 12.0242 14.1616 11.0947 15.1963 10.803C16.1836 10.5242 17.2698 10.8789 17.9087 11.6804C17.988 11.7795 18.0596 11.8848 18.1233 11.9946ZM15.2668 9.5083C14.3552 9.6604 13.5239 10.1401 12.9358 10.854L7.94189 7.97046C8.74121 6.77661 9.8042 5.771 11.0452 5.03955C12.3291 4.28296 13.7771 3.83936 15.2668 3.74194V9.5083ZM7.31616 9.05249L12.3101 11.936C12.1492 12.3643 12.0657 12.8208 12.0657 13.2825C12.0657 13.7439 12.1492 14.2004 12.3101 14.6287L7.31616 17.5117C6.67041 16.2026 6.33154 14.7529 6.33154 13.2825C6.33154 11.8115 6.67041 10.3616 7.31616 9.05249ZM12.936 15.7112C13.5242 16.4248 14.3555 16.9048 15.2671 17.0569V18.9055L14.26 22.7036C11.6946 22.2595 9.39648 20.7637 7.94214 18.594L12.936 15.7112Z" fill="#DB4661"/>
<path d="M10.21 30.7995C9.98778 30.6516 9.68945 30.663 9.47875 30.8266C9.27245 30.9863 9.18871 31.268 9.27026 31.5151C9.45336 32.0681 10.2539 32.0756 10.4512 31.5295C10.5466 31.2649 10.4465 30.9541 10.21 30.7995Z" fill="#DB4661"/>
</g>
<defs>
<clipPath id="clip0_1149_18">
<rect width="32" height="32" fill="white"/>
</clipPath>
</defs>
</svg>
