<svg width="14" height="14" viewBox="0 0 14 14" fill="none" xmlns="http://www.w3.org/2000/svg">
<g clip-path="url(#clip0_2329_20068)">
<path d="M8.37011 5.62406C8.37011 5.69393 8.37011 5.69393 8.37011 5.76379C8.37011 5.83366 8.30007 5.90352 8.23002 5.90352H8.15998C8.08994 5.90352 8.01989 5.83366 8.01989 5.69393C8.01989 5.62406 8.01989 5.48434 8.01989 5.41447C7.94985 5.27474 7.87981 5.06515 7.73972 4.99529C7.59964 4.92542 7.52959 4.92542 7.45955 4.92542C7.31947 4.85556 7.24942 4.85556 7.17938 4.85556C7.0393 4.78569 6.96925 4.71583 6.96925 4.64597C6.96925 4.5761 7.10934 4.50624 7.17938 4.50624C7.80977 4.50624 8.30007 4.85556 8.37011 5.62406ZM8.86041 5.90352C8.86041 5.97338 8.86041 6.04325 8.86041 6.04325C8.93045 6.18298 9.14058 6.18298 9.21062 6.04325C9.21062 5.97339 9.21062 5.97338 9.21062 5.90352C9.21062 5.83366 9.21062 5.76379 9.21062 5.69393C9.21062 5.62406 9.21062 5.62406 9.21062 5.5542C9.07053 4.78569 8.72032 4.22678 8.01989 3.87746C7.66968 3.73773 7.31947 3.598 6.96925 3.598C6.82917 3.598 6.75912 3.66787 6.75912 3.73773C6.75912 3.87746 6.82917 3.94732 6.89921 3.94732C6.96925 3.94732 7.10934 3.94732 7.17938 4.01719C7.38951 4.01719 7.59964 4.08705 7.80977 4.22678C8.08994 4.36651 8.37011 4.64597 8.58024 4.92542C8.79036 5.20488 8.86041 5.5542 8.86041 5.90352ZM9.14058 7.78985C8.93045 7.65013 8.72032 7.5104 8.58024 7.37067C8.37011 7.23094 8.08994 7.23094 7.94985 7.37067C7.73972 7.5104 7.66968 7.85972 7.38951 7.85972C7.24942 7.85972 7.10934 7.78985 6.96925 7.78985C6.0587 7.44053 5.49835 6.74189 5.21818 5.83366C5.21818 5.69393 5.21818 5.62406 5.28823 5.48434C5.28823 5.41447 5.35827 5.34461 5.42831 5.34461C5.49836 5.27474 5.5684 5.27474 5.5684 5.20488C5.70848 5.06515 5.70848 4.71583 5.5684 4.43637C5.35827 4.01719 5.0781 3.598 4.72789 3.24868C4.5878 3.10895 4.37767 3.03909 4.16754 3.10896C3.88737 3.24868 3.67724 3.38841 3.46712 3.598C3.32703 3.87746 3.1169 4.22678 3.25699 4.50624C3.39707 4.85556 3.53716 5.20488 3.67724 5.48434C4.02746 6.18298 4.44771 6.81176 4.93801 7.44053C5.84857 8.48849 6.96925 9.11727 8.23002 9.67619C8.37011 9.74605 8.44015 9.74605 8.58024 9.81591C8.72032 9.81591 8.79036 9.74605 8.93045 9.74605C9.28066 9.53646 9.56083 9.257 9.70092 8.83782C9.841 8.62822 9.77096 8.41863 9.56083 8.2789C9.49079 8.06931 9.35071 7.92958 9.14058 7.78985ZM10.0511 5.41447C9.70092 3.8076 8.37011 2.75963 6.75912 2.68977H6.61904C6.549 2.68977 6.40891 2.8295 6.47895 2.89936C6.47895 3.03909 6.61904 3.03909 6.75912 3.03909C6.96925 3.03909 7.10934 3.03909 7.31947 3.10896C8.51019 3.31855 9.49079 4.29665 9.70092 5.5542C9.70092 5.76379 9.77096 6.04325 9.77096 6.25284C9.77096 6.39257 9.84101 6.46243 9.98109 6.46243C10.1212 6.46243 10.1912 6.32271 10.1912 6.25284C10.0511 5.97338 10.0511 5.69393 10.0511 5.41447ZM9.70092 8.20904C9.49079 8.06931 9.35071 7.92958 9.14058 7.78985C8.93045 7.65013 8.72032 7.5104 8.58024 7.37067C8.37011 7.23094 8.08994 7.23094 7.94985 7.37067C7.73972 7.5104 7.66968 7.85972 7.38951 7.85972C7.24942 7.85972 7.10934 7.78985 6.96925 7.78985C6.0587 7.44053 5.49835 6.74189 5.21818 5.83366C5.21818 5.69393 5.21818 5.62406 5.28823 5.48434C5.28823 5.41447 5.35827 5.34461 5.42831 5.34461C5.49836 5.27474 5.5684 5.27474 5.5684 5.20488C5.70848 5.06515 5.70848 4.71583 5.5684 4.43637C5.35827 4.01719 5.0781 3.598 4.72789 3.24868C4.5878 3.10895 4.37767 3.03909 4.16754 3.10896C3.88737 3.24868 3.67724 3.38841 3.46712 3.598C3.32703 3.87746 3.1169 4.22678 3.25699 4.50624C3.39707 4.85556 3.53716 5.20488 3.67724 5.48434C4.02746 6.18298 4.44771 6.81176 4.93801 7.44053C5.84857 8.48849 6.96925 9.11727 8.23002 9.67619C8.37011 9.74605 8.44015 9.74605 8.58024 9.81591C8.51019 9.81591 8.65028 9.81591 8.65028 9.81591C8.79036 9.81591 8.86041 9.74605 9.00049 9.74605C9.35071 9.53646 9.63088 9.257 9.77096 8.83782C9.91105 8.55836 9.841 8.41863 9.70092 8.20904ZM9.21062 5.62406C9.21062 5.5542 9.21062 5.5542 9.21062 5.48434C9.07053 4.78569 8.72032 4.22678 8.01989 3.87746C7.66968 3.73773 7.31947 3.598 6.96925 3.598C6.82917 3.598 6.75912 3.66787 6.75912 3.73773C6.75912 3.87746 6.82917 3.94732 6.89921 3.94732C6.96925 3.94732 7.10934 3.94732 7.17938 4.01719C7.38951 4.01719 7.59964 4.08705 7.80977 4.22678C8.08994 4.36651 8.37011 4.64597 8.58024 4.92542C8.72032 5.20488 8.86041 5.5542 8.86041 5.90352C8.86041 5.97338 8.86041 6.04325 8.86041 6.04325C8.93045 6.18298 9.14058 6.18298 9.21062 6.04325C9.21062 5.97339 9.21062 5.97338 9.21062 5.90352C9.21062 5.76379 9.21062 5.69393 9.21062 5.62406ZM7.17938 4.43637C7.10934 4.43637 6.96925 4.50624 6.96925 4.5761C6.96925 4.64597 7.0393 4.78569 7.10934 4.78569C7.24942 4.78569 7.31947 4.78569 7.38951 4.85556C7.52959 4.92542 7.59964 4.92542 7.66968 4.99529C7.80977 5.06515 7.87981 5.27474 7.94985 5.41447C7.94985 5.48434 7.94985 5.5542 7.94985 5.69393C7.94985 5.76379 8.01989 5.83366 8.08994 5.90352H8.15998C8.23002 5.90352 8.30006 5.83366 8.30006 5.76379C8.37011 5.69393 8.37011 5.62406 8.37011 5.62406C8.30007 4.85556 7.80977 4.50624 7.17938 4.43637ZM10.0511 5.41447C9.70092 3.8076 8.37011 2.75963 6.75912 2.68977H6.61904C6.549 2.68977 6.40891 2.8295 6.47895 2.89936C6.47895 3.03909 6.61904 3.03909 6.75912 3.03909C6.96925 3.03909 7.10934 3.03909 7.31947 3.10896C8.51019 3.31855 9.49079 4.29665 9.70092 5.5542C9.70092 5.76379 9.77096 6.04325 9.77096 6.25284C9.77096 6.39257 9.84101 6.46243 9.98109 6.46243C10.1212 6.46243 10.1912 6.32271 10.1912 6.25284C10.0511 5.97338 10.0511 5.69393 10.0511 5.41447ZM7.17938 4.43637C7.10934 4.43637 6.96925 4.50624 6.96925 4.5761C6.96925 4.64597 7.0393 4.78569 7.10934 4.78569C7.24942 4.78569 7.31947 4.78569 7.38951 4.85556C7.52959 4.92542 7.59964 4.92542 7.66968 4.99529C7.80977 5.06515 7.87981 5.27474 7.94985 5.41447C7.94985 5.48434 7.94985 5.5542 7.94985 5.69393C7.94985 5.76379 8.01989 5.83366 8.08994 5.90352H8.15998C8.23002 5.90352 8.30006 5.83366 8.30006 5.76379C8.37011 5.69393 8.37011 5.62406 8.37011 5.62406C8.30007 4.85556 7.80977 4.50624 7.17938 4.43637ZM8.86041 5.90352C8.86041 5.97338 8.86041 6.04325 8.86041 6.04325C8.93045 6.18298 9.14058 6.18298 9.21062 6.04325C9.21062 5.97339 9.21062 5.97338 9.21062 5.90352C9.21062 5.83366 9.21062 5.76379 9.21062 5.69393C9.21062 5.62406 9.21062 5.62406 9.21062 5.5542C9.07053 4.78569 8.72032 4.22678 8.01989 3.87746C7.66968 3.73773 7.31947 3.598 6.96925 3.598C6.82917 3.598 6.75912 3.66787 6.75912 3.73773C6.75912 3.87746 6.82917 3.94732 6.89921 3.94732C6.96925 3.94732 7.10934 3.94732 7.17938 4.01719C7.38951 4.01719 7.59964 4.08705 7.80977 4.22678C8.08994 4.36651 8.37011 4.64597 8.58024 4.92542C8.79036 5.20488 8.86041 5.5542 8.86041 5.90352ZM9.14058 7.78985C8.93045 7.65013 8.72032 7.5104 8.58024 7.37067C8.37011 7.23094 8.08994 7.23094 7.94985 7.37067C7.73972 7.5104 7.66968 7.85972 7.38951 7.85972C7.24942 7.85972 7.10934 7.78985 6.96925 7.78985C6.0587 7.44053 5.49835 6.74189 5.21818 5.83366C5.21818 5.69393 5.21818 5.62406 5.28823 5.48434C5.28823 5.41447 5.35827 5.34461 5.42831 5.34461C5.49836 5.27474 5.5684 5.27474 5.5684 5.20488C5.70848 5.06515 5.70848 4.71583 5.5684 4.43637C5.35827 4.01719 5.0781 3.598 4.72789 3.24868C4.5878 3.10895 4.37767 3.03909 4.16754 3.10896C3.88737 3.24868 3.67724 3.38841 3.46712 3.598C3.32703 3.87746 3.1169 4.22678 3.25699 4.50624C3.39707 4.85556 3.53716 5.20488 3.67724 5.48434C4.02746 6.18298 4.44771 6.81176 4.93801 7.44053C5.84857 8.48849 6.96925 9.11727 8.23002 9.67619C8.37011 9.74605 8.44015 9.74605 8.58024 9.81591C8.72032 9.81591 8.79036 9.74605 8.93045 9.74605C9.28066 9.53646 9.56083 9.257 9.70092 8.83782C9.841 8.62822 9.77096 8.41863 9.56083 8.2789C9.49079 8.06931 9.35071 7.92958 9.14058 7.78985ZM10.0511 5.41447C9.70092 3.8076 8.37011 2.75963 6.75912 2.68977H6.61904C6.549 2.68977 6.40891 2.8295 6.47895 2.89936C6.47895 3.03909 6.61904 3.03909 6.75912 3.03909C6.96925 3.03909 7.10934 3.03909 7.31947 3.10896C8.51019 3.31855 9.49079 4.29665 9.70092 5.5542C9.70092 5.76379 9.77096 6.04325 9.77096 6.25284C9.77096 6.39257 9.84101 6.46243 9.98109 6.46243C10.1212 6.46243 10.1912 6.32271 10.1912 6.25284C10.0511 5.97338 10.0511 5.69393 10.0511 5.41447ZM9.70092 8.20904C9.49079 8.06931 9.35071 7.92958 9.14058 7.78985C8.93045 7.65013 8.72032 7.5104 8.58024 7.37067C8.37011 7.23094 8.08994 7.23094 7.94985 7.37067C7.73972 7.5104 7.66968 7.85972 7.38951 7.85972C7.24942 7.85972 7.10934 7.78985 6.96925 7.78985C6.0587 7.44053 5.49835 6.74189 5.21818 5.83366C5.21818 5.69393 5.21818 5.62406 5.28823 5.48434C5.28823 5.41447 5.35827 5.34461 5.42831 5.34461C5.49836 5.27474 5.5684 5.27474 5.5684 5.20488C5.70848 5.06515 5.70848 4.71583 5.5684 4.43637C5.35827 4.01719 5.0781 3.598 4.72789 3.24868C4.5878 3.10895 4.37767 3.03909 4.16754 3.10896C3.88737 3.24868 3.67724 3.38841 3.46712 3.598C3.32703 3.87746 3.1169 4.22678 3.25699 4.50624C3.39707 4.85556 3.53716 5.20488 3.67724 5.48434C4.02746 6.18298 4.44771 6.81176 4.93801 7.44053C5.84857 8.48849 6.96925 9.11727 8.23002 9.67619C8.37011 9.74605 8.44015 9.74605 8.58024 9.81591C8.51019 9.81591 8.65028 9.81591 8.65028 9.81591C8.79036 9.81591 8.86041 9.74605 9.00049 9.74605C9.35071 9.53646 9.63088 9.257 9.77096 8.83782C9.91105 8.55836 9.841 8.41863 9.70092 8.20904ZM9.21062 5.62406C9.21062 5.5542 9.21062 5.5542 9.21062 5.48434C9.07053 4.78569 8.72032 4.22678 8.01989 3.87746C7.66968 3.73773 7.31947 3.598 6.96925 3.598C6.82917 3.598 6.75912 3.66787 6.75912 3.73773C6.75912 3.87746 6.82917 3.94732 6.89921 3.94732C6.96925 3.94732 7.10934 3.94732 7.17938 4.01719C7.38951 4.01719 7.59964 4.08705 7.80977 4.22678C8.08994 4.36651 8.37011 4.64597 8.58024 4.92542C8.72032 5.20488 8.86041 5.5542 8.86041 5.90352C8.86041 5.97338 8.86041 6.04325 8.86041 6.04325C8.93045 6.18298 9.14058 6.18298 9.21062 6.04325C9.21062 5.97339 9.21062 5.97338 9.21062 5.90352C9.21062 5.76379 9.21062 5.69393 9.21062 5.62406ZM7.17938 4.43637C7.10934 4.43637 6.96925 4.50624 6.96925 4.5761C6.96925 4.64597 7.0393 4.78569 7.10934 4.78569C7.24942 4.78569 7.31947 4.78569 7.38951 4.85556C7.52959 4.92542 7.59964 4.92542 7.66968 4.99529C7.80977 5.06515 7.87981 5.27474 7.94985 5.41447C7.94985 5.48434 7.94985 5.5542 7.94985 5.69393C7.94985 5.76379 8.01989 5.83366 8.08994 5.90352H8.15998C8.23002 5.90352 8.30006 5.83366 8.30006 5.76379C8.37011 5.69393 8.37011 5.62406 8.37011 5.62406C8.30007 4.85556 7.80977 4.50624 7.17938 4.43637ZM10.0511 5.41447C9.70092 3.8076 8.37011 2.75963 6.75912 2.68977H6.61904C6.549 2.68977 6.40891 2.8295 6.47895 2.89936C6.47895 3.03909 6.61904 3.03909 6.75912 3.03909C6.96925 3.03909 7.10934 3.03909 7.31947 3.10896C8.51019 3.31855 9.49079 4.29665 9.70092 5.5542C9.70092 5.76379 9.77096 6.04325 9.77096 6.25284C9.77096 6.39257 9.84101 6.46243 9.98109 6.46243C10.1212 6.46243 10.1912 6.32271 10.1912 6.25284C10.0511 5.97338 10.0511 5.69393 10.0511 5.41447ZM7.17938 4.43637C7.10934 4.43637 6.96925 4.50624 6.96925 4.5761C6.96925 4.64597 7.0393 4.78569 7.10934 4.78569C7.24942 4.78569 7.31947 4.78569 7.38951 4.85556C7.52959 4.92542 7.59964 4.92542 7.66968 4.99529C7.80977 5.06515 7.87981 5.27474 7.94985 5.41447C7.94985 5.48434 7.94985 5.5542 7.94985 5.69393C7.94985 5.76379 8.01989 5.83366 8.08994 5.90352H8.15998C8.23002 5.90352 8.30006 5.83366 8.30006 5.76379C8.37011 5.69393 8.37011 5.62406 8.37011 5.62406C8.30007 4.85556 7.80977 4.50624 7.17938 4.43637ZM8.86041 5.90352C8.86041 5.97338 8.86041 6.04325 8.86041 6.04325C8.93045 6.18298 9.14058 6.18298 9.21062 6.04325C9.21062 5.97339 9.21062 5.97338 9.21062 5.90352C9.21062 5.83366 9.21062 5.76379 9.21062 5.69393C9.21062 5.62406 9.21062 5.62406 9.21062 5.5542C9.07053 4.78569 8.72032 4.22678 8.01989 3.87746C7.66968 3.73773 7.31947 3.598 6.96925 3.598C6.82917 3.598 6.75912 3.66787 6.75912 3.73773C6.75912 3.87746 6.82917 3.94732 6.89921 3.94732C6.96925 3.94732 7.10934 3.94732 7.17938 4.01719C7.38951 4.01719 7.59964 4.08705 7.80977 4.22678C8.08994 4.36651 8.37011 4.64597 8.58024 4.92542C8.79036 5.20488 8.86041 5.5542 8.86041 5.90352ZM9.14058 7.78985C8.93045 7.65013 8.72032 7.5104 8.58024 7.37067C8.37011 7.23094 8.08994 7.23094 7.94985 7.37067C7.73972 7.5104 7.66968 7.85972 7.38951 7.85972C7.24942 7.85972 7.10934 7.78985 6.96925 7.78985C6.0587 7.44053 5.49835 6.74189 5.21818 5.83366C5.21818 5.69393 5.21818 5.62406 5.28823 5.48434C5.28823 5.41447 5.35827 5.34461 5.42831 5.34461C5.49836 5.27474 5.5684 5.27474 5.5684 5.20488C5.70848 5.06515 5.70848 4.71583 5.5684 4.43637C5.35827 4.01719 5.0781 3.598 4.72789 3.24868C4.5878 3.10895 4.37767 3.03909 4.16754 3.10896C3.88737 3.24868 3.67724 3.38841 3.46712 3.598C3.32703 3.87746 3.1169 4.22678 3.25699 4.50624C3.39707 4.85556 3.53716 5.20488 3.67724 5.48434C4.02746 6.18298 4.44771 6.81176 4.93801 7.44053C5.84857 8.48849 6.96925 9.11727 8.23002 9.67619C8.37011 9.74605 8.44015 9.74605 8.58024 9.81591C8.72032 9.81591 8.79036 9.74605 8.93045 9.74605C9.28066 9.53646 9.56083 9.257 9.70092 8.83782C9.841 8.62822 9.77096 8.41863 9.56083 8.2789C9.49079 8.06931 9.35071 7.92958 9.14058 7.78985ZM10.0511 5.41447C9.70092 3.8076 8.37011 2.75963 6.75912 2.68977H6.61904C6.549 2.68977 6.40891 2.8295 6.47895 2.89936C6.47895 3.03909 6.61904 3.03909 6.75912 3.03909C6.96925 3.03909 7.10934 3.03909 7.31947 3.10896C8.51019 3.31855 9.49079 4.29665 9.70092 5.5542C9.70092 5.76379 9.77096 6.04325 9.77096 6.25284C9.77096 6.39257 9.84101 6.46243 9.98109 6.46243C10.1212 6.46243 10.1912 6.32271 10.1912 6.25284C10.0511 5.97338 10.0511 5.69393 10.0511 5.41447ZM9.70092 8.20904C9.49079 8.06931 9.35071 7.92958 9.14058 7.78985C8.93045 7.65013 8.72032 7.5104 8.58024 7.37067C8.37011 7.23094 8.08994 7.23094 7.94985 7.37067C7.73972 7.5104 7.66968 7.85972 7.38951 7.85972C7.24942 7.85972 7.10934 7.78985 6.96925 7.78985C6.0587 7.44053 5.49835 6.74189 5.21818 5.83366C5.21818 5.69393 5.21818 5.62406 5.28823 5.48434C5.28823 5.41447 5.35827 5.34461 5.42831 5.34461C5.49836 5.27474 5.5684 5.27474 5.5684 5.20488C5.70848 5.06515 5.70848 4.71583 5.5684 4.43637C5.35827 4.01719 5.0781 3.598 4.72789 3.24868C4.5878 3.10895 4.37767 3.03909 4.16754 3.10896C3.88737 3.24868 3.67724 3.38841 3.46712 3.598C3.32703 3.87746 3.1169 4.22678 3.25699 4.50624C3.39707 4.85556 3.53716 5.20488 3.67724 5.48434C4.02746 6.18298 4.44771 6.81176 4.93801 7.44053C5.84857 8.48849 6.96925 9.11727 8.23002 9.67619C8.37011 9.74605 8.44015 9.74605 8.58024 9.81591C8.51019 9.81591 8.65028 9.81591 8.65028 9.81591C8.79036 9.81591 8.86041 9.74605 9.00049 9.74605C9.35071 9.53646 9.63088 9.257 9.77096 8.83782C9.91105 8.55836 9.841 8.41863 9.70092 8.20904ZM9.21062 5.62406C9.21062 5.5542 9.21062 5.5542 9.21062 5.48434C9.07053 4.78569 8.72032 4.22678 8.01989 3.87746C7.66968 3.73773 7.31947 3.598 6.96925 3.598C6.82917 3.598 6.75912 3.66787 6.75912 3.73773C6.75912 3.87746 6.82917 3.94732 6.89921 3.94732C6.96925 3.94732 7.10934 3.94732 7.17938 4.01719C7.38951 4.01719 7.59964 4.08705 7.80977 4.22678C8.08994 4.36651 8.37011 4.64597 8.58024 4.92542C8.72032 5.20488 8.86041 5.5542 8.86041 5.90352C8.86041 5.97338 8.86041 6.04325 8.86041 6.04325C8.93045 6.18298 9.14058 6.18298 9.21062 6.04325C9.21062 5.97339 9.21062 5.97338 9.21062 5.90352C9.21062 5.76379 9.21062 5.69393 9.21062 5.62406ZM7.17938 4.43637C7.10934 4.43637 6.96925 4.50624 6.96925 4.5761C6.96925 4.64597 7.0393 4.78569 7.10934 4.78569C7.24942 4.78569 7.31947 4.78569 7.38951 4.85556C7.52959 4.92542 7.59964 4.92542 7.66968 4.99529C7.80977 5.06515 7.87981 5.27474 7.94985 5.41447C7.94985 5.48434 7.94985 5.5542 7.94985 5.69393C7.94985 5.76379 8.01989 5.83366 8.08994 5.90352H8.15998C8.23002 5.90352 8.30006 5.83366 8.30006 5.76379C8.37011 5.69393 8.37011 5.62406 8.37011 5.62406C8.30007 4.85556 7.80977 4.50624 7.17938 4.43637ZM10.0511 5.41447C9.70092 3.8076 8.37011 2.75963 6.75912 2.68977H6.61904C6.549 2.68977 6.40891 2.8295 6.47895 2.89936C6.47895 3.03909 6.61904 3.03909 6.75912 3.03909C6.96925 3.03909 7.10934 3.03909 7.31947 3.10896C8.51019 3.31855 9.49079 4.29665 9.70092 5.5542C9.70092 5.76379 9.77096 6.04325 9.77096 6.25284C9.77096 6.39257 9.84101 6.46243 9.98109 6.46243C10.1212 6.46243 10.1912 6.32271 10.1912 6.25284C10.0511 5.97338 10.0511 5.69393 10.0511 5.41447ZM7.17938 4.43637C7.10934 4.43637 6.96925 4.50624 6.96925 4.5761C6.96925 4.64597 7.0393 4.78569 7.10934 4.78569C7.24942 4.78569 7.31947 4.78569 7.38951 4.85556C7.52959 4.92542 7.59964 4.92542 7.66968 4.99529C7.80977 5.06515 7.87981 5.27474 7.94985 5.41447C7.94985 5.48434 7.94985 5.5542 7.94985 5.69393C7.94985 5.76379 8.01989 5.83366 8.08994 5.90352H8.15998C8.23002 5.90352 8.30006 5.83366 8.30006 5.76379C8.37011 5.69393 8.37011 5.62406 8.37011 5.62406C8.30007 4.85556 7.80977 4.50624 7.17938 4.43637ZM8.86041 5.90352C8.86041 5.97338 8.86041 6.04325 8.86041 6.04325C8.93045 6.18298 9.14058 6.18298 9.21062 6.04325C9.21062 5.97339 9.21062 5.97338 9.21062 5.90352C9.21062 5.83366 9.21062 5.76379 9.21062 5.69393C9.21062 5.62406 9.21062 5.62406 9.21062 5.5542C9.07053 4.78569 8.72032 4.22678 8.01989 3.87746C7.66968 3.73773 7.31947 3.598 6.96925 3.598C6.82917 3.598 6.75912 3.66787 6.75912 3.73773C6.75912 3.87746 6.82917 3.94732 6.89921 3.94732C6.96925 3.94732 7.10934 3.94732 7.17938 4.01719C7.38951 4.01719 7.59964 4.08705 7.80977 4.22678C8.08994 4.36651 8.37011 4.64597 8.58024 4.92542C8.79036 5.20488 8.86041 5.5542 8.86041 5.90352ZM9.14058 7.78985C8.93045 7.65013 8.72032 7.5104 8.58024 7.37067C8.37011 7.23094 8.08994 7.23094 7.94985 7.37067C7.73972 7.5104 7.66968 7.85972 7.38951 7.85972C7.24942 7.85972 7.10934 7.78985 6.96925 7.78985C6.0587 7.44053 5.49835 6.74189 5.21818 5.83366C5.21818 5.69393 5.21818 5.62406 5.28823 5.48434C5.28823 5.41447 5.35827 5.34461 5.42831 5.34461C5.49836 5.27474 5.5684 5.27474 5.5684 5.20488C5.70848 5.06515 5.70848 4.71583 5.5684 4.43637C5.35827 4.01719 5.0781 3.598 4.72789 3.24868C4.5878 3.10895 4.37767 3.03909 4.16754 3.10896C3.88737 3.24868 3.67724 3.38841 3.46712 3.598C3.32703 3.87746 3.1169 4.22678 3.25699 4.50624C3.39707 4.85556 3.53716 5.20488 3.67724 5.48434C4.02746 6.18298 4.44771 6.81176 4.93801 7.44053C5.84857 8.48849 6.96925 9.11727 8.23002 9.67619C8.37011 9.74605 8.44015 9.74605 8.58024 9.81591C8.72032 9.81591 8.79036 9.74605 8.93045 9.74605C9.28066 9.53646 9.56083 9.257 9.70092 8.83782C9.841 8.62822 9.77096 8.41863 9.56083 8.2789C9.49079 8.06931 9.35071 7.92958 9.14058 7.78985ZM10.0511 5.41447C9.70092 3.8076 8.37011 2.75963 6.75912 2.68977H6.61904C6.549 2.68977 6.40891 2.8295 6.47895 2.89936C6.47895 3.03909 6.61904 3.03909 6.75912 3.03909C6.96925 3.03909 7.10934 3.03909 7.31947 3.10896C8.51019 3.31855 9.49079 4.29665 9.70092 5.5542C9.70092 5.76379 9.77096 6.04325 9.77096 6.25284C9.77096 6.39257 9.84101 6.46243 9.98109 6.46243C10.1212 6.46243 10.1912 6.32271 10.1912 6.25284C10.0511 5.97338 10.0511 5.69393 10.0511 5.41447ZM9.70092 8.20904C9.49079 8.06931 9.35071 7.92958 9.14058 7.78985C8.93045 7.65013 8.72032 7.5104 8.58024 7.37067C8.37011 7.23094 8.08994 7.23094 7.94985 7.37067C7.73972 7.5104 7.66968 7.85972 7.38951 7.85972C7.24942 7.85972 7.10934 7.78985 6.96925 7.78985C6.0587 7.44053 5.49835 6.74189 5.21818 5.83366C5.21818 5.69393 5.21818 5.62406 5.28823 5.48434C5.28823 5.41447 5.35827 5.34461 5.42831 5.34461C5.49836 5.27474 5.5684 5.27474 5.5684 5.20488C5.70848 5.06515 5.70848 4.71583 5.5684 4.43637C5.35827 4.01719 5.0781 3.598 4.72789 3.24868C4.5878 3.10895 4.37767 3.03909 4.16754 3.10896C3.88737 3.24868 3.67724 3.38841 3.46712 3.598C3.32703 3.87746 3.1169 4.22678 3.25699 4.50624C3.39707 4.85556 3.53716 5.20488 3.67724 5.48434C4.02746 6.18298 4.44771 6.81176 4.93801 7.44053C5.84857 8.48849 6.96925 9.11727 8.23002 9.67619C8.37011 9.74605 8.44015 9.74605 8.58024 9.81591C8.51019 9.81591 8.65028 9.81591 8.65028 9.81591C8.79036 9.81591 8.86041 9.74605 9.00049 9.74605C9.35071 9.53646 9.63088 9.257 9.77096 8.83782C9.91105 8.55836 9.841 8.41863 9.70092 8.20904ZM9.21062 5.62406C9.21062 5.5542 9.21062 5.5542 9.21062 5.48434C9.07053 4.78569 8.72032 4.22678 8.01989 3.87746C7.66968 3.73773 7.31947 3.598 6.96925 3.598C6.82917 3.598 6.75912 3.66787 6.75912 3.73773C6.75912 3.87746 6.82917 3.94732 6.89921 3.94732C6.96925 3.94732 7.10934 3.94732 7.17938 4.01719C7.38951 4.01719 7.59964 4.08705 7.80977 4.22678C8.08994 4.36651 8.37011 4.64597 8.58024 4.92542C8.72032 5.20488 8.86041 5.5542 8.86041 5.90352C8.86041 5.97338 8.86041 6.04325 8.86041 6.04325C8.93045 6.18298 9.14058 6.18298 9.21062 6.04325C9.21062 5.97339 9.21062 5.97338 9.21062 5.90352C9.21062 5.76379 9.21062 5.69393 9.21062 5.62406ZM7.17938 4.43637C7.10934 4.43637 6.96925 4.50624 6.96925 4.5761C6.96925 4.64597 7.0393 4.78569 7.10934 4.78569C7.24942 4.78569 7.31947 4.78569 7.38951 4.85556C7.52959 4.92542 7.59964 4.92542 7.66968 4.99529C7.80977 5.06515 7.87981 5.27474 7.94985 5.41447C7.94985 5.48434 7.94985 5.5542 7.94985 5.69393C7.94985 5.76379 8.01989 5.83366 8.08994 5.90352H8.15998C8.23002 5.90352 8.30006 5.83366 8.30006 5.76379C8.37011 5.69393 8.37011 5.62406 8.37011 5.62406C8.30007 4.85556 7.80977 4.50624 7.17938 4.43637ZM10.0511 5.41447C9.70092 3.8076 8.37011 2.75963 6.75912 2.68977H6.61904C6.549 2.68977 6.40891 2.8295 6.47895 2.89936C6.47895 3.03909 6.61904 3.03909 6.75912 3.03909C6.96925 3.03909 7.10934 3.03909 7.31947 3.10896C8.51019 3.31855 9.49079 4.29665 9.70092 5.5542C9.70092 5.76379 9.77096 6.04325 9.77096 6.25284C9.77096 6.39257 9.84101 6.46243 9.98109 6.46243C10.1212 6.46243 10.1912 6.32271 10.1912 6.25284C10.0511 5.97338 10.0511 5.69393 10.0511 5.41447ZM7.17938 4.43637C7.10934 4.43637 6.96925 4.50624 6.96925 4.5761C6.96925 4.64597 7.0393 4.78569 7.10934 4.78569C7.24942 4.78569 7.31947 4.78569 7.38951 4.85556C7.52959 4.92542 7.59964 4.92542 7.66968 4.99529C7.80977 5.06515 7.87981 5.27474 7.94985 5.41447C7.94985 5.48434 7.94985 5.5542 7.94985 5.69393C7.94985 5.76379 8.01989 5.83366 8.08994 5.90352H8.15998C8.23002 5.90352 8.30006 5.83366 8.30006 5.76379C8.37011 5.69393 8.37011 5.62406 8.37011 5.62406C8.30007 4.85556 7.80977 4.50624 7.17938 4.43637ZM8.86041 5.90352C8.86041 5.97338 8.86041 6.04325 8.86041 6.04325C8.93045 6.18298 9.14058 6.18298 9.21062 6.04325C9.21062 5.97339 9.21062 5.97338 9.21062 5.90352C9.21062 5.83366 9.21062 5.76379 9.21062 5.69393C9.21062 5.62406 9.21062 5.62406 9.21062 5.5542C9.07053 4.78569 8.72032 4.22678 8.01989 3.87746C7.66968 3.73773 7.31947 3.598 6.96925 3.598C6.82917 3.598 6.75912 3.66787 6.75912 3.73773C6.75912 3.87746 6.82917 3.94732 6.89921 3.94732C6.96925 3.94732 7.10934 3.94732 7.17938 4.01719C7.38951 4.01719 7.59964 4.08705 7.80977 4.22678C8.08994 4.36651 8.37011 4.64597 8.58024 4.92542C8.79036 5.20488 8.86041 5.5542 8.86041 5.90352ZM9.14058 7.78985C8.93045 7.65013 8.72032 7.5104 8.58024 7.37067C8.37011 7.23094 8.08994 7.23094 7.94985 7.37067C7.73972 7.5104 7.66968 7.85972 7.38951 7.85972C7.24942 7.85972 7.10934 7.78985 6.96925 7.78985C6.0587 7.44053 5.49835 6.74189 5.21818 5.83366C5.21818 5.69393 5.21818 5.62406 5.28823 5.48434C5.28823 5.41447 5.35827 5.34461 5.42831 5.34461C5.49836 5.27474 5.5684 5.27474 5.5684 5.20488C5.70848 5.06515 5.70848 4.71583 5.5684 4.43637C5.35827 4.01719 5.0781 3.598 4.72789 3.24868C4.5878 3.10895 4.37767 3.03909 4.16754 3.10896C3.88737 3.24868 3.67724 3.38841 3.46712 3.598C3.32703 3.87746 3.1169 4.22678 3.25699 4.50624C3.39707 4.85556 3.53716 5.20488 3.67724 5.48434C4.02746 6.18298 4.44771 6.81176 4.93801 7.44053C5.84857 8.48849 6.96925 9.11727 8.23002 9.67619C8.37011 9.74605 8.44015 9.74605 8.58024 9.81591C8.72032 9.81591 8.79036 9.74605 8.93045 9.74605C9.28066 9.53646 9.56083 9.257 9.70092 8.83782C9.841 8.62822 9.77096 8.41863 9.56083 8.2789C9.49079 8.06931 9.35071 7.92958 9.14058 7.78985ZM6.75912 2.68977H6.61904C6.549 2.68977 6.40891 2.8295 6.47895 2.89936C6.47895 3.03909 6.61904 3.03909 6.75912 3.03909C6.96925 3.03909 7.10934 3.03909 7.31947 3.10896C8.51019 3.31855 9.49079 4.29665 9.70092 5.5542C9.70092 5.76379 9.77096 6.04325 9.77096 6.25284C9.77096 6.39257 9.84101 6.46243 9.98109 6.46243C10.1212 6.46243 10.1912 6.32271 10.1912 6.25284C10.1912 5.97338 10.1212 5.69393 10.1212 5.41447C9.70092 3.8076 8.37011 2.75963 6.75912 2.68977ZM13.2031 8.90768C12.8528 10.2351 11.3819 11.6324 10.0511 11.9118C9.00049 12.1214 7.87981 12.2612 6.75912 12.2612C6.40891 12.2612 6.12874 12.2612 5.77853 12.2612L4.30763 13.7982C3.95741 14.2174 3.25699 13.9379 3.25699 13.379V11.9118C1.99622 11.5625 0.595363 10.2351 0.315192 8.90768C-0.105064 7.09121 -0.105064 5.20488 0.315192 3.38841C0.595363 2.06099 2.06626 0.663709 3.39707 0.314389C5.5684 -0.104796 7.80977 -0.104796 9.98109 0.314389C11.3119 0.593845 12.7828 1.99113 13.133 3.31855C13.6233 5.20488 13.6233 7.09121 13.2031 8.90768ZM12.0123 3.66787C11.8022 2.8295 10.6815 1.78154 9.77096 1.57194C7.73972 1.22262 5.70848 1.22262 3.67724 1.57194C2.76669 1.71167 1.646 2.8295 1.43588 3.66787C1.08566 5.34461 1.08566 7.02135 1.43588 8.69809C1.57596 9.11727 1.85613 9.60632 2.27639 10.0255C2.69665 10.4447 3.18694 10.7241 3.6072 10.8639L3.67724 10.9337V13.3091C3.67724 13.4488 3.81733 13.4488 3.88737 13.379L5.0781 12.1913C5.0781 12.1913 5.98865 11.2831 6.19878 11.0735H6.26883C7.45955 11.0735 8.58024 11.0036 9.77096 10.794C10.6815 10.5844 11.8022 9.53646 12.0123 8.69809C12.3625 7.02135 12.3625 5.34461 12.0123 3.66787ZM7.17938 4.43637C7.10934 4.43637 6.96925 4.50624 6.96925 4.5761C6.96925 4.64597 7.0393 4.78569 7.10934 4.78569C7.24942 4.78569 7.31947 4.78569 7.38951 4.85556C7.52959 4.92542 7.59964 4.92542 7.66968 4.99529C7.80977 5.06515 7.87981 5.27474 7.94985 5.41447C7.94985 5.48434 7.94985 5.5542 7.94985 5.69393C7.94985 5.76379 8.01989 5.83366 8.08994 5.90352H8.15998C8.23002 5.90352 8.30006 5.83366 8.30006 5.76379C8.37011 5.69393 8.37011 5.62406 8.37011 5.62406C8.30007 4.85556 7.80977 4.50624 7.17938 4.43637ZM8.86041 5.90352C8.86041 5.97338 8.86041 6.04325 8.86041 6.04325C8.93045 6.18298 9.14058 6.18298 9.21062 6.04325C9.21062 5.97339 9.21062 5.97338 9.21062 5.90352C9.21062 5.83366 9.21062 5.76379 9.21062 5.69393C9.21062 5.62406 9.21062 5.62406 9.21062 5.5542C9.07053 4.78569 8.72032 4.22678 8.01989 3.87746C7.66968 3.73773 7.31947 3.598 6.96925 3.598C6.82917 3.598 6.75912 3.66787 6.75912 3.73773C6.75912 3.87746 6.82917 3.94732 6.89921 3.94732C6.96925 3.94732 7.10934 3.94732 7.17938 4.01719C7.38951 4.01719 7.59964 4.08705 7.80977 4.22678C8.08994 4.36651 8.37011 4.64597 8.58024 4.92542C8.79036 5.20488 8.86041 5.5542 8.86041 5.90352ZM9.14058 7.78985C8.93045 7.65013 8.72032 7.5104 8.58024 7.37067C8.37011 7.23094 8.08994 7.23094 7.94985 7.37067C7.73972 7.5104 7.66968 7.85972 7.38951 7.85972C7.24942 7.85972 7.10934 7.78985 6.96925 7.78985C6.0587 7.44053 5.49835 6.74189 5.21818 5.83366C5.21818 5.69393 5.21818 5.62406 5.28823 5.48434C5.28823 5.41447 5.35827 5.34461 5.42831 5.34461C5.49836 5.27474 5.5684 5.27474 5.5684 5.20488C5.70848 5.06515 5.70848 4.71583 5.5684 4.43637C5.35827 4.01719 5.0781 3.598 4.72789 3.24868C4.5878 3.10895 4.37767 3.03909 4.16754 3.10896C3.88737 3.24868 3.67724 3.38841 3.46712 3.598C3.32703 3.87746 3.1169 4.22678 3.25699 4.50624C3.39707 4.85556 3.53716 5.20488 3.67724 5.48434C4.02746 6.18298 4.44771 6.81176 4.93801 7.44053C5.84857 8.48849 6.96925 9.11727 8.23002 9.67619C8.37011 9.74605 8.44015 9.74605 8.58024 9.81591C8.72032 9.81591 8.79036 9.74605 8.93045 9.74605C9.28066 9.53646 9.56083 9.257 9.70092 8.83782C9.841 8.62822 9.77096 8.41863 9.56083 8.2789C9.49079 8.06931 9.35071 7.92958 9.14058 7.78985ZM6.75912 2.68977H6.61904C6.549 2.68977 6.40891 2.8295 6.47895 2.89936C6.47895 3.03909 6.61904 3.03909 6.75912 3.03909C6.96925 3.03909 7.10934 3.03909 7.31947 3.10896C8.51019 3.31855 9.49079 4.29665 9.70092 5.5542C9.70092 5.76379 9.77096 6.04325 9.77096 6.25284C9.77096 6.39257 9.84101 6.46243 9.98109 6.46243C10.1212 6.46243 10.1912 6.32271 10.1912 6.25284C10.1912 5.97338 10.1212 5.69393 10.1212 5.41447C9.70092 3.8076 8.37011 2.75963 6.75912 2.68977ZM13.2031 8.90768C12.8528 10.2351 11.3819 11.6324 10.0511 11.9118C9.00049 12.1214 7.87981 12.2612 6.75912 12.2612C6.40891 12.2612 6.12874 12.2612 5.77853 12.2612L4.30763 13.7982C3.95741 14.2174 3.25699 13.9379 3.25699 13.379V11.9118C1.99622 11.5625 0.595363 10.2351 0.315192 8.90768C-0.105064 7.09121 -0.105064 5.20488 0.315192 3.38841C0.595363 2.06099 2.06626 0.663709 3.39707 0.314389C5.5684 -0.104796 7.80977 -0.104796 9.98109 0.314389C11.3119 0.593845 12.7828 1.99113 13.133 3.31855C13.6233 5.20488 13.6233 7.09121 13.2031 8.90768ZM12.0123 3.66787C11.8022 2.8295 10.6815 1.78154 9.77096 1.57194C7.73972 1.22262 5.70848 1.22262 3.67724 1.57194C2.76669 1.71167 1.646 2.8295 1.43588 3.66787C1.08566 5.34461 1.08566 7.02135 1.43588 8.69809C1.57596 9.11727 1.85613 9.60632 2.27639 10.0255C2.69665 10.4447 3.18694 10.7241 3.6072 10.8639L3.67724 10.9337V13.3091C3.67724 13.4488 3.81733 13.4488 3.88737 13.379L5.0781 12.1913C5.0781 12.1913 5.98865 11.2831 6.19878 11.0735H6.26883C7.45955 11.0735 8.58024 11.0036 9.77096 10.794C10.6815 10.5844 11.8022 9.53646 12.0123 8.69809C12.3625 7.02135 12.3625 5.34461 12.0123 3.66787ZM7.17938 4.43637C7.10934 4.43637 6.96925 4.50624 6.96925 4.5761C6.96925 4.64597 7.0393 4.78569 7.10934 4.78569C7.24942 4.78569 7.31947 4.78569 7.38951 4.85556C7.52959 4.92542 7.59964 4.92542 7.66968 4.99529C7.80977 5.06515 7.87981 5.27474 7.94985 5.41447C7.94985 5.48434 7.94985 5.5542 7.94985 5.69393C7.94985 5.76379 8.01989 5.83366 8.08994 5.90352H8.15998C8.23002 5.90352 8.30006 5.83366 8.30006 5.76379C8.37011 5.69393 8.37011 5.62406 8.37011 5.62406C8.30007 4.85556 7.80977 4.50624 7.17938 4.43637ZM8.86041 5.90352C8.86041 5.97338 8.86041 6.04325 8.86041 6.04325C8.93045 6.18298 9.14058 6.18298 9.21062 6.04325C9.21062 5.97339 9.21062 5.97338 9.21062 5.90352C9.21062 5.83366 9.21062 5.76379 9.21062 5.69393C9.21062 5.62406 9.21062 5.62406 9.21062 5.5542C9.07053 4.78569 8.72032 4.22678 8.01989 3.87746C7.66968 3.73773 7.31947 3.598 6.96925 3.598C6.82917 3.598 6.75912 3.66787 6.75912 3.73773C6.75912 3.87746 6.82917 3.94732 6.89921 3.94732C6.96925 3.94732 7.10934 3.94732 7.17938 4.01719C7.38951 4.01719 7.59964 4.08705 7.80977 4.22678C8.08994 4.36651 8.37011 4.64597 8.58024 4.92542C8.79036 5.20488 8.86041 5.5542 8.86041 5.90352ZM9.14058 7.78985C8.93045 7.65013 8.72032 7.5104 8.58024 7.37067C8.37011 7.23094 8.08994 7.23094 7.94985 7.37067C7.73972 7.5104 7.66968 7.85972 7.38951 7.85972C7.24942 7.85972 7.10934 7.78985 6.96925 7.78985C6.0587 7.44053 5.49835 6.74189 5.21818 5.83366C5.21818 5.69393 5.21818 5.62406 5.28823 5.48434C5.28823 5.41447 5.35827 5.34461 5.42831 5.34461C5.49836 5.27474 5.5684 5.27474 5.5684 5.20488C5.70848 5.06515 5.70848 4.71583 5.5684 4.43637C5.35827 4.01719 5.0781 3.598 4.72789 3.24868C4.5878 3.10895 4.37767 3.03909 4.16754 3.10896C3.88737 3.24868 3.67724 3.38841 3.46712 3.598C3.32703 3.87746 3.1169 4.22678 3.25699 4.50624C3.39707 4.85556 3.53716 5.20488 3.67724 5.48434C4.02746 6.18298 4.44771 6.81176 4.93801 7.44053C5.84857 8.48849 6.96925 9.11727 8.23002 9.67619C8.37011 9.74605 8.44015 9.74605 8.58024 9.81591C8.72032 9.81591 8.79036 9.74605 8.93045 9.74605C9.28066 9.53646 9.56083 9.257 9.70092 8.83782C9.841 8.62822 9.77096 8.41863 9.56083 8.2789C9.49079 8.06931 9.35071 7.92958 9.14058 7.78985ZM10.0511 5.41447C9.70092 3.8076 8.37011 2.75963 6.75912 2.68977H6.61904C6.549 2.68977 6.40891 2.8295 6.47895 2.89936C6.47895 3.03909 6.61904 3.03909 6.75912 3.03909C6.96925 3.03909 7.10934 3.03909 7.31947 3.10896C8.51019 3.31855 9.49079 4.29665 9.70092 5.5542C9.70092 5.76379 9.77096 6.04325 9.77096 6.25284C9.77096 6.39257 9.84101 6.46243 9.98109 6.46243C10.1212 6.46243 10.1912 6.32271 10.1912 6.25284C10.0511 5.97338 10.0511 5.69393 10.0511 5.41447ZM9.70092 8.20904C9.49079 8.06931 9.35071 7.92958 9.14058 7.78985C8.93045 7.65013 8.72032 7.5104 8.58024 7.37067C8.37011 7.23094 8.08994 7.23094 7.94985 7.37067C7.73972 7.5104 7.66968 7.85972 7.38951 7.85972C7.24942 7.85972 7.10934 7.78985 6.96925 7.78985C6.0587 7.44053 5.49835 6.74189 5.21818 5.83366C5.21818 5.69393 5.21818 5.62406 5.28823 5.48434C5.28823 5.41447 5.35827 5.34461 5.42831 5.34461C5.49836 5.27474 5.5684 5.27474 5.5684 5.20488C5.70848 5.06515 5.70848 4.71583 5.5684 4.43637C5.35827 4.01719 5.0781 3.598 4.72789 3.24868C4.5878 3.10895 4.37767 3.03909 4.16754 3.10896C3.88737 3.24868 3.67724 3.38841 3.46712 3.598C3.32703 3.87746 3.1169 4.22678 3.25699 4.50624C3.39707 4.85556 3.53716 5.20488 3.67724 5.48434C4.02746 6.18298 4.44771 6.81176 4.93801 7.44053C5.84857 8.48849 6.96925 9.11727 8.23002 9.67619C8.37011 9.74605 8.44015 9.74605 8.58024 9.81591C8.51019 9.81591 8.65028 9.81591 8.65028 9.81591C8.79036 9.81591 8.86041 9.74605 9.00049 9.74605C9.35071 9.53646 9.63088 9.257 9.77096 8.83782C9.91105 8.55836 9.841 8.41863 9.70092 8.20904ZM9.21062 5.62406C9.21062 5.5542 9.21062 5.5542 9.21062 5.48434C9.07053 4.78569 8.72032 4.22678 8.01989 3.87746C7.66968 3.73773 7.31947 3.598 6.96925 3.598C6.82917 3.598 6.75912 3.66787 6.75912 3.73773C6.75912 3.87746 6.82917 3.94732 6.89921 3.94732C6.96925 3.94732 7.10934 3.94732 7.17938 4.01719C7.38951 4.01719 7.59964 4.08705 7.80977 4.22678C8.08994 4.36651 8.37011 4.64597 8.58024 4.92542C8.72032 5.20488 8.86041 5.5542 8.86041 5.90352C8.86041 5.97338 8.86041 6.04325 8.86041 6.04325C8.93045 6.18298 9.14058 6.18298 9.21062 6.04325C9.21062 5.97339 9.21062 5.97338 9.21062 5.90352C9.21062 5.76379 9.21062 5.69393 9.21062 5.62406ZM7.17938 4.43637C7.10934 4.43637 6.96925 4.50624 6.96925 4.5761C6.96925 4.64597 7.0393 4.78569 7.10934 4.78569C7.24942 4.78569 7.31947 4.78569 7.38951 4.85556C7.52959 4.92542 7.59964 4.92542 7.66968 4.99529C7.80977 5.06515 7.87981 5.27474 7.94985 5.41447C7.94985 5.48434 7.94985 5.5542 7.94985 5.69393C7.94985 5.76379 8.01989 5.83366 8.08994 5.90352H8.15998C8.23002 5.90352 8.30006 5.83366 8.30006 5.76379C8.37011 5.69393 8.37011 5.62406 8.37011 5.62406C8.30007 4.85556 7.80977 4.50624 7.17938 4.43637ZM10.0511 5.41447C9.70092 3.8076 8.37011 2.75963 6.75912 2.68977H6.61904C6.549 2.68977 6.40891 2.8295 6.47895 2.89936C6.47895 3.03909 6.61904 3.03909 6.75912 3.03909C6.96925 3.03909 7.10934 3.03909 7.31947 3.10896C8.51019 3.31855 9.49079 4.29665 9.70092 5.5542C9.70092 5.76379 9.77096 6.04325 9.77096 6.25284C9.77096 6.39257 9.84101 6.46243 9.98109 6.46243C10.1212 6.46243 10.1912 6.32271 10.1912 6.25284C10.0511 5.97338 10.0511 5.69393 10.0511 5.41447ZM7.17938 4.43637C7.10934 4.43637 6.96925 4.50624 6.96925 4.5761C6.96925 4.64597 7.0393 4.78569 7.10934 4.78569C7.24942 4.78569 7.31947 4.78569 7.38951 4.85556C7.52959 4.92542 7.59964 4.92542 7.66968 4.99529C7.80977 5.06515 7.87981 5.27474 7.94985 5.41447C7.94985 5.48434 7.94985 5.5542 7.94985 5.69393C7.94985 5.76379 8.01989 5.83366 8.08994 5.90352H8.15998C8.23002 5.90352 8.30006 5.83366 8.30006 5.76379C8.37011 5.69393 8.37011 5.62406 8.37011 5.62406C8.30007 4.85556 7.80977 4.50624 7.17938 4.43637ZM8.86041 5.90352C8.86041 5.97338 8.86041 6.04325 8.86041 6.04325C8.93045 6.18298 9.14058 6.18298 9.21062 6.04325C9.21062 5.97339 9.21062 5.97338 9.21062 5.90352C9.21062 5.83366 9.21062 5.76379 9.21062 5.69393C9.21062 5.62406 9.21062 5.62406 9.21062 5.5542C9.07053 4.78569 8.72032 4.22678 8.01989 3.87746C7.66968 3.73773 7.31947 3.598 6.96925 3.598C6.82917 3.598 6.75912 3.66787 6.75912 3.73773C6.75912 3.87746 6.82917 3.94732 6.89921 3.94732C6.96925 3.94732 7.10934 3.94732 7.17938 4.01719C7.38951 4.01719 7.59964 4.08705 7.80977 4.22678C8.08994 4.36651 8.37011 4.64597 8.58024 4.92542C8.79036 5.20488 8.86041 5.5542 8.86041 5.90352ZM9.14058 7.78985C8.93045 7.65013 8.72032 7.5104 8.58024 7.37067C8.37011 7.23094 8.08994 7.23094 7.94985 7.37067C7.73972 7.5104 7.66968 7.85972 7.38951 7.85972C7.24942 7.85972 7.10934 7.78985 6.96925 7.78985C6.0587 7.44053 5.49835 6.74189 5.21818 5.83366C5.21818 5.69393 5.21818 5.62406 5.28823 5.48434C5.28823 5.41447 5.35827 5.34461 5.42831 5.34461C5.49836 5.27474 5.5684 5.27474 5.5684 5.20488C5.70848 5.06515 5.70848 4.71583 5.5684 4.43637C5.35827 4.01719 5.0781 3.598 4.72789 3.24868C4.5878 3.10895 4.37767 3.03909 4.16754 3.10896C3.88737 3.24868 3.67724 3.38841 3.46712 3.598C3.32703 3.87746 3.1169 4.22678 3.25699 4.50624C3.39707 4.85556 3.53716 5.20488 3.67724 5.48434C4.02746 6.18298 4.44771 6.81176 4.93801 7.44053C5.84857 8.48849 6.96925 9.11727 8.23002 9.67619C8.37011 9.74605 8.44015 9.74605 8.58024 9.81591C8.72032 9.81591 8.79036 9.74605 8.93045 9.74605C9.28066 9.53646 9.56083 9.257 9.70092 8.83782C9.841 8.62822 9.77096 8.41863 9.56083 8.2789C9.49079 8.06931 9.35071 7.92958 9.14058 7.78985ZM10.0511 5.41447C9.70092 3.8076 8.37011 2.75963 6.75912 2.68977H6.61904C6.549 2.68977 6.40891 2.8295 6.47895 2.89936C6.47895 3.03909 6.61904 3.03909 6.75912 3.03909C6.96925 3.03909 7.10934 3.03909 7.31947 3.10896C8.51019 3.31855 9.49079 4.29665 9.70092 5.5542C9.70092 5.76379 9.77096 6.04325 9.77096 6.25284C9.77096 6.39257 9.84101 6.46243 9.98109 6.46243C10.1212 6.46243 10.1912 6.32271 10.1912 6.25284C10.0511 5.97338 10.0511 5.69393 10.0511 5.41447ZM9.70092 8.20904C9.49079 8.06931 9.35071 7.92958 9.14058 7.78985C8.93045 7.65013 8.72032 7.5104 8.58024 7.37067C8.37011 7.23094 8.08994 7.23094 7.94985 7.37067C7.73972 7.5104 7.66968 7.85972 7.38951 7.85972C7.24942 7.85972 7.10934 7.78985 6.96925 7.78985C6.0587 7.44053 5.49835 6.74189 5.21818 5.83366C5.21818 5.69393 5.21818 5.62406 5.28823 5.48434C5.28823 5.41447 5.35827 5.34461 5.42831 5.34461C5.49836 5.27474 5.5684 5.27474 5.5684 5.20488C5.70848 5.06515 5.70848 4.71583 5.5684 4.43637C5.35827 4.01719 5.0781 3.598 4.72789 3.24868C4.5878 3.10895 4.37767 3.03909 4.16754 3.10896C3.88737 3.24868 3.67724 3.38841 3.46712 3.598C3.32703 3.87746 3.1169 4.22678 3.25699 4.50624C3.39707 4.85556 3.53716 5.20488 3.67724 5.48434C4.02746 6.18298 4.44771 6.81176 4.93801 7.44053C5.84857 8.48849 6.96925 9.11727 8.23002 9.67619C8.37011 9.74605 8.44015 9.74605 8.58024 9.81591C8.51019 9.81591 8.65028 9.81591 8.65028 9.81591C8.79036 9.81591 8.86041 9.74605 9.00049 9.74605C9.35071 9.53646 9.63088 9.257 9.77096 8.83782C9.91105 8.55836 9.841 8.41863 9.70092 8.20904ZM9.21062 5.62406C9.21062 5.5542 9.21062 5.5542 9.21062 5.48434C9.07053 4.78569 8.72032 4.22678 8.01989 3.87746C7.66968 3.73773 7.31947 3.598 6.96925 3.598C6.82917 3.598 6.75912 3.66787 6.75912 3.73773C6.75912 3.87746 6.82917 3.94732 6.89921 3.94732C6.96925 3.94732 7.10934 3.94732 7.17938 4.01719C7.38951 4.01719 7.59964 4.08705 7.80977 4.22678C8.08994 4.36651 8.37011 4.64597 8.58024 4.92542C8.72032 5.20488 8.86041 5.5542 8.86041 5.90352C8.86041 5.97338 8.86041 6.04325 8.86041 6.04325C8.93045 6.18298 9.14058 6.18298 9.21062 6.04325C9.21062 5.97339 9.21062 5.97338 9.21062 5.90352C9.21062 5.76379 9.21062 5.69393 9.21062 5.62406ZM7.17938 4.43637C7.10934 4.43637 6.96925 4.50624 6.96925 4.5761C6.96925 4.64597 7.0393 4.78569 7.10934 4.78569C7.24942 4.78569 7.31947 4.78569 7.38951 4.85556C7.52959 4.92542 7.59964 4.92542 7.66968 4.99529C7.80977 5.06515 7.87981 5.27474 7.94985 5.41447C7.94985 5.48434 7.94985 5.5542 7.94985 5.69393C7.94985 5.76379 8.01989 5.83366 8.08994 5.90352H8.15998C8.23002 5.90352 8.30006 5.83366 8.30006 5.76379C8.37011 5.69393 8.37011 5.62406 8.37011 5.62406C8.30007 4.85556 7.80977 4.50624 7.17938 4.43637ZM10.0511 5.41447C9.70092 3.8076 8.37011 2.75963 6.75912 2.68977H6.61904C6.549 2.68977 6.40891 2.8295 6.47895 2.89936C6.47895 3.03909 6.61904 3.03909 6.75912 3.03909C6.96925 3.03909 7.10934 3.03909 7.31947 3.10896C8.51019 3.31855 9.49079 4.29665 9.70092 5.5542C9.70092 5.76379 9.77096 6.04325 9.77096 6.25284C9.77096 6.39257 9.84101 6.46243 9.98109 6.46243C10.1212 6.46243 10.1912 6.32271 10.1912 6.25284C10.0511 5.97338 10.0511 5.69393 10.0511 5.41447ZM7.17938 4.43637C7.10934 4.43637 6.96925 4.50624 6.96925 4.5761C6.96925 4.64597 7.0393 4.78569 7.10934 4.78569C7.24942 4.78569 7.31947 4.78569 7.38951 4.85556C7.52959 4.92542 7.59964 4.92542 7.66968 4.99529C7.80977 5.06515 7.87981 5.27474 7.94985 5.41447C7.94985 5.48434 7.94985 5.5542 7.94985 5.69393C7.94985 5.76379 8.01989 5.83366 8.08994 5.90352H8.15998C8.23002 5.90352 8.30006 5.83366 8.30006 5.76379C8.37011 5.69393 8.37011 5.62406 8.37011 5.62406C8.30007 4.85556 7.80977 4.50624 7.17938 4.43637ZM8.86041 5.90352C8.86041 5.97338 8.86041 6.04325 8.86041 6.04325C8.93045 6.18298 9.14058 6.18298 9.21062 6.04325C9.21062 5.97339 9.21062 5.97338 9.21062 5.90352C9.21062 5.83366 9.21062 5.76379 9.21062 5.69393C9.21062 5.62406 9.21062 5.62406 9.21062 5.5542C9.07053 4.78569 8.72032 4.22678 8.01989 3.87746C7.66968 3.73773 7.31947 3.598 6.96925 3.598C6.82917 3.598 6.75912 3.66787 6.75912 3.73773C6.75912 3.87746 6.82917 3.94732 6.89921 3.94732C6.96925 3.94732 7.10934 3.94732 7.17938 4.01719C7.38951 4.01719 7.59964 4.08705 7.80977 4.22678C8.08994 4.36651 8.37011 4.64597 8.58024 4.92542C8.79036 5.20488 8.86041 5.5542 8.86041 5.90352ZM9.14058 7.78985C8.93045 7.65013 8.72032 7.5104 8.58024 7.37067C8.37011 7.23094 8.08994 7.23094 7.94985 7.37067C7.73972 7.5104 7.66968 7.85972 7.38951 7.85972C7.24942 7.85972 7.10934 7.78985 6.96925 7.78985C6.0587 7.44053 5.49835 6.74189 5.21818 5.83366C5.21818 5.69393 5.21818 5.62406 5.28823 5.48434C5.28823 5.41447 5.35827 5.34461 5.42831 5.34461C5.49836 5.27474 5.5684 5.27474 5.5684 5.20488C5.70848 5.06515 5.70848 4.71583 5.5684 4.43637C5.35827 4.01719 5.0781 3.598 4.72789 3.24868C4.5878 3.10895 4.37767 3.03909 4.16754 3.10896C3.88737 3.24868 3.67724 3.38841 3.46712 3.598C3.32703 3.87746 3.1169 4.22678 3.25699 4.50624C3.39707 4.85556 3.53716 5.20488 3.67724 5.48434C4.02746 6.18298 4.44771 6.81176 4.93801 7.44053C5.84857 8.48849 6.96925 9.11727 8.23002 9.67619C8.37011 9.74605 8.44015 9.74605 8.58024 9.81591C8.72032 9.81591 8.79036 9.74605 8.93045 9.74605C9.28066 9.53646 9.56083 9.257 9.70092 8.83782C9.841 8.62822 9.77096 8.41863 9.56083 8.2789C9.49079 8.06931 9.35071 7.92958 9.14058 7.78985ZM10.0511 5.41447C9.70092 3.8076 8.37011 2.75963 6.75912 2.68977H6.61904C6.549 2.68977 6.40891 2.8295 6.47895 2.89936C6.47895 3.03909 6.61904 3.03909 6.75912 3.03909C6.96925 3.03909 7.10934 3.03909 7.31947 3.10896C8.51019 3.31855 9.49079 4.29665 9.70092 5.5542C9.70092 5.76379 9.77096 6.04325 9.77096 6.25284C9.77096 6.39257 9.84101 6.46243 9.98109 6.46243C10.1212 6.46243 10.1912 6.32271 10.1912 6.25284C10.0511 5.97338 10.0511 5.69393 10.0511 5.41447ZM9.70092 8.20904C9.49079 8.06931 9.35071 7.92958 9.14058 7.78985C8.93045 7.65013 8.72032 7.5104 8.58024 7.37067C8.37011 7.23094 8.08994 7.23094 7.94985 7.37067C7.73972 7.5104 7.66968 7.85972 7.38951 7.85972C7.24942 7.85972 7.10934 7.78985 6.96925 7.78985C6.0587 7.44053 5.49835 6.74189 5.21818 5.83366C5.21818 5.69393 5.21818 5.62406 5.28823 5.48434C5.28823 5.41447 5.35827 5.34461 5.42831 5.34461C5.49836 5.27474 5.5684 5.27474 5.5684 5.20488C5.70848 5.06515 5.70848 4.71583 5.5684 4.43637C5.35827 4.01719 5.0781 3.598 4.72789 3.24868C4.5878 3.10895 4.37767 3.03909 4.16754 3.10896C3.88737 3.24868 3.67724 3.38841 3.46712 3.598C3.32703 3.87746 3.1169 4.22678 3.25699 4.50624C3.39707 4.85556 3.53716 5.20488 3.67724 5.48434C4.02746 6.18298 4.44771 6.81176 4.93801 7.44053C5.84857 8.48849 6.96925 9.11727 8.23002 9.67619C8.37011 9.74605 8.44015 9.74605 8.58024 9.81591C8.51019 9.81591 8.65028 9.81591 8.65028 9.81591C8.79036 9.81591 8.86041 9.74605 9.00049 9.74605C9.35071 9.53646 9.63088 9.257 9.77096 8.83782C9.91105 8.55836 9.841 8.41863 9.70092 8.20904ZM9.21062 5.62406C9.21062 5.5542 9.21062 5.5542 9.21062 5.48434C9.07053 4.78569 8.72032 4.22678 8.01989 3.87746C7.66968 3.73773 7.31947 3.598 6.96925 3.598C6.82917 3.598 6.75912 3.66787 6.75912 3.73773C6.75912 3.87746 6.82917 3.94732 6.89921 3.94732C6.96925 3.94732 7.10934 3.94732 7.17938 4.01719C7.38951 4.01719 7.59964 4.08705 7.80977 4.22678C8.08994 4.36651 8.37011 4.64597 8.58024 4.92542C8.72032 5.20488 8.86041 5.5542 8.86041 5.90352C8.86041 5.97338 8.86041 6.04325 8.86041 6.04325C8.93045 6.18298 9.14058 6.18298 9.21062 6.04325C9.21062 5.97339 9.21062 5.97338 9.21062 5.90352C9.21062 5.76379 9.21062 5.69393 9.21062 5.62406ZM7.17938 4.43637C7.10934 4.43637 6.96925 4.50624 6.96925 4.5761C6.96925 4.64597 7.0393 4.78569 7.10934 4.78569C7.24942 4.78569 7.31947 4.78569 7.38951 4.85556C7.52959 4.92542 7.59964 4.92542 7.66968 4.99529C7.80977 5.06515 7.87981 5.27474 7.94985 5.41447C7.94985 5.48434 7.94985 5.5542 7.94985 5.69393C7.94985 5.76379 8.01989 5.83366 8.08994 5.90352H8.15998C8.23002 5.90352 8.30006 5.83366 8.30006 5.76379C8.37011 5.69393 8.37011 5.62406 8.37011 5.62406C8.30007 4.85556 7.80977 4.50624 7.17938 4.43637ZM10.0511 5.41447C9.70092 3.8076 8.37011 2.75963 6.75912 2.68977H6.61904C6.549 2.68977 6.40891 2.8295 6.47895 2.89936C6.47895 3.03909 6.61904 3.03909 6.75912 3.03909C6.96925 3.03909 7.10934 3.03909 7.31947 3.10896C8.51019 3.31855 9.49079 4.29665 9.70092 5.5542C9.70092 5.76379 9.77096 6.04325 9.77096 6.25284C9.77096 6.39257 9.84101 6.46243 9.98109 6.46243C10.1212 6.46243 10.1912 6.32271 10.1912 6.25284C10.0511 5.97338 10.0511 5.69393 10.0511 5.41447ZM8.65028 9.81591C8.65028 9.81591 8.72032 9.81591 8.65028 9.81591C8.58024 9.74605 8.72032 9.74605 8.65028 9.81591Z" fill="white"/>
</g>
<defs>
<clipPath id="clip0_2329_20068">
<rect width="14" height="14" fill="white"/>
</clipPath>
</defs>
</svg>
