<svg width="14" height="14" viewBox="0 0 14 14" fill="none" xmlns="http://www.w3.org/2000/svg">
<g clip-path="url(#clip0_2329_20064)">
<path d="M10.57 8.75L10.5 9.1C10.43 9.52 10.22 9.8 9.87 10.01C9.45 10.29 8.89 10.36 8.26 10.22C6.16 9.59 4.9 8.19 4.27 7.35C3.64 6.44 3.36 5.6 3.5 4.9C3.64 4.41 3.99 4.06 4.2 3.85C4.34 3.78 4.48 3.71 4.62 3.71L5.11 3.78C5.18 3.78 5.25 3.85 5.32 3.92L5.95 5.46C6.02 5.53 5.95 5.6 5.88 5.67L5.32 6.3C5.25 6.37 5.25 6.44 5.32 6.51C6.09 7.98 7.49 8.54 7.84 8.68C7.91 8.68 7.98 8.68 8.05 8.61L8.68 7.84C8.75 7.77 8.89 7.77 8.96 7.77L10.5 8.47C10.57 8.54 10.57 8.68 10.57 8.75ZM10.43 8.47L8.89 7.77C8.75 7.77 8.68 7.77 8.61 7.84L7.98 8.61C7.91 8.68 7.84 8.68 7.77 8.68C7.35 8.54 5.95 7.98 5.25 6.51C5.25 6.44 5.25 6.37 5.25 6.3L5.81 5.67C5.95 5.6 5.95 5.53 5.88 5.46L5.25 3.85C5.18 3.78 5.11 3.78 5.04 3.71H4.62C4.48 3.71 4.34 3.78 4.2 3.85C3.99 4.06 3.64 4.41 3.5 4.9C3.36 5.6 3.57 6.51 4.27 7.35C4.9 8.19 6.09 9.66 8.26 10.22C8.96 10.43 9.52 10.29 9.87 10.01C10.22 9.8 10.43 9.45 10.5 9.1L10.57 8.75C10.57 8.68 10.57 8.54 10.43 8.47ZM10.43 8.47L8.89 7.77C8.75 7.77 8.68 7.77 8.61 7.84L7.98 8.61C7.91 8.68 7.84 8.68 7.77 8.68C7.35 8.54 5.95 7.98 5.25 6.51C5.25 6.44 5.25 6.37 5.25 6.3L5.81 5.67C5.95 5.6 5.95 5.53 5.88 5.46L5.25 3.85C5.18 3.78 5.11 3.78 5.04 3.71H4.62C4.48 3.71 4.34 3.78 4.2 3.85C3.99 4.06 3.64 4.41 3.5 4.9C3.36 5.6 3.57 6.51 4.27 7.35C4.9 8.19 6.09 9.66 8.26 10.22C8.96 10.43 9.52 10.29 9.87 10.01C10.22 9.8 10.43 9.45 10.5 9.1L10.57 8.75C10.57 8.68 10.57 8.54 10.43 8.47ZM14 7C14 10.85 10.85 14 7 14C5.81 14 4.62 13.72 3.57 13.09L0 14L0.98 10.5C0.35 9.45 0 8.19 0 7C0 3.15 3.15 0 7 0C10.85 0 14 3.15 14 7ZM12.81 7C12.81 3.85 10.22 1.19 7 1.19C3.78 1.19 1.19 3.78 1.19 7C1.19 8.12 1.54 9.24 2.1 10.15L2.24 10.36L1.68 12.39L3.78 11.83L3.99 11.9C4.9 12.46 5.95 12.74 7 12.74C10.22 12.81 12.81 10.15 12.81 7ZM10.43 8.47L8.89 7.77C8.75 7.77 8.68 7.77 8.61 7.84L7.98 8.61C7.91 8.68 7.84 8.68 7.77 8.68C7.35 8.54 5.95 7.98 5.25 6.51C5.25 6.44 5.25 6.37 5.25 6.3L5.81 5.67C5.95 5.6 5.95 5.53 5.88 5.46L5.25 3.85C5.18 3.78 5.11 3.78 5.04 3.71H4.62C4.48 3.71 4.34 3.78 4.2 3.85C3.99 4.06 3.64 4.41 3.5 4.9C3.36 5.6 3.57 6.51 4.27 7.35C4.9 8.19 6.09 9.66 8.26 10.22C8.96 10.43 9.52 10.29 9.87 10.01C10.22 9.8 10.43 9.45 10.5 9.1L10.57 8.75C10.57 8.68 10.57 8.54 10.43 8.47ZM14 7C14 10.85 10.85 14 7 14C5.81 14 4.62 13.72 3.57 13.09L0 14L0.98 10.5C0.35 9.45 0 8.19 0 7C0 3.15 3.15 0 7 0C10.85 0 14 3.15 14 7ZM12.81 7C12.81 3.85 10.22 1.19 7 1.19C3.78 1.19 1.19 3.78 1.19 7C1.19 8.12 1.54 9.24 2.1 10.15L2.24 10.36L1.68 12.39L3.78 11.83L3.99 11.9C4.9 12.46 5.95 12.74 7 12.74C10.22 12.81 12.81 10.15 12.81 7Z" fill="white"/>
</g>
<defs>
<clipPath id="clip0_2329_20064">
<rect width="14" height="14" fill="white"/>
</clipPath>
</defs>
</svg>
