<svg width="18" height="18" viewBox="0 0 18 18" fill="none" xmlns="http://www.w3.org/2000/svg">
<path d="M16.0324 3.59961H2.04049C0.947368 3.59961 0 4.4741 0 5.56722V10.8871H18V5.56722C18 4.4741 17.1255 3.59961 16.0324 3.59961ZM4.88259 9.0652C4.51822 9.0652 4.15385 8.91945 3.86235 8.62795C3.57085 8.84657 3.27935 9.0652 2.8421 9.0652C2.04048 9.0652 1.38461 8.40933 1.38461 7.60771C1.38461 6.80609 2.04048 6.15022 2.8421 6.15022C3.20648 6.15022 3.57085 6.29597 3.86235 6.58746C4.15385 6.36884 4.44534 6.15022 4.88259 6.15022C5.68421 6.15022 6.34008 6.80609 6.34008 7.60771C6.34008 8.40933 5.68421 9.0652 4.88259 9.0652ZM0 13.1462H18V13.2919C18 14.385 17.1255 15.2595 16.0324 15.2595H2.04049C0.947368 15.2595 0 14.385 0 13.2919V13.1462Z" fill="#4A80C6"/>
</svg>
