<svg width="18" height="18" viewBox="0 0 18 18" fill="none" xmlns="http://www.w3.org/2000/svg">
<path d="M13.5366 11.0488C16.6098 10.9024 18 9.51219 18 7.7561C18 6.21951 16.9756 4.97561 14.6341 4.60976C14.6341 4.02439 14.6341 3.51219 14.6341 3H0C0 6.29268 0 11.0488 2.92683 13.3171C1.09756 13.4634 0 13.6829 0 13.9024C0 14.3415 3.29268 14.6341 7.39024 14.6341C11.4878 14.6341 14.7073 14.3415 14.7073 13.9756C14.7073 13.7561 13.5366 13.5366 11.7805 13.3902C12.5854 12.7317 13.1707 11.9268 13.5366 11.0488ZM14.6341 6C15.9512 6.36585 16.1707 6.95122 16.1707 7.7561C16.1707 8.70731 15.878 9.29268 14.122 9.51219C14.4146 8.41463 14.561 7.2439 14.6341 6ZM1.7561 4.17073H4.02439C3 7.2439 4.7561 12 4.7561 12C1.02439 9.14634 1.7561 4.17073 1.7561 4.17073Z" fill="#6081D2"/>
</svg>
