<svg width="18" height="18" viewBox="0 0 18 18" fill="none" xmlns="http://www.w3.org/2000/svg">
<g clip-path="url(#clip0_2014_176)">
<path d="M15.707 0H2.17835C1.03185 0 0 0.9 0 2.1375V15.8625C0 16.9875 0.917199 18 2.17835 18H15.8217C16.9682 18 18 17.1 18 15.8625V2.1375C17.8854 0.9 16.9682 0 15.707 0ZM11.9236 9.675C11.121 10.35 9.97452 10.6875 8.59872 10.6875C8.25478 10.6875 8.02548 10.6875 7.79618 10.6875V14.2875H5.50319V4.3875C6.19108 4.275 7.22293 4.1625 8.59872 4.1625C9.97452 4.1625 11.0064 4.3875 11.6943 4.95C12.3822 5.4 12.7261 6.3 12.7261 7.2C12.8408 8.2125 12.4968 9.1125 11.9236 9.675ZM10.5478 7.3125C10.5478 8.325 9.74522 8.8875 8.59872 8.8875C8.25478 8.8875 8.02548 8.8875 7.79618 8.775V5.9625C8.02548 5.9625 8.25477 5.85 8.71337 5.85C9.85987 5.85 10.5478 6.4125 10.5478 7.3125Z" fill="#6081D2"/>
</g>
<defs>
<clipPath id="clip0_2014_176">
<rect width="18" height="18" fill="white"/>
</clipPath>
</defs>
</svg>
