<svg width="95" height="32" viewBox="0 0 95 32" fill="none" xmlns="http://www.w3.org/2000/svg">
<path d="M40.3491 11.7197H43.104C44.382 11.7197 45.3045 11.9059 45.8716 12.2783C46.4429 12.6507 46.7285 13.2389 46.7285 14.043C46.7285 14.5846 46.5889 15.0353 46.3096 15.395C46.0303 15.7547 45.6283 15.9811 45.1035 16.0742V16.1377C45.7552 16.2604 46.2334 16.5037 46.5381 16.8677C46.847 17.2274 47.0015 17.7161 47.0015 18.334C47.0015 19.1676 46.7095 19.8215 46.1255 20.2954C45.5457 20.7651 44.7375 21 43.7007 21H40.3491V11.7197ZM41.8662 15.5537H43.3262C43.9609 15.5537 44.4243 15.4543 44.7163 15.2554C45.0083 15.0522 45.1543 14.7095 45.1543 14.2271C45.1543 13.7912 44.9956 13.4759 44.6782 13.2812C44.3651 13.0866 43.8657 12.9893 43.1802 12.9893H41.8662V15.5537ZM41.8662 16.7852V19.7241H43.4785C44.1133 19.7241 44.5915 19.6035 44.9131 19.3623C45.2389 19.1169 45.4019 18.7318 45.4019 18.207C45.4019 17.7246 45.2368 17.367 44.9067 17.1343C44.5767 16.9015 44.0752 16.7852 43.4023 16.7852H41.8662ZM54.9995 17.4771C54.9995 18.6239 54.7054 19.5189 54.1172 20.1621C53.529 20.8053 52.7101 21.127 51.6606 21.127C51.0047 21.127 50.425 20.9788 49.9214 20.6826C49.4178 20.3864 49.0306 19.9611 48.7598 19.4067C48.4889 18.8524 48.3535 18.2091 48.3535 17.4771C48.3535 16.3387 48.6455 15.45 49.2295 14.811C49.8135 14.172 50.6366 13.8525 51.6987 13.8525C52.7144 13.8525 53.5184 14.1805 54.1108 14.8364C54.7033 15.4881 54.9995 16.3683 54.9995 17.4771ZM49.8896 17.4771C49.8896 19.0978 50.4884 19.9082 51.686 19.9082C52.8709 19.9082 53.4634 19.0978 53.4634 17.4771C53.4634 15.8732 52.8667 15.0713 51.6733 15.0713C51.047 15.0713 50.5921 15.2786 50.3086 15.6934C50.0293 16.1081 49.8896 16.7026 49.8896 17.4771ZM58.1479 13.9795V17.5786C58.1479 17.9976 58.1141 18.6133 58.0464 19.4258L61.5693 13.9795H63.3911V21H61.9565V17.4644C61.9565 17.2697 61.9671 16.9544 61.9883 16.5186C62.0137 16.0827 62.0348 15.7653 62.0518 15.5664L58.5415 21H56.7197V13.9795H58.1479ZM60.0078 13.1226C59.1107 13.1226 58.4526 12.9618 58.0337 12.6401C57.619 12.3143 57.3883 11.7726 57.3418 11.0151H58.6938C58.7192 11.3198 58.7764 11.5568 58.8652 11.7261C58.9583 11.8953 59.0895 12.0181 59.2588 12.0942C59.4323 12.1662 59.6947 12.2021 60.0459 12.2021C60.4606 12.2021 60.7759 12.1112 60.9917 11.9292C61.2075 11.743 61.3387 11.4383 61.3853 11.0151H62.7627C62.6992 11.743 62.4432 12.2762 61.9946 12.6147C61.5461 12.9533 60.8838 13.1226 60.0078 13.1226ZM70.7925 13.9795V15.1475H68.5073V21H67.0093V15.1475H64.7241V13.9795H70.7925ZM73.5728 13.9795V17.5786C73.5728 17.9976 73.5389 18.6133 73.4712 19.4258L76.9941 13.9795H78.8159V21H77.3813V17.4644C77.3813 17.2697 77.3919 16.9544 77.4131 16.5186C77.4385 16.0827 77.4596 15.7653 77.4766 15.5664L73.9663 21H72.1445V13.9795H73.5728Z" fill="black" fill-opacity="0.75"/>
<path d="M26.3188 15.564C26.7488 14.926 27.0001 14.1587 27.0001 13.3333V12C27.0001 9.794 25.2062 8 23.0002 8C20.7942 8 19.0002 9.794 19.0002 12V13.3333C19.0002 14.1587 19.2515 14.926 19.6815 15.564C17.6842 16.716 16.3335 18.8667 16.3335 21.3333V22C16.3335 23.1027 17.2308 24 18.3335 24H27.6668C28.7695 24 29.6668 23.1027 29.6668 22V21.3333C29.6668 18.8667 28.3161 16.716 26.3188 15.564ZM20.3335 12C20.3335 10.5293 21.5295 9.33334 23.0002 9.33334C24.4708 9.33334 25.6668 10.5293 25.6668 12V13.3333C25.6668 14.804 24.4708 16 23.0002 16C21.5295 16 20.3335 14.804 20.3335 13.3333V12ZM28.3335 22C28.3335 22.3673 28.0341 22.6667 27.6668 22.6667H18.3335C17.9662 22.6667 17.6668 22.3673 17.6668 22V21.3333C17.6668 19.2407 18.8788 17.4267 20.6375 16.554C21.3008 17.0413 22.1162 17.3333 23.0002 17.3333C23.8842 17.3333 24.6995 17.0413 25.3628 16.554C27.1215 17.4267 28.3335 19.2407 28.3335 21.3333L28.3335 22Z" fill="#DB4661"/>
</svg>
