<svg width="181" height="32" viewBox="0 0 181 32" fill="none" xmlns="http://www.w3.org/2000/svg">
<rect width="181" height="32" rx="4" fill="#FFF1F4"/>
<path d="M46.7231 14.5254C46.7231 15.4945 46.4058 16.2371 45.771 16.7534C45.1362 17.2697 44.2327 17.5278 43.0605 17.5278H42.0957V21H40.5786V11.7197H43.251C44.4105 11.7197 45.278 11.9567 45.8535 12.4307C46.4333 12.9046 46.7231 13.6029 46.7231 14.5254ZM42.0957 16.252H42.9019C43.6805 16.252 44.2518 16.1165 44.6157 15.8457C44.9797 15.5749 45.1616 15.1517 45.1616 14.5762C45.1616 14.043 44.9987 13.6452 44.6729 13.3828C44.347 13.1204 43.8392 12.9893 43.1494 12.9893H42.0957V16.252ZM52.8105 21L52.5122 20.0225H52.4614C52.1229 20.4499 51.7822 20.7419 51.4395 20.8984C51.0967 21.0508 50.6566 21.127 50.1191 21.127C49.4294 21.127 48.8898 20.9408 48.5005 20.5684C48.1154 20.196 47.9229 19.6691 47.9229 18.9878C47.9229 18.2642 48.1916 17.7183 48.729 17.3501C49.2664 16.9819 50.0853 16.7809 51.1855 16.7471L52.3979 16.709V16.3345C52.3979 15.8859 52.2922 15.5516 52.0806 15.3315C51.8732 15.1073 51.5495 14.9951 51.1094 14.9951C50.7497 14.9951 50.4048 15.048 50.0747 15.1538C49.7446 15.2596 49.4272 15.3844 49.1226 15.5283L48.6401 14.4619C49.021 14.263 49.4378 14.1128 49.8906 14.0112C50.3434 13.9054 50.7708 13.8525 51.1729 13.8525C52.0658 13.8525 52.7386 14.0472 53.1914 14.4365C53.6484 14.8258 53.877 15.4373 53.877 16.271V21H52.8105ZM50.5889 19.9844C51.1305 19.9844 51.5643 19.8341 51.8901 19.5337C52.2202 19.229 52.3853 18.8037 52.3853 18.2578V17.6484L51.4839 17.6865C50.7814 17.7119 50.2694 17.8304 49.9478 18.042C49.6304 18.2493 49.4717 18.5688 49.4717 19.0005C49.4717 19.3136 49.5648 19.557 49.751 19.7305C49.9372 19.8997 50.2165 19.9844 50.5889 19.9844ZM58.79 21.127C57.7279 21.127 56.9196 20.818 56.3652 20.2002C55.8151 19.5781 55.54 18.6873 55.54 17.5278C55.54 16.3472 55.8278 15.4395 56.4033 14.8047C56.9831 14.1699 57.8188 13.8525 58.9106 13.8525C59.6512 13.8525 60.3177 13.9901 60.9102 14.2651L60.4595 15.4648C59.8289 15.2194 59.3084 15.0967 58.8979 15.0967C57.6834 15.0967 57.0762 15.9028 57.0762 17.5151C57.0762 18.3022 57.2264 18.8947 57.5269 19.2925C57.8315 19.686 58.2759 19.8828 58.8599 19.8828C59.5243 19.8828 60.1527 19.7178 60.7451 19.3877V20.689C60.4785 20.8455 60.1929 20.9577 59.8882 21.0254C59.5877 21.0931 59.2217 21.127 58.79 21.127ZM65.2266 21.127C64.1644 21.127 63.3561 20.818 62.8018 20.2002C62.2516 19.5781 61.9766 18.6873 61.9766 17.5278C61.9766 16.3472 62.2643 15.4395 62.8398 14.8047C63.4196 14.1699 64.2554 13.8525 65.3472 13.8525C66.0877 13.8525 66.7542 13.9901 67.3467 14.2651L66.896 15.4648C66.2655 15.2194 65.745 15.0967 65.3345 15.0967C64.12 15.0967 63.5127 15.9028 63.5127 17.5151C63.5127 18.3022 63.6629 18.8947 63.9634 19.2925C64.2681 19.686 64.7124 19.8828 65.2964 19.8828C65.9608 19.8828 66.5892 19.7178 67.1816 19.3877V20.689C66.915 20.8455 66.6294 20.9577 66.3247 21.0254C66.0243 21.0931 65.6582 21.127 65.2266 21.127ZM70.146 13.9795V16.5439C70.146 17.2633 70.5184 17.623 71.2632 17.623C71.6229 17.623 71.9741 17.5744 72.3169 17.4771C72.6597 17.3755 73.0278 17.2147 73.4214 16.9946V13.9795H74.9131V21H73.4214V18.0229C73.0109 18.2769 72.6131 18.4652 72.228 18.5879C71.8472 18.7064 71.4303 18.7656 70.9775 18.7656C70.2454 18.7656 69.6742 18.5773 69.2637 18.2007C68.8532 17.8198 68.6479 17.2887 68.6479 16.6074V13.9795H70.146ZM78.4741 13.9795V17.5786C78.4741 17.9976 78.4403 18.6133 78.3726 19.4258L81.8955 13.9795H83.7173V21H82.2827V17.4644C82.2827 17.2697 82.2933 16.9544 82.3145 16.5186C82.3398 16.0827 82.361 15.7653 82.3779 15.5664L78.8677 21H77.0459V13.9795H78.4741ZM91.1187 13.9795V15.1475H88.8335V21H87.3354V15.1475H85.0503V13.9795H91.1187ZM96.8633 21L96.5649 20.0225H96.5142C96.1756 20.4499 95.835 20.7419 95.4922 20.8984C95.1494 21.0508 94.7093 21.127 94.1719 21.127C93.4821 21.127 92.9425 20.9408 92.5532 20.5684C92.1681 20.196 91.9756 19.6691 91.9756 18.9878C91.9756 18.2642 92.2443 17.7183 92.7817 17.3501C93.3192 16.9819 94.138 16.7809 95.2383 16.7471L96.4507 16.709V16.3345C96.4507 15.8859 96.3449 15.5516 96.1333 15.3315C95.9259 15.1073 95.6022 14.9951 95.1621 14.9951C94.8024 14.9951 94.4575 15.048 94.1274 15.1538C93.7974 15.2596 93.48 15.3844 93.1753 15.5283L92.6929 14.4619C93.0737 14.263 93.4906 14.1128 93.9434 14.0112C94.3962 13.9054 94.8236 13.8525 95.2256 13.8525C96.1185 13.8525 96.7913 14.0472 97.2441 14.4365C97.7012 14.8258 97.9297 15.4373 97.9297 16.271V21H96.8633ZM94.6416 19.9844C95.1833 19.9844 95.617 19.8341 95.9429 19.5337C96.2729 19.229 96.438 18.8037 96.438 18.2578V17.6484L95.5366 17.6865C94.8341 17.7119 94.3221 17.8304 94.0005 18.042C93.6831 18.2493 93.5244 18.5688 93.5244 19.0005C93.5244 19.3136 93.6175 19.557 93.8037 19.7305C93.9899 19.8997 94.2692 19.9844 94.6416 19.9844ZM105.287 13.9795V15.1475H103.001V21H101.503V15.1475H99.2183V13.9795H105.287ZM108.13 16.7852H109.889C111.848 16.7852 112.828 17.4622 112.828 18.8164C112.828 19.5316 112.578 20.0754 112.079 20.4478C111.579 20.8159 110.849 21 109.889 21H106.639V13.9795H108.13V16.7852ZM111.33 18.8545C111.33 18.5033 111.196 18.2578 110.93 18.1182C110.663 17.9785 110.286 17.9087 109.8 17.9087H108.13V19.8955H109.825C110.316 19.8955 110.688 19.8066 110.942 19.6289C111.201 19.4512 111.33 19.193 111.33 18.8545ZM121.422 21.127C120.534 21.127 119.844 20.8075 119.353 20.1685H119.264C119.323 20.7609 119.353 21.1206 119.353 21.2476V24.123H117.861V13.9795H119.067C119.101 14.1107 119.171 14.4238 119.277 14.9189H119.353C119.819 14.208 120.517 13.8525 121.448 13.8525C122.324 13.8525 123.005 14.1699 123.492 14.8047C123.983 15.4395 124.228 16.3302 124.228 17.4771C124.228 18.6239 123.978 19.5189 123.479 20.1621C122.984 20.8053 122.298 21.127 121.422 21.127ZM121.061 15.0713C120.468 15.0713 120.034 15.2448 119.759 15.5918C119.488 15.9388 119.353 16.4932 119.353 17.2549V17.4771C119.353 18.3319 119.488 18.9518 119.759 19.3369C120.03 19.7178 120.472 19.9082 121.086 19.9082C121.602 19.9082 122 19.6966 122.279 19.2734C122.559 18.8503 122.698 18.2472 122.698 17.4644C122.698 16.6772 122.559 16.0827 122.279 15.6807C122.004 15.2744 121.598 15.0713 121.061 15.0713ZM129.027 21.127C127.935 21.127 127.08 20.8096 126.462 20.1748C125.849 19.5358 125.542 18.6577 125.542 17.5405C125.542 16.3937 125.828 15.4924 126.399 14.8364C126.97 14.1805 127.755 13.8525 128.754 13.8525C129.681 13.8525 130.413 14.134 130.95 14.6968C131.488 15.2596 131.756 16.034 131.756 17.02V17.8262H127.078C127.099 18.5075 127.283 19.0322 127.63 19.4004C127.977 19.7643 128.466 19.9463 129.097 19.9463C129.511 19.9463 129.896 19.9082 130.252 19.832C130.612 19.7516 130.997 19.6204 131.407 19.4385V20.6509C131.043 20.8244 130.675 20.9471 130.303 21.019C129.93 21.091 129.505 21.127 129.027 21.127ZM128.754 14.9824C128.28 14.9824 127.899 15.1326 127.611 15.4331C127.328 15.7336 127.159 16.1715 127.104 16.7471H130.29C130.282 16.1673 130.142 15.7293 129.871 15.4331C129.6 15.1326 129.228 14.9824 128.754 14.9824ZM137.482 19.5718L137.564 19.2671C137.738 18.6366 137.888 18.152 138.015 17.8135L139.589 13.9795H141.576V21H140.199V15.3315L140.084 15.7124C139.894 16.3937 139.733 16.8952 139.602 17.2168L138.066 21H136.936L135.4 17.1914C135.188 16.6413 134.994 16.0213 134.816 15.3315V21H133.451V13.9795H135.425L136.949 17.6992C137.084 18.042 137.262 18.6662 137.482 19.5718ZM149.936 17.4771C149.936 18.6239 149.642 19.5189 149.054 20.1621C148.465 20.8053 147.647 21.127 146.597 21.127C145.941 21.127 145.361 20.9788 144.858 20.6826C144.354 20.3864 143.967 19.9611 143.696 19.4067C143.425 18.8524 143.29 18.2091 143.29 17.4771C143.29 16.3387 143.582 15.45 144.166 14.811C144.75 14.172 145.573 13.8525 146.635 13.8525C147.651 13.8525 148.455 14.1805 149.047 14.8364C149.64 15.4881 149.936 16.3683 149.936 17.4771ZM144.826 17.4771C144.826 19.0978 145.425 19.9082 146.623 19.9082C147.807 19.9082 148.4 19.0978 148.4 17.4771C148.4 15.8732 147.803 15.0713 146.61 15.0713C145.984 15.0713 145.529 15.2786 145.245 15.6934C144.966 16.1081 144.826 16.7026 144.826 17.4771ZM153.148 13.9795V16.7979H156.455V13.9795H157.947V21H156.455V17.9722H153.148V21H151.656V13.9795H153.148ZM165.361 13.9795V15.1475H163.076V21H161.578V15.1475H159.292V13.9795H165.361Z" fill="black" fill-opacity="0.75"/>
<g clip-path="url(#clip0_3452_1430)">
<path d="M23 8C18.5885 8 15 11.5885 15 16C15 20.4115 18.5885 24 23 24C27.4115 24 31 20.4108 31 16C31 11.5892 27.4115 8 23 8ZM23 22.7607C19.2727 22.7607 16.2393 19.728 16.2393 16C16.2393 12.272 19.2727 9.23934 23 9.23934C26.7273 9.23934 29.7607 12.272 29.7607 16C29.7607 19.728 26.728 22.7607 23 22.7607Z" fill="#DB4661"/>
<path d="M26.0984 15.3245H23.6197V12.8459C23.6197 12.5038 23.3427 12.2262 23 12.2262C22.6573 12.2262 22.3803 12.5038 22.3803 12.8459V15.3245H19.9016C19.559 15.3245 19.282 15.6022 19.282 15.9442C19.282 16.2863 19.559 16.5639 19.9016 16.5639H22.3803V19.0426C22.3803 19.3847 22.6573 19.6623 23 19.6623C23.3427 19.6623 23.6197 19.3847 23.6197 19.0426V16.5639H26.0984C26.4411 16.5639 26.7181 16.2863 26.7181 15.9442C26.7181 15.6022 26.4411 15.3245 26.0984 15.3245Z" fill="#DB4661"/>
</g>
<defs>
<clipPath id="clip0_3452_1430">
<rect width="16" height="16" fill="white" transform="translate(15 8)"/>
</clipPath>
</defs>
</svg>
