<svg width="70" height="32" viewBox="0 0 70 32" fill="none" xmlns="http://www.w3.org/2000/svg">
<path d="M25.2368 21L22.5454 13.2495H22.4946C22.5666 14.4006 22.6025 15.4797 22.6025 16.4868V21H21.2251V11.7197H23.3643L25.9414 19.1021H25.9795L28.6328 11.7197H30.7783V21H29.3184V16.4106C29.3184 15.9494 29.3289 15.3485 29.3501 14.6079C29.3755 13.8674 29.3966 13.4188 29.4136 13.2622H29.3628L26.5762 21H25.2368ZM39.2905 17.4771C39.2905 18.6239 38.9964 19.5189 38.4082 20.1621C37.82 20.8053 37.0011 21.127 35.9517 21.127C35.2957 21.127 34.716 20.9788 34.2124 20.6826C33.7088 20.3864 33.3216 19.9611 33.0508 19.4067C32.7799 18.8524 32.6445 18.2091 32.6445 17.4771C32.6445 16.3387 32.9365 15.45 33.5205 14.811C34.1045 14.172 34.9276 13.8525 35.9897 13.8525C37.0054 13.8525 37.8094 14.1805 38.4019 14.8364C38.9943 15.4881 39.2905 16.3683 39.2905 17.4771ZM34.1807 17.4771C34.1807 19.0978 34.7795 19.9082 35.9771 19.9082C37.1619 19.9082 37.7544 19.0978 37.7544 17.4771C37.7544 15.8732 37.1577 15.0713 35.9644 15.0713C35.3381 15.0713 34.8831 15.2786 34.5996 15.6934C34.3203 16.1081 34.1807 16.7026 34.1807 17.4771ZM43.8418 21.127C42.7796 21.127 41.9714 20.818 41.417 20.2002C40.8669 19.5781 40.5918 18.6873 40.5918 17.5278C40.5918 16.3472 40.8796 15.4395 41.4551 14.8047C42.0348 14.1699 42.8706 13.8525 43.9624 13.8525C44.703 13.8525 45.3695 13.9901 45.9619 14.2651L45.5112 15.4648C44.8807 15.2194 44.3602 15.0967 43.9497 15.0967C42.7352 15.0967 42.1279 15.9028 42.1279 17.5151C42.1279 18.3022 42.2782 18.8947 42.5786 19.2925C42.8833 19.686 43.3276 19.8828 43.9116 19.8828C44.576 19.8828 45.2044 19.7178 45.7969 19.3877V20.689C45.5303 20.8455 45.2446 20.9577 44.9399 21.0254C44.6395 21.0931 44.2734 21.127 43.8418 21.127ZM51.8018 13.9795H53.4395L50.5386 17.3628L53.687 21H51.9731L48.939 17.439V21H47.4473V13.9795H48.939V17.3882L51.8018 13.9795ZM60.9424 15.7759C60.9424 16.6053 60.4578 17.1068 59.4888 17.2803V17.3311C60.0304 17.3945 60.4451 17.5659 60.7329 17.8452C61.0207 18.1245 61.1646 18.4863 61.1646 18.9307C61.1646 19.5951 60.9106 20.1071 60.4028 20.4668C59.8993 20.8223 59.165 21 58.2002 21H54.8486V13.9795H58.1875C60.0241 13.9795 60.9424 14.5783 60.9424 15.7759ZM59.6348 18.8418C59.6348 18.5033 59.5036 18.2642 59.2412 18.1245C58.9788 17.9806 58.5853 17.9087 58.0605 17.9087H56.3403V19.8955H58.0986C59.1227 19.8955 59.6348 19.5443 59.6348 18.8418ZM59.4507 15.9028C59.4507 15.6235 59.3407 15.4225 59.1206 15.2998C58.9048 15.1729 58.5811 15.1094 58.1494 15.1094H56.3403V16.7979H57.9272C58.4266 16.7979 58.8053 16.7344 59.0635 16.6074C59.3216 16.4762 59.4507 16.2414 59.4507 15.9028ZM67.0996 21L66.8013 20.0225H66.7505C66.4119 20.4499 66.0713 20.7419 65.7285 20.8984C65.3857 21.0508 64.9456 21.127 64.4082 21.127C63.7184 21.127 63.1789 20.9408 62.7896 20.5684C62.4045 20.196 62.2119 19.6691 62.2119 18.9878C62.2119 18.2642 62.4806 17.7183 63.0181 17.3501C63.5555 16.9819 64.3743 16.7809 65.4746 16.7471L66.687 16.709V16.3345C66.687 15.8859 66.5812 15.5516 66.3696 15.3315C66.1623 15.1073 65.8385 14.9951 65.3984 14.9951C65.0387 14.9951 64.6938 15.048 64.3638 15.1538C64.0337 15.2596 63.7163 15.3844 63.4116 15.5283L62.9292 14.4619C63.3101 14.263 63.7269 14.1128 64.1797 14.0112C64.6325 13.9054 65.0599 13.8525 65.4619 13.8525C66.3548 13.8525 67.0277 14.0472 67.4805 14.4365C67.9375 14.8258 68.166 15.4373 68.166 16.271V21H67.0996ZM64.8779 19.9844C65.4196 19.9844 65.8534 19.8341 66.1792 19.5337C66.5093 19.229 66.6743 18.8037 66.6743 18.2578V17.6484L65.7729 17.6865C65.0705 17.7119 64.5584 17.8304 64.2368 18.042C63.9194 18.2493 63.7607 18.5688 63.7607 19.0005C63.7607 19.3136 63.8538 19.557 64.04 19.7305C64.2262 19.8997 64.5055 19.9844 64.8779 19.9844Z" fill="black" fill-opacity="0.75"/>
<g clip-path="url(#clip0_3452_1438)">
<path d="M9.56016 11.4758C7.5926 9.5082 4.40789 9.50799 2.44011 11.4758C0.47259 13.4433 0.472284 16.628 2.44011 18.5958L5.73406 21.8898C5.88104 22.0367 6.11928 22.0367 6.26623 21.8898L9.56019 18.5958C11.5277 16.6283 11.528 13.4436 9.56016 11.4758ZM7.59161 16.6272C6.71211 17.5068 5.28838 17.507 4.40866 16.6272C3.52912 15.7477 3.52898 14.324 4.40866 13.4443C5.28814 12.5648 6.7119 12.5647 7.59159 13.4443C8.47113 14.3238 8.47127 15.7476 7.59161 16.6272Z" fill="#DB4661"/>
</g>
<defs>
<clipPath id="clip0_3452_1438">
<rect width="12" height="12" fill="white" transform="translate(0 10)"/>
</clipPath>
</defs>
</svg>
