<svg width="32" height="32" viewBox="0 0 32 32" fill="none" xmlns="http://www.w3.org/2000/svg">
<g clip-path="url(#clip0_3452_905)">
<path d="M31.962 12.1306C31.9386 11.7864 31.6405 11.5261 31.296 11.5496C30.9515 11.573 30.6915 11.8711 30.715 12.2156C30.7382 12.5571 30.7499 12.8989 30.7499 13.2312C30.7499 16.1804 29.8827 19.0266 28.2418 21.4622C28.0492 21.7485 28.1249 22.1367 28.411 22.3296C28.5182 22.4019 28.6395 22.4363 28.7596 22.4363C28.9606 22.4363 29.1578 22.3396 29.2787 22.1604C31.059 19.5178 31.9999 16.4302 31.9999 13.2312C31.9999 12.8709 31.9872 12.5005 31.962 12.1306Z" fill="#DB4661"/>
<path d="M1.25 13.2311C1.25 9.98109 2.28711 6.89857 4.24878 4.31654C4.45776 4.04188 4.40405 3.64955 4.12939 3.44081C3.85449 3.23207 3.4624 3.28553 3.25366 3.56044C1.125 6.36171 0 9.7057 0 13.2311C0 15.4901 0.462402 17.6754 1.37451 19.726C1.47803 19.9589 1.70654 20.0971 1.94604 20.0971C2.03076 20.0971 2.11694 20.0797 2.19971 20.0429C2.51489 19.9027 2.65698 19.5333 2.5166 19.2179C1.67603 17.3283 1.25 15.3141 1.25 13.2311Z" fill="#DB4661"/>
<path d="M11.3136 6.69016C11.4142 6.93576 11.6725 7.09494 11.9369 7.07444C12.2086 7.0532 12.4406 6.85447 12.5004 6.58811C12.6227 6.04416 11.9896 5.61789 11.5316 5.9404C11.2963 6.10617 11.2025 6.4238 11.3136 6.69016Z" fill="#DB4661"/>
<path d="M20.2018 6.21269C20.0727 5.89799 19.6992 5.74369 19.3854 5.87455C19.071 6.0059 18.9172 6.3748 19.0473 6.69023C19.1774 7.00493 19.5493 7.15922 19.8637 7.02836C20.1777 6.89775 20.3329 6.52739 20.2018 6.21269Z" fill="#DB4661"/>
<path d="M11.5446 20.5427C12.0165 20.8572 12.6444 20.4014 12.4933 19.8567C12.422 19.5999 12.1881 19.4121 11.9218 19.3989C11.6559 19.3857 11.4037 19.5503 11.3083 19.7983C11.2052 20.0662 11.3029 20.3845 11.5446 20.5427Z" fill="#DB4661"/>
<path d="M20.2021 19.7839C20.0996 19.538 19.8449 19.3801 19.5788 19.3999C19.3069 19.4201 19.0759 19.6206 19.0154 19.8859C18.8908 20.4323 19.5268 20.8535 19.9846 20.5339C20.2224 20.3679 20.3115 20.051 20.2021 19.7839Z" fill="#DB4661"/>
<path d="M24.1805 12.9807C24.0494 12.6662 23.6792 12.5124 23.3641 12.6425C23.0496 12.7727 22.8953 13.1445 23.0262 13.4589C23.1568 13.7734 23.5274 13.9274 23.8423 13.7971C24.1563 13.6669 24.3113 13.2949 24.1805 12.9807Z" fill="#DB4661"/>
<path d="M7.68249 13.7395C8.15417 14.054 8.78332 13.5979 8.63147 13.053C8.56018 12.7967 8.32653 12.6089 8.06017 12.5957C7.79333 12.5823 7.54308 12.7466 7.44689 12.9952C7.34313 13.2627 7.44079 13.5813 7.68249 13.7395Z" fill="#DB4661"/>
<path d="M24.3967 23.4307C24.9333 22.989 25.4375 22.5034 25.9036 21.9766C28.0417 19.5598 29.2192 16.45 29.2192 13.2197C29.2192 5.93042 23.2891 0 15.9998 0C8.71045 0 2.78027 5.93042 2.78027 13.2195C2.78027 16.4055 3.92944 19.4832 6.01611 21.8855C6.47729 22.4163 6.97754 22.9065 7.5105 23.353L3.84229 31.0503C3.75 31.2439 3.76343 31.4712 3.87793 31.6526C3.99243 31.8342 4.19189 31.9441 4.40649 31.9441H7.02563C7.20874 31.9441 7.38232 31.8633 7.50122 31.7239C7.61987 31.5847 7.67139 31.3997 7.64258 31.2188C7.5918 30.9004 7.30688 30.6777 6.99341 30.6941H5.39648L8.52686 24.1257C8.54883 24.1409 8.57129 24.155 8.59351 24.1702C9.68555 24.9097 10.8889 25.4858 12.1511 25.8691C12.5198 25.9812 12.8936 26.0771 13.2708 26.1565C13.2939 26.1614 13.3169 26.1667 13.3401 26.1716L12.9326 27.7083H11.4805C11.1353 27.7083 10.8555 27.988 10.8555 28.3333C10.8555 28.6785 11.1353 28.9583 11.4805 28.9583H20.24C20.5852 28.9583 20.865 28.6785 20.865 28.3333C20.865 27.988 20.5852 27.7083 20.24 27.7083H18.8074L18.4194 26.2183C18.4414 26.2144 18.4631 26.2095 18.4851 26.2053C19.8267 25.9497 21.1267 25.4834 22.3257 24.8293C22.6624 24.6458 22.9907 24.4468 23.3103 24.2346C23.3311 24.2207 23.3523 24.2075 23.373 24.1936L26.3965 30.6941H12.7014C12.6912 30.6936 12.6809 30.6934 12.6704 30.6934C12.3252 30.6934 12.0454 30.9739 12.0454 31.3191C12.0454 31.6643 12.3252 31.9441 12.6704 31.9441H27.3765C27.5901 31.9441 27.7888 31.8352 27.9036 31.655C28.0183 31.4751 28.0332 31.249 27.9434 31.0554L24.3967 23.4307ZM6.95996 21.0657C5.07056 18.8909 4.03027 16.1045 4.03027 13.2195C4.03027 6.61963 9.39966 1.25 15.9998 1.25C22.5999 1.25 27.9692 6.61963 27.9692 13.2195C27.9692 16.1445 26.9031 18.9602 24.9673 21.1482C24.4329 21.7522 23.843 22.2961 23.2087 22.7754C22.0869 23.623 20.8154 24.271 19.4695 24.678C19.0894 24.793 18.7036 24.8896 18.314 24.9658C18.2439 24.9795 18.1736 24.9915 18.1035 25.0039L17.8213 23.9194C20.9197 23.3574 23.6626 21.4409 25.2549 18.6887C25.2563 18.686 25.2578 18.6829 25.2593 18.6802C26.2034 17.0454 26.7024 15.1792 26.7024 13.2825C26.7024 11.3821 26.2017 9.51245 25.2544 7.87549C25.2544 7.87524 25.2542 7.875 25.2539 7.87476C24.3206 6.26196 22.9788 4.90918 21.3733 3.96289C19.7183 2.9873 17.8228 2.47168 15.8916 2.47168C13.9604 2.47168 12.0649 2.9873 10.4102 3.96289C8.8042 4.90918 7.46216 6.26221 6.52881 7.87524C6.52881 7.87549 6.52856 7.87549 6.52832 7.87573C5.58179 9.5127 5.0813 11.3823 5.0813 13.2825C5.0813 15.1821 5.58179 17.0515 6.52832 18.6885C6.52881 18.6895 6.52954 18.6899 6.52979 18.6909C8.11792 21.4336 10.8511 23.3477 13.9385 23.915L13.6616 24.9597C13.6052 24.9485 13.5491 24.938 13.4932 24.926C12.2266 24.6558 11.0017 24.1772 9.88965 23.5132C9.573 23.3242 9.2644 23.1221 8.96606 22.9053C8.87817 22.8416 8.7915 22.7761 8.70557 22.71C8.07446 22.2246 7.48901 21.6748 6.95996 21.0657ZM14.2261 27.7083L15.8862 21.4487L17.5159 27.7083H14.2261ZM16.5168 18.9084V17.0569C17.4285 16.9048 18.2595 16.4248 18.8479 15.7112L23.8418 18.594C22.3838 20.7695 20.0789 22.2666 17.5056 22.7068L16.5168 18.9084ZM24.4675 17.512L19.4734 14.6289C19.634 14.2007 19.7175 13.7441 19.7175 13.2825C19.7175 12.8208 19.634 12.3643 19.4734 11.936L24.4675 9.05249C25.1133 10.3613 25.4524 11.8113 25.4524 13.2825C25.4524 14.7532 25.1133 16.2029 24.4675 17.512ZM18.8474 10.8538C18.2593 10.1401 17.428 9.66016 16.5166 9.5083V3.74194C18.0066 3.83911 19.4546 4.28271 20.7385 5.03955C21.9792 5.771 23.042 6.77661 23.8416 7.97046L18.8474 10.8538ZM18.123 11.9946C18.4302 12.481 18.5242 13.1194 18.4368 13.6807C18.3521 14.2241 18.0911 14.7327 17.6985 15.1177C16.9702 15.8323 15.8606 16.0535 14.916 15.6655C13.8975 15.2468 13.2427 14.1985 13.322 13.0977C13.3994 12.0242 14.1614 11.0947 15.196 10.803C16.1833 10.5242 17.2695 10.8789 17.9084 11.6804C17.9878 11.7795 18.0593 11.8848 18.123 11.9946ZM15.2666 9.5083C14.355 9.6604 13.5237 10.1401 12.9355 10.854L7.94165 7.97046C8.74097 6.77661 9.80396 5.771 11.0449 5.03955C12.3289 4.28296 13.7769 3.83936 15.2666 3.74194V9.5083ZM7.31592 9.05249L12.3098 11.936C12.1489 12.3643 12.0654 12.8208 12.0654 13.2825C12.0654 13.7439 12.1489 14.2004 12.3098 14.6287L7.31592 17.5117C6.67017 16.2026 6.3313 14.7529 6.3313 13.2825C6.3313 11.8115 6.67017 10.3616 7.31592 9.05249ZM12.9358 15.7112C13.5239 16.4248 14.3552 16.9048 15.2668 17.0569V18.9055L14.2598 22.7036C11.6943 22.2595 9.39624 20.7637 7.94189 18.594L12.9358 15.7112Z" fill="#DB4661"/>
<path d="M10.2098 30.7995C9.98763 30.6516 9.68929 30.663 9.4786 30.8266C9.2723 30.9863 9.18856 31.268 9.2701 31.5151C9.45321 32.0681 10.2537 32.0756 10.451 31.5295C10.5465 31.2649 10.4464 30.9541 10.2098 30.7995Z" fill="#DB4661"/>
</g>
<defs>
<clipPath id="clip0_3452_905">
<rect width="32" height="32" fill="white"/>
</clipPath>
</defs>
</svg>
