<svg width="18" height="18" viewBox="0 0 18 18" fill="none" xmlns="http://www.w3.org/2000/svg">
<path d="M8.9998 12.8074C10.058 12.8074 10.9791 12.4313 11.735 11.693C12.4943 10.9512 12.8775 10.0441 12.8775 9V3.80742C12.8775 2.76328 12.4943 1.85625 11.735 1.11445C10.9791 0.376172 10.058 0 8.9998 0C7.9416 0 7.02051 0.376172 6.26465 1.11445C5.50527 1.85625 5.12207 2.76328 5.12207 3.80742V9C5.12207 10.0441 5.50527 10.9512 6.26465 11.693C7.02051 12.4313 7.9416 12.8074 8.9998 12.8074ZM6.24707 3.80742C6.24707 3.06563 6.51074 2.44688 7.05215 1.91602C7.59707 1.38516 8.2334 1.125 8.9998 1.125C9.76621 1.125 10.4025 1.38516 10.9475 1.91602C11.4889 2.44688 11.7525 3.06563 11.7525 3.80742V9C11.7525 9.7418 11.4889 10.3605 10.9475 10.8914C10.4025 11.4258 9.76621 11.6824 8.9998 11.6824C8.2334 11.6824 7.59707 11.4223 7.05215 10.8914C6.51074 10.3605 6.24707 9.7418 6.24707 9V3.80742Z" fill="#DB4661"/>
<path d="M14.4244 7.14023C14.115 7.14023 13.8619 7.39336 13.8619 7.70273V9.16172C13.8619 10.4168 13.3979 11.4645 12.4451 12.3574C11.4959 13.2504 10.3885 13.6898 9.05606 13.7004C9.03848 13.6969 9.01738 13.6969 8.9998 13.6969C8.98223 13.6969 8.96113 13.6969 8.94355 13.7004C7.61113 13.6863 6.50371 13.2469 5.55449 12.3574C4.60176 11.4609 4.1377 10.4168 4.1377 9.16172V7.70273C4.1377 7.39336 3.88457 7.14023 3.5752 7.14023C3.26582 7.14023 3.0127 7.39336 3.0127 7.70273V9.16172C3.0127 10.7227 3.60684 12.0727 4.78105 13.1801C5.81113 14.1469 7.03809 14.6918 8.4373 14.8078V16.875H5.32246C5.01309 16.875 4.75996 17.1281 4.75996 17.4375C4.75996 17.7469 5.01309 18 5.32246 18H12.6771C12.9865 18 13.2396 17.7469 13.2396 17.4375C13.2396 17.1281 12.9865 16.875 12.6771 16.875H9.5623V14.8043C10.9615 14.6918 12.1885 14.1434 13.2186 13.1766C14.3928 12.0727 14.9869 10.7191 14.9869 9.1582V7.69922C14.9869 7.39336 14.7338 7.14023 14.4244 7.14023Z" fill="#DB4661"/>
</svg>
