<svg width="24" height="24" viewBox="0 0 24 24" fill="none" xmlns="http://www.w3.org/2000/svg">
<g clip-path="url(#clip0_3452_1133)">
<path d="M10.2424 2.3437C9.72207 1.82339 8.88301 1.82339 8.3627 2.33902L3.98457 6.71714L2.26895 4.99683C1.74863 4.47652 0.90957 4.47652 0.389258 4.99683C-0.131055 5.51714 -0.131055 6.3562 0.389258 6.87652L3.04707 9.53433C3.30488 9.79683 3.64707 9.92339 3.98457 9.92339C4.32676 9.92339 4.66426 9.79214 4.92676 9.53433L10.2424 4.22339C10.758 3.70308 10.758 2.85933 10.2424 2.3437Z" fill="#6081D2"/>
<path d="M23.6111 2.3437C23.0908 1.82339 22.2517 1.82339 21.7314 2.33902L17.358 6.71714L15.6424 4.99683C15.122 4.47652 14.283 4.47652 13.7627 4.99683C13.2424 5.51714 13.2424 6.3562 13.7627 6.87652L16.4205 9.53433C16.6783 9.79683 17.0205 9.92339 17.358 9.92339C17.7002 9.92339 18.0377 9.79214 18.3002 9.53433L23.6111 4.22339C24.1314 3.70308 24.1314 2.85933 23.6111 2.3437Z" fill="#6081D2"/>
<path d="M10.2424 14.3812C9.72207 13.8609 8.88301 13.8609 8.3627 14.3765L3.98457 18.7593L2.26895 17.0437C1.74863 16.5234 0.90957 16.5234 0.389258 17.0437C-0.131055 17.564 -0.131055 18.4031 0.389258 18.9234L3.04707 21.5765C3.30488 21.8343 3.64707 21.9656 3.98457 21.9656C4.32676 21.9656 4.66426 21.8343 4.92676 21.5765L10.2424 16.2609C10.758 15.7453 10.758 14.9015 10.2424 14.3812Z" fill="#6081D2"/>
<path d="M23.6111 14.3812C23.0908 13.8609 22.2517 13.8609 21.7314 14.3765L17.358 18.7547L15.6424 17.039C15.122 16.5187 14.283 16.5187 13.7627 17.039C13.2424 17.5593 13.2424 18.3984 13.7627 18.9187L16.4205 21.5765C16.6783 21.8343 17.0205 21.9656 17.358 21.9656C17.7002 21.9656 18.0377 21.8343 18.3002 21.5765L23.6158 16.2609C24.1314 15.7453 24.1314 14.9015 23.6111 14.3812Z" fill="#6081D2"/>
</g>
<defs>
<clipPath id="clip0_3452_1133">
<rect width="24" height="24" fill="white"/>
</clipPath>
</defs>
</svg>
