<svg width="32" height="32" viewBox="0 0 32 32" fill="none" xmlns="http://www.w3.org/2000/svg">
<g clip-path="url(#clip0_3452_918)">
<path d="M13.3704 10.4062C8.71689 10.4062 4.94434 14.1785 4.94434 18.8323C4.94434 23.4859 8.71689 27.2584 13.3704 27.2584C18.0239 27.2584 21.7965 23.4859 21.7965 18.8323C21.7911 14.1809 18.0216 10.4116 13.3704 10.4062ZM19.1021 14.2048C17.4271 14.4365 15.9257 15.3596 14.9624 16.7495C14.8904 16.6929 14.8156 16.6402 14.7382 16.5913C14.7906 14.914 15.6767 13.3732 17.1 12.4837C17.8648 12.9332 18.5431 13.5161 19.1021 14.2048ZM20.6738 17.8742C20.0587 17.5173 19.3706 17.3046 18.6614 17.2524C17.6758 17.2087 16.6943 17.4031 15.7997 17.8194C15.7613 17.7374 15.7189 17.6572 15.6724 17.5793C16.5577 16.1503 18.0975 15.2573 19.7774 15.1984C20.247 16.0238 20.5514 16.9326 20.6738 17.8742ZM18.7421 20.1098C17.9069 19.5783 16.9558 19.2558 15.9694 19.1702C15.9838 19.0789 15.993 18.9869 15.9971 18.8943C16.7994 18.4656 17.7028 18.262 18.6115 18.3057C19.3742 18.3972 20.1019 18.678 20.7286 19.1224C20.6982 19.9308 20.5339 20.7285 20.2423 21.4832C19.8219 20.9453 19.3151 20.4811 18.7421 20.1098ZM6.06702 19.7902C6.68211 20.1474 7.37023 20.36 8.07943 20.4122C8.17535 20.4163 8.26895 20.4189 8.36229 20.4189C9.25355 20.4163 10.134 20.2209 10.9427 19.846C10.978 19.9298 11.0268 20.0039 11.07 20.0851C10.5856 20.8573 9.90464 21.4871 9.09695 21.9098C8.43635 22.2508 7.70837 22.4416 6.96548 22.4681C6.49491 21.6424 6.18968 20.7326 6.06702 19.7902ZM7.99869 17.5546C8.83363 18.0869 9.78506 18.4091 10.7715 18.4937C10.7571 18.585 10.7478 18.677 10.7437 18.7696C9.94038 19.1954 9.03781 19.3988 8.12932 19.359C7.36663 19.2672 6.63891 18.9866 6.01225 18.542C6.0426 17.7336 6.20691 16.9359 6.49851 16.1812C6.91894 16.7191 7.42603 17.1833 7.99869 17.5546ZM13.3704 20.4122C12.4979 20.4122 11.7905 19.7048 11.7905 18.8323C11.7905 17.9596 12.4979 17.2524 13.3704 17.2524C14.2429 17.2524 14.9503 17.9596 14.9503 18.8323C14.9503 19.7048 14.2429 20.4122 13.3704 20.4122ZM13.7075 16.2334C13.6165 16.219 13.525 16.2095 13.4332 16.2054C13.0089 15.4015 12.8057 14.4995 12.8438 13.5912C12.9353 12.8285 13.2161 12.1006 13.6605 11.4742C14.4689 11.5045 15.2669 11.6688 16.0216 11.9602C14.686 12.9977 13.8469 14.5478 13.708 16.2334H13.7075ZM12.3583 16.4028C12.276 16.4412 12.1958 16.4841 12.1181 16.5309C10.6874 15.6461 9.79381 14.1045 9.73724 12.423C10.5622 11.954 11.4706 11.6498 12.412 11.5279C12.0549 12.1433 11.8425 12.8316 11.7905 13.5411C11.7473 14.5267 11.942 15.5085 12.3583 16.4028ZM13.0333 21.4313C13.1243 21.4457 13.2159 21.4549 13.3077 21.4591C13.732 22.2631 13.9351 23.1652 13.897 24.0732C13.8055 24.8361 13.5247 25.5638 13.0804 26.1902C12.2719 26.1599 11.474 25.9958 10.7193 25.7042C12.0549 24.6667 12.8939 23.1166 13.0328 21.4313H13.0333ZM14.3825 21.2616C14.4648 21.2233 14.545 21.1806 14.6227 21.1335C16.0535 22.0186 16.947 23.5602 17.0036 25.2414C16.1787 25.7107 15.2702 26.0146 14.3288 26.1365C14.686 25.5212 14.8984 24.8328 14.9503 24.1233C14.9935 23.1377 14.7989 22.1562 14.3825 21.2616ZM8.7444 13.0988C8.97429 14.7746 9.89692 16.2768 11.2876 17.2396C11.231 17.3113 11.1783 17.3859 11.1297 17.463C9.45206 17.4111 7.911 16.5252 7.0218 15.1017C7.47154 14.3364 8.055 13.6583 8.7444 13.0993V13.0988ZM7.63869 23.4591C9.31372 23.2274 10.8152 22.3045 11.7784 20.9144C11.8504 20.971 11.9253 21.0237 12.0027 21.0726C11.9502 22.7502 11.0641 24.2907 9.64081 25.1802C8.87606 24.7309 8.19797 24.1483 7.63869 23.4596V23.4591ZM17.9964 24.5651C17.7665 22.8893 16.8439 21.3871 15.4533 20.4243C15.5099 20.3526 15.5626 20.2777 15.6112 20.2003C17.2888 20.2528 18.8298 21.1387 19.719 22.5625C19.2693 23.3277 18.6858 24.0061 17.9964 24.5651Z" fill="#DB4661"/>
<path d="M13.3705 8.2998C7.55339 8.2998 2.83789 13.0153 2.83789 18.8324C2.83789 24.6493 7.55339 29.365 13.3705 29.365C19.1876 29.365 23.9031 24.6493 23.9031 18.8324C23.8964 13.0181 19.1848 8.30649 13.3705 8.2998ZM13.3705 28.3118C8.13531 28.3118 3.89115 24.0676 3.89115 18.8324C3.89115 13.597 8.13531 9.35307 13.3705 9.35307C18.6057 9.35307 22.8498 13.597 22.8498 18.8324C22.8437 24.065 18.6034 28.3056 13.3705 28.3118Z" fill="#DB4661"/>
<path d="M30.2227 0.927081H29.1695C28.297 0.927081 27.5896 1.63423 27.5896 2.50697V4.13932L20.7323 4.84621L19.8218 3.10457L19.9218 3.07552C20.4803 2.91274 20.801 2.328 20.638 1.76948L20.3433 0.757881C20.18 0.199622 19.5955 -0.120779 19.0372 0.0422502L8.92585 2.99143C8.36733 3.1542 8.04667 3.73895 8.2097 4.29746L8.50465 5.30906C8.66767 5.86732 9.25242 6.18772 9.81068 6.0247L11.4109 5.55824L11.5305 5.79789C4.56726 6.7807 -0.394323 13.0622 0.262422 20.064C0.919166 27.0655 6.9623 32.3148 13.9869 31.9857C21.0116 31.6565 26.5374 25.8646 26.5363 18.8325C26.5425 17.0191 26.1676 15.225 25.4358 13.5662H27.5896V16.1994C27.5896 17.0718 28.297 17.7792 29.1695 17.7792H30.2227C31.0952 17.7792 31.8026 17.0718 31.8026 16.1994V2.50697C31.8026 1.63423 31.0952 0.927081 30.2227 0.927081ZM9.51573 5.01361L9.22079 4.00252L19.3319 1.05334L19.6274 2.06443L9.51573 5.01361ZM18.7901 3.40595L19.6037 4.96244C16.4383 5.28849 13.6154 5.57881 12.6475 5.67627L12.4369 5.25841L18.7901 3.40595ZM24.2745 13.5662C25.0763 15.2055 25.49 17.0076 25.4831 18.8325C25.4831 25.3933 20.2595 30.7611 13.7013 30.9404C7.14307 31.1193 1.63428 26.0444 1.27608 19.4934C0.918138 12.9426 5.84064 7.2973 12.3795 6.76038C12.6333 6.74058 21.0335 5.87427 25.4831 5.41501V12.5129H23.3765V13.5662H24.2745ZM26.5363 12.5129V5.30598L27.5896 5.19695V12.5129H26.5363ZM30.7494 16.1994C30.7494 16.4902 30.5136 16.726 30.2227 16.726H29.1695C28.8786 16.726 28.6428 16.4902 28.6428 16.1994V2.50697C28.6428 2.21614 28.8786 1.98034 29.1695 1.98034H30.2227C30.5136 1.98034 30.7494 2.21614 30.7494 2.50697V16.1994Z" fill="#DB4661"/>
</g>
<defs>
<clipPath id="clip0_3452_918">
<rect width="32" height="32" fill="white"/>
</clipPath>
</defs>
</svg>
