<svg width="32" height="32" viewBox="0 0 32 32" fill="none" xmlns="http://www.w3.org/2000/svg">
<g clip-path="url(#clip0_3452_940)">
<path d="M16 0C7.16354 0 0 7.16354 0 16C0 24.8365 7.16354 32 16 32C24.8365 32 32 24.8365 32 16C31.9901 7.16771 24.8323 0.00989587 16 0ZM16 30.9333C7.7526 30.9333 1.06667 24.2474 1.06667 16C1.06667 7.7526 7.7526 1.06667 16 1.06667C24.2474 1.06667 30.9333 7.7526 30.9333 16C30.924 24.2435 24.2435 30.924 16 30.9333Z" fill="#DB4661"/>
<path d="M18.1334 17.0665C18.1334 16.146 16.7792 11.8819 16.5078 11.0366C16.4357 10.8178 16.2315 10.6699 16.0011 10.6699C15.7706 10.6699 15.5664 10.8178 15.4943 11.0366C15.2209 11.8819 13.8667 16.146 13.8667 17.0665C13.8667 18.2447 14.8219 19.1999 16 19.1999C17.1782 19.1999 18.1334 18.2447 18.1334 17.0665ZM14.9334 17.0665C15.1946 15.6842 15.5511 14.3217 16 12.9887C16.449 14.3217 16.8055 15.6842 17.0667 17.0665C17.0667 17.6556 16.5891 18.1332 16 18.1332C15.411 18.1332 14.9334 17.6556 14.9334 17.0665Z" fill="#DB4661"/>
<path d="M19.7334 26.6666H19.2001V20.7999C19.2001 20.5054 18.9613 20.2666 18.6667 20.2666H13.3334C13.0389 20.2666 12.8001 20.5054 12.8001 20.7999V26.6666H12.2667C11.9722 26.6666 11.7334 26.9054 11.7334 27.1999V29.3333C11.7334 29.6278 11.9722 29.8666 12.2667 29.8666H19.7334C20.0279 29.8666 20.2667 29.6278 20.2667 29.3333V27.1999C20.2667 26.9054 20.0279 26.6666 19.7334 26.6666ZM13.8667 21.3333H18.1334V26.6666H13.8667V21.3333ZM19.2001 28.7999H12.8001V27.7333H19.2001V28.7999Z" fill="#DB4661"/>
<path d="M15.9999 21.8667C15.1163 21.8667 14.3999 22.5831 14.3999 23.4667C14.3999 24.1482 15.2116 25.398 15.5608 25.9029C15.6606 26.0472 15.8246 26.1334 15.9999 26.1334C16.1752 26.1334 16.3392 26.0472 16.439 25.9029C16.7882 25.398 17.5999 24.1482 17.5999 23.4667C17.5999 22.5831 16.8835 21.8667 15.9999 21.8667ZM15.9999 24.6112C15.7621 24.2607 15.5822 23.8743 15.4666 23.4667C15.4666 23.1722 15.7054 22.9334 15.9999 22.9334C16.2944 22.9334 16.5332 23.1722 16.5332 23.4667C16.4171 23.874 16.2371 24.2602 15.9999 24.6112Z" fill="#DB4661"/>
<path d="M16.0002 4.2666C11.2585 4.31322 7.00146 7.18249 5.17906 11.5601C3.3564 15.9377 4.31943 20.9801 7.62672 24.3781C7.83505 24.5856 8.17177 24.5856 8.37984 24.3781L11.4785 21.2794C11.6869 21.071 11.6869 20.7335 11.4785 20.5252C8.97828 18.0262 8.9775 13.9734 11.477 11.4734C13.9765 8.97363 18.0293 8.97363 20.5288 11.4734C23.0283 13.9734 23.0275 18.0262 20.527 20.5252C20.3189 20.7335 20.3189 21.071 20.527 21.2794L23.6257 24.3781C23.834 24.5856 24.1707 24.5856 24.3788 24.3781C27.6869 20.9796 28.6494 15.9356 26.8257 11.5577C25.0017 7.17962 20.7426 4.31113 16.0002 4.2666ZM23.4434 16.5333H26.6434C26.5869 18.0499 26.2184 19.5387 25.5606 20.9067L22.7202 19.2624C23.1337 18.4075 23.3793 17.4809 23.4434 16.5333ZM23.4397 15.4666C23.3731 14.5202 23.1249 13.5955 22.7085 12.7429L25.4817 11.1429C26.1715 12.4851 26.5663 13.9593 26.6397 15.4666H23.4397ZM15.4668 8.56035C14.5205 8.62702 13.5957 8.8752 12.7431 9.2916L11.1431 6.51842C12.4853 5.82858 13.9595 5.43379 15.4668 5.36035V8.56035ZM16.5335 5.36035C18.0416 5.43275 19.5168 5.82676 20.8598 6.51608L19.2572 9.28952C18.4046 8.87389 17.4798 8.6265 16.5335 8.56035V5.36035ZM8.55693 16.5333C8.62177 17.4812 8.86812 18.4075 9.28271 19.2624L6.43922 20.9067C5.7814 19.5387 5.41291 18.0499 5.3564 16.5333H8.55693ZM8.56057 15.4666H5.36057C5.43297 13.9585 5.82698 12.4833 6.5163 11.1403L9.28974 12.7403C8.87385 13.5937 8.6262 14.5195 8.56057 15.4666ZM8.00927 23.2367C7.61916 22.801 7.26812 22.332 6.96005 21.8351L9.82203 20.1817C9.98583 20.427 10.164 20.6624 10.3554 20.8869L8.00927 23.2367ZM9.81943 11.8158L7.05041 10.2158C7.87151 8.94941 8.95068 7.87025 10.2173 7.04889L11.8173 9.81868C11.0311 10.3523 10.3533 11.0299 9.81943 11.8158ZM20.1843 9.81973L21.7843 7.0502C23.0507 7.87129 24.1298 8.95046 24.9512 10.2171L22.1819 11.8171C21.6481 11.0309 20.9702 10.3533 20.1843 9.81973ZM23.991 23.2367L21.6444 20.89C21.8358 20.6658 22.014 20.4301 22.1778 20.1851L25.0397 21.8382C24.7317 22.334 24.3806 22.802 23.991 23.2367Z" fill="#DB4661"/>
</g>
<defs>
<clipPath id="clip0_3452_940">
<rect width="32" height="32" fill="white"/>
</clipPath>
</defs>
</svg>
