<svg width="32" height="32" viewBox="0 0 32 32" fill="none" xmlns="http://www.w3.org/2000/svg">
<g clip-path="url(#clip0_3452_948)">
<path d="M15.993 19.1998C17.7602 19.1998 19.193 17.767 19.193 15.9998C19.193 14.2326 17.7602 12.7998 15.993 12.7998C14.2255 12.7998 12.793 14.2326 12.793 15.9998C12.7948 17.7665 14.2263 19.198 15.993 19.1998ZM15.993 13.8665C17.1711 13.8665 18.1263 14.8217 18.1263 15.9998C18.1263 17.1779 17.1711 18.1331 15.993 18.1331C14.8148 18.1331 13.8596 17.1779 13.8596 15.9998C13.8596 14.8217 14.8148 13.8665 15.993 13.8665Z" fill="#DB4661"/>
<path d="M9.85962 14.72C10.5208 15.101 11.3594 14.9617 11.862 14.3874C12.3648 13.8132 12.3919 12.9638 11.9271 12.3585C11.462 11.7536 10.6341 11.5609 9.94999 11.8989C9.26561 12.2369 8.91509 13.0111 9.11301 13.7481C9.22212 14.1588 9.49087 14.5088 9.85962 14.72ZM10.1982 13.0666C10.2685 12.944 10.3849 12.8544 10.5213 12.8182C10.5667 12.8062 10.613 12.7999 10.6596 12.7999C10.7534 12.7997 10.8453 12.8244 10.9263 12.8713C11.1815 13.0184 11.2693 13.3447 11.1221 13.5999C10.9747 13.8552 10.6484 13.9427 10.3932 13.7955C10.1383 13.6481 10.0508 13.3218 10.1982 13.0666Z" fill="#DB4661"/>
<path d="M9.85956 17.8131C9.09446 18.2551 8.83248 19.2334 9.27415 19.9985C9.71581 20.7636 10.6939 21.0259 11.459 20.5847C12.2244 20.1433 12.4872 19.1652 12.0463 18.3999C11.8364 18.0295 11.4866 17.759 11.0757 17.6488C10.6648 17.5384 10.2265 17.5978 9.85956 17.8131ZM11.1752 19.3368C11.1093 19.5827 10.8791 19.7478 10.6252 19.7311C10.3713 19.7144 10.1645 19.5207 10.1314 19.2686C10.0981 19.0163 10.2476 18.7756 10.4887 18.6939C10.7296 18.6121 10.9947 18.7118 11.1221 18.9321C11.1929 19.0548 11.2122 19.2009 11.1752 19.3379V19.3368Z" fill="#DB4661"/>
<path d="M15.9926 20.2664C15.109 20.2664 14.3926 20.9828 14.3926 21.8664C14.3926 22.75 15.109 23.4664 15.9926 23.4664C16.8762 23.4664 17.5926 22.75 17.5926 21.8664C17.5926 20.9828 16.8762 20.2664 15.9926 20.2664ZM15.9926 22.3997C15.698 22.3997 15.4592 22.1609 15.4592 21.8664C15.4592 21.5718 15.698 21.333 15.9926 21.333C16.2871 21.333 16.5259 21.5718 16.5259 21.8664C16.5259 22.1609 16.2871 22.3997 15.9926 22.3997Z" fill="#DB4661"/>
<path d="M22.1262 17.813C21.3603 17.3714 20.3814 17.6339 19.9395 18.3998C19.4978 19.1656 19.7603 20.1446 20.5262 20.5865C21.2921 21.0281 22.271 20.7656 22.7129 19.9998C23.1546 19.2339 22.8921 18.255 22.1262 17.813ZM21.7879 19.4664C21.6609 19.6867 21.3958 19.7865 21.1546 19.7047C20.9137 19.6229 20.7642 19.3823 20.7976 19.13C20.8307 18.8776 21.0374 18.6841 21.2913 18.6675C21.5452 18.6508 21.7754 18.8159 21.8413 19.0617C21.878 19.1982 21.8588 19.344 21.7879 19.4664Z" fill="#DB4661"/>
<path d="M21.0758 14.6666C21.3567 14.6674 21.6328 14.5937 21.8758 14.4533C22.5718 14.0528 22.863 13.1984 22.5565 12.4562C22.2502 11.714 21.4411 11.3138 20.6653 11.5205C19.8896 11.7276 19.3872 12.4773 19.4911 13.2736C19.595 14.0697 20.2729 14.6658 21.0758 14.6666ZM20.8091 12.6052C21.0648 12.4591 21.3906 12.5476 21.537 12.8031C21.6833 13.0588 21.5948 13.3846 21.339 13.5309C21.0836 13.6773 20.7578 13.5888 20.6114 13.3333C20.5398 13.2109 20.52 13.0651 20.5567 12.9283C20.5935 12.7914 20.6833 12.6749 20.8065 12.6046L20.8091 12.6052Z" fill="#DB4661"/>
<path d="M29.3756 7.24732L29.7597 6.70983C29.8246 6.61946 29.8595 6.51113 29.8595 6.39993C29.8595 2.81117 23.7684 0 15.993 0C8.21751 0 2.12643 2.81117 2.12643 6.39993C2.12643 6.51113 2.16132 6.61946 2.22616 6.70983L2.61001 7.24732C-1.13109 12.9665 -0.825368 20.431 3.37068 25.8253C7.56674 31.2197 14.7263 33.3523 21.1903 31.1333C27.6543 28.9143 31.9946 22.8341 31.9928 15.9998C31.9975 12.8889 31.0873 9.84521 29.3756 7.24732ZM15.993 1.06666C22.8015 1.06666 28.5725 3.41819 28.7863 6.24004L26.3863 9.5999H24.1705L24.0312 9.49313C24.1653 9.35511 24.2884 9.20667 24.3994 9.04938C24.4408 9.06006 24.4832 9.06579 24.5262 9.06657H25.8371C26.0095 9.06657 26.1712 8.98324 26.2712 8.84314L28.0845 6.30488C28.1871 6.16139 28.2121 5.97676 28.1512 5.81114C27.3874 3.74085 22.6322 1.59998 15.993 1.59998C9.35344 1.59998 4.59828 3.74085 3.8363 5.81322C3.77537 5.97884 3.80037 6.16374 3.90297 6.30723L5.71623 8.84522C5.81623 8.98558 5.97795 9.06866 6.15034 9.06866H7.4597C7.50215 9.06866 7.54434 9.06345 7.58548 9.05381C7.69642 9.2111 7.8196 9.35954 7.95345 9.49756L7.81439 9.60407H5.60113L3.20115 6.24421C3.41339 3.41819 9.18443 1.06666 15.993 1.06666ZM15.993 25.5997C10.6935 25.5935 6.3993 21.2993 6.39305 15.9998C6.38966 14.0967 6.95893 12.2363 8.02715 10.6613C8.13027 10.6559 8.22949 10.6207 8.31308 10.5598L8.8261 10.1759C8.87948 10.2059 8.93287 10.235 8.98599 10.2624C5.95503 13.9548 6.3092 19.3659 9.79588 22.6321C13.2826 25.8979 18.7054 25.8979 22.1921 22.6321C25.6788 19.3659 26.033 13.9548 23.002 10.2624C23.0554 10.235 23.1085 10.2059 23.1619 10.1759L23.6749 10.5598C23.7585 10.6205 23.8577 10.6554 23.9608 10.6606C25.0283 12.2363 25.597 14.0967 25.5929 15.9998C25.5866 21.2993 21.2924 25.5935 15.993 25.5997ZM10.6597 10.6666C11.9485 10.6619 13.1443 9.99573 13.8271 8.90277C14.075 9.07438 14.3438 9.21345 14.6271 9.31605C14.476 9.56214 14.3951 9.84469 14.393 10.1332C14.393 11.0168 15.1094 11.7332 15.993 11.7332C16.8765 11.7332 17.5929 11.0168 17.5929 10.1332C17.5916 9.84469 17.5112 9.5624 17.3609 9.31605C17.6442 9.21345 17.913 9.07438 18.1609 8.90277C18.8432 9.99521 20.0382 10.6611 21.3262 10.6666C21.5156 10.665 21.7046 10.6488 21.8916 10.6181C24.8147 13.8087 24.671 18.7456 21.5666 21.7607C18.4625 24.7758 13.5234 24.7758 10.4191 21.7607C7.31492 18.7456 7.17091 13.8087 10.0943 10.6181C10.2813 10.6488 10.4704 10.665 10.6597 10.6666ZM15.993 9.5999C16.2875 9.5999 16.5263 9.8387 16.5263 10.1332C16.5263 10.4278 16.2875 10.6666 15.993 10.6666C15.6984 10.6666 15.4596 10.4278 15.4596 10.1332C15.4596 9.8387 15.6984 9.5999 15.993 9.5999ZM23.7348 8.07622C23.2746 9.0434 22.2806 9.64157 21.2109 9.59495C20.1408 9.54834 19.2023 8.86631 18.8281 7.86294C18.7635 7.68976 18.6138 7.56268 18.4325 7.52648C18.2515 7.49055 18.0645 7.5507 17.9385 7.68586C17.4362 8.22778 16.7307 8.53585 15.9919 8.53585C15.2529 8.53585 14.5474 8.22778 14.0453 7.68586C13.9193 7.5507 13.7323 7.49055 13.5511 7.52648C13.3698 7.56268 13.2203 7.68976 13.1557 7.86294C12.7813 8.86631 11.843 9.54834 10.773 9.59495C9.70291 9.64157 8.70891 9.0434 8.24902 8.07622C8.18079 7.93195 8.05137 7.8257 7.89642 7.7869C7.74147 7.74836 7.57715 7.78091 7.44903 7.87622L7.28419 7.99992H6.42456L4.95296 5.94291C5.83134 4.52625 9.98338 2.66664 15.993 2.66664C22.0025 2.66664 26.1543 4.52625 27.0329 5.94291L25.5613 7.99992H24.7017L24.5353 7.87622C24.4069 7.78091 24.2429 7.74836 24.0879 7.7869C23.933 7.8257 23.8035 7.93195 23.7353 8.07622H23.7348ZM15.993 30.933C10.5834 30.9372 5.59514 28.0132 2.9561 23.2912C0.316808 18.5688 0.439984 12.7881 3.27798 8.18273L4.8928 10.4431C4.9928 10.5832 5.15426 10.6663 5.32639 10.6666H6.7631C5.95399 12.0527 5.47275 13.6058 5.35686 15.2069C4.42224 14.7261 3.64724 13.9853 3.12485 13.0736L2.19465 13.5952C2.91053 14.8405 4.01833 15.8142 5.34514 16.3647C5.45894 19.7602 7.18497 22.8982 9.99197 24.8125C9.10943 25.388 8.07689 25.6901 7.02351 25.6807L7.01075 26.7474H7.07299C8.48469 26.7354 9.85421 26.2656 10.9758 25.4088C13.975 27.019 17.5656 27.088 20.6244 25.5945C20.6786 26.6487 20.4242 27.6958 19.8921 28.6078L20.8083 29.1539C21.5291 27.9104 21.8187 26.4638 21.6317 25.0388C24.514 23.2406 26.3665 20.1764 26.6194 16.7886C27.5579 17.2696 28.3361 18.0131 28.8595 18.9284L29.7897 18.4068C29.0743 17.1628 27.9681 16.1899 26.6428 15.6394C26.5902 13.8894 26.1022 12.1803 25.2228 10.6666H26.6595C26.8316 10.6663 26.9931 10.5832 27.0931 10.4431L28.7079 8.18273C31.5459 12.7881 31.6691 18.5688 29.0298 23.2912C26.3908 28.0132 21.4025 30.9372 15.993 30.933Z" fill="#DB4661"/>
</g>
<defs>
<clipPath id="clip0_3452_948">
<rect width="32" height="32" fill="white"/>
</clipPath>
</defs>
</svg>
