<svg width="32" height="32" viewBox="0 0 32 32" fill="none" xmlns="http://www.w3.org/2000/svg">
<g clip-path="url(#clip0_3452_958)">
<path d="M16 0C7.16347 0 0 7.16347 0 16C0 24.8365 7.16347 32 16 32C24.8365 32 32 24.8365 32 16C31.99 7.1676 24.8324 0.01 16 0ZM30.3552 20.1035L29.3531 19.7776L29.0229 20.7909L30.0293 21.1179C29.6131 22.2533 29.0604 23.3339 28.3835 24.336L27.5301 23.7173L26.9029 24.5803L27.7499 25.1957C27.0045 26.1471 26.1475 27.0053 25.1973 27.752L24.5819 26.9051L23.7189 27.5323L24.3376 28.3856C23.3356 29.0618 22.2551 29.6137 21.12 30.0293L20.7931 29.0229L19.7797 29.3531L20.1056 30.3552C18.9423 30.6883 17.7427 30.8779 16.5333 30.92V29.8667H15.4667V30.92C14.2581 30.8778 13.0591 30.6881 11.8965 30.3552L12.2224 29.3531L11.2091 29.0229L10.88 30.0293C9.7446 29.6131 8.66393 29.0604 7.66187 28.3835L8.28053 27.5301L7.4176 26.9029L6.80213 27.7499C5.85127 27.0038 4.99353 26.1461 4.24747 25.1952L5.0944 24.5797L4.4672 23.7168L3.61387 24.3355C2.93893 23.3339 2.38807 22.2543 1.97333 21.12L2.97973 20.7931L2.6496 19.7797L1.64747 20.1056C1.31347 18.9424 1.12293 17.7427 1.08 16.5333H2.13333V15.4667H1.08C1.1222 14.2581 1.31187 13.0591 1.6448 11.8965L2.64693 12.2224L2.97707 11.2091L1.97333 10.88C2.3896 9.7446 2.94227 8.66393 3.6192 7.66187L4.47253 8.28053L5.09973 7.4176L4.248 6.80267C4.99407 5.8518 5.8518 4.99407 6.80267 4.248L7.41813 5.09493L8.28107 4.46773L7.6624 3.6144C8.66453 2.93913 9.745 2.38807 10.88 1.97333L11.2069 2.97973L12.2203 2.6496L11.8944 1.64747C13.0576 1.31347 14.2573 1.12293 15.4667 1.08V2.13333H16.5333V1.08C17.7419 1.1222 18.9409 1.31187 20.1035 1.6448L19.7776 2.64693L20.7909 2.97707L21.12 1.97333C22.2554 2.3896 23.3361 2.94227 24.3381 3.6192L23.7195 4.47253L24.5824 5.09973L25.1979 4.2528C26.1487 4.99887 27.0065 5.8566 27.7525 6.80747L26.9056 7.42293L27.5328 8.28587L28.3861 7.6672C29.0618 8.66773 29.6135 9.74653 30.0293 10.88L29.0229 11.2069L29.3531 12.2203L30.3552 11.8944C30.6883 13.0577 30.8779 14.2573 30.92 15.4667H29.8667V16.5333H30.92C30.8778 17.7419 30.6881 18.9409 30.3552 20.1035Z" fill="#DB4661"/>
<path d="M15.9999 4.2666C9.5198 4.2666 4.2666 9.5198 4.2666 15.9999C4.2666 22.4801 9.5198 27.7333 15.9999 27.7333C22.4801 27.7333 27.7333 22.4801 27.7333 15.9999C27.7259 9.52287 22.477 4.27393 15.9999 4.2666ZM15.9999 26.6666C10.1089 26.6666 5.33327 21.891 5.33327 15.9999C5.33327 10.1089 10.1089 5.33327 15.9999 5.33327C21.891 5.33327 26.6666 10.1089 26.6666 15.9999C26.6599 21.8881 21.8882 26.6599 15.9999 26.6666Z" fill="#DB4661"/>
<path d="M15.9998 6.93335C10.9924 6.93335 6.93311 10.9926 6.93311 16C6.93311 21.0074 10.9924 25.0667 15.9998 25.0667C21.0072 25.0667 25.0664 21.0074 25.0664 16C25.0608 10.9949 21.0048 6.93895 15.9998 6.93335ZM22.8579 11.9024C23.478 12.9317 23.856 14.0885 23.9635 15.2853L20.6232 15.0155C20.3297 14.9908 20.1118 14.7328 20.1365 14.4393C20.1482 14.3002 20.214 14.1712 20.3198 14.08L22.8579 11.9024ZM17.7806 8.20695L16.492 11.3003C16.3787 11.5721 16.0664 11.7007 15.7946 11.5873C15.6648 11.5332 15.5616 11.4301 15.5075 11.3003L14.219 8.20695C15.3902 7.93102 16.6094 7.93102 17.7806 8.20695ZM9.14164 11.9023L11.6798 14.08C11.9034 14.2717 11.9293 14.6084 11.7376 14.832C11.6461 14.9388 11.516 15.0051 11.3758 15.0165L8.03551 15.2864C8.14297 14.0891 8.52124 12.9319 9.14164 11.9023ZM13.6328 20.0928L12.8584 23.3557C11.755 22.8794 10.7726 22.1617 9.98324 21.2555H9.98164L12.836 19.5141C13.0874 19.3606 13.4156 19.4399 13.5692 19.6913C13.6426 19.8115 13.6654 19.9558 13.6328 20.0928ZM19.1411 23.3557H19.1395L18.3635 20.0928C18.2953 19.8063 18.4723 19.5187 18.7588 19.4505C18.8958 19.4179 19.0401 19.4407 19.1603 19.5141L22.0147 21.2555C21.2258 22.1615 20.2439 22.8792 19.1411 23.3557ZM19.7171 18.6032C18.9628 18.1429 17.9782 18.3813 17.5179 19.1356C17.298 19.4961 17.2294 19.9289 17.3272 20.3397L18.1272 23.704C16.736 24.0987 15.2624 24.0987 13.8712 23.704H13.8702L14.6702 20.3397C14.8746 19.4801 14.3434 18.6174 13.4836 18.413C13.073 18.3154 12.6406 18.3839 12.2803 18.6037L9.32884 20.4053C8.53191 19.2001 8.07871 17.8004 8.01791 16.3568L11.4622 16.0784C12.3428 16.0062 12.9982 15.2337 12.926 14.353C12.8916 13.9331 12.6929 13.5437 12.3731 13.2693L9.74911 11.0187C10.6508 9.89055 11.8401 9.02662 13.1918 8.51788L14.5208 11.7088C14.8605 12.5245 15.7972 12.9105 16.613 12.5708C17.0028 12.4085 17.3126 12.0986 17.475 11.7088L18.8046 8.51788C20.1561 9.02675 21.3454 9.89068 22.2472 11.0187L19.6264 13.2693C18.9558 13.8447 18.8786 14.8549 19.454 15.5255C19.7286 15.8456 20.1186 16.0443 20.539 16.0784L23.9832 16.3568C23.9224 17.8004 23.4692 19.2001 22.6723 20.4053L19.7171 18.6032Z" fill="#DB4661"/>
<path d="M16 13.8667C14.8218 13.8667 13.8667 14.8218 13.8667 16C13.8667 17.1782 14.8218 18.1334 16 18.1334C17.1782 18.1334 18.1334 17.1782 18.1334 16C18.1334 14.8218 17.1782 13.8667 16 13.8667ZM16 17.0667C15.4109 17.0667 14.9334 16.5892 14.9334 16C14.9334 15.4109 15.4109 14.9334 16 14.9334C16.5892 14.9334 17.0667 15.4109 17.0667 16C17.0667 16.5892 16.5892 17.0667 16 17.0667Z" fill="#DB4661"/>
</g>
<defs>
<clipPath id="clip0_3452_958">
<rect width="32" height="32" fill="white"/>
</clipPath>
</defs>
</svg>
