<svg width="32" height="32" viewBox="0 0 32 32" fill="none" xmlns="http://www.w3.org/2000/svg">
<g clip-path="url(#clip0_3452_972)">
<path d="M15.9998 12.8C14.2326 12.8 12.7998 14.2329 12.7998 16C12.7998 17.7672 14.2326 19.2 15.9998 19.2C17.767 19.2 19.1998 17.7672 19.1998 16C19.198 14.2334 17.7665 12.8019 15.9998 12.8ZM15.9998 18.1334C14.8217 18.1334 13.8665 17.1782 13.8665 16C13.8665 14.8219 14.8217 13.8667 15.9998 13.8667C17.1779 13.8667 18.1331 14.8219 18.1331 16C18.1331 17.1782 17.1779 18.1334 15.9998 18.1334Z" fill="#DB4661"/>
<path d="M15.9999 11.7332C16.8835 11.7332 17.5999 11.0168 17.5999 10.1332C17.5999 9.24961 16.8835 8.5332 15.9999 8.5332C15.1163 8.5332 14.3999 9.24961 14.3999 10.1332C14.3999 11.0168 15.1163 11.7332 15.9999 11.7332ZM15.9999 9.59987C16.2944 9.59987 16.5332 9.83867 16.5332 10.1332C16.5332 10.4277 16.2944 10.6665 15.9999 10.6665C15.7054 10.6665 15.4666 10.4277 15.4666 10.1332C15.4666 9.83867 15.7054 9.59987 15.9999 9.59987Z" fill="#DB4661"/>
<path d="M21.3332 14.9334H21.3444C22.228 14.9303 22.9418 14.2115 22.939 13.3277C22.9359 12.4441 22.2168 11.7303 21.3332 11.7334H21.3226C20.439 11.7363 19.7249 12.455 19.728 13.3386C19.7309 14.2225 20.4497 14.9363 21.3332 14.9334ZM21.3301 12.8001H21.3332C21.6278 12.799 21.8674 13.0371 21.8684 13.3316C21.8694 13.6261 21.6314 13.8657 21.3369 13.8667H21.3332C21.0387 13.8678 20.7991 13.6298 20.7981 13.3352C20.797 13.0407 21.0351 12.8011 21.3296 12.8001H21.3301Z" fill="#DB4661"/>
<path d="M21.3334 17.6001C20.4498 17.6001 19.7334 18.3165 19.7334 19.2001C19.7334 20.0837 20.4498 20.8001 21.3334 20.8001C22.217 20.8001 22.9334 20.0837 22.9334 19.2001C22.9334 18.3165 22.217 17.6001 21.3334 17.6001ZM21.3334 19.7334C21.0389 19.7334 20.8001 19.4946 20.8001 19.2001C20.8001 18.9056 21.0389 18.6668 21.3334 18.6668C21.6279 18.6668 21.8667 18.9056 21.8667 19.2001C21.8667 19.4946 21.6279 19.7334 21.3334 19.7334Z" fill="#DB4661"/>
<path d="M15.9999 20.2666C15.1163 20.2666 14.3999 20.983 14.3999 21.8666C14.3999 22.7502 15.1163 23.4666 15.9999 23.4666C16.8835 23.4666 17.5999 22.7502 17.5999 21.8666C17.5999 20.983 16.8835 20.2666 15.9999 20.2666ZM15.9999 22.3999C15.7054 22.3999 15.4666 22.1611 15.4666 21.8666C15.4666 21.5721 15.7054 21.3333 15.9999 21.3333C16.2944 21.3333 16.5332 21.5721 16.5332 21.8666C16.5332 22.1611 16.2944 22.3999 15.9999 22.3999Z" fill="#DB4661"/>
<path d="M10.6669 17.6001C9.7833 17.6001 9.06689 18.3165 9.06689 19.2001C9.06689 20.0837 9.7833 20.8001 10.6669 20.8001C11.5505 20.8001 12.2669 20.0837 12.2669 19.2001C12.2669 18.3165 11.5505 17.6001 10.6669 17.6001ZM10.6669 19.7334C10.3724 19.7334 10.1336 19.4946 10.1336 19.2001C10.1336 18.9056 10.3724 18.6668 10.6669 18.6668C10.9614 18.6668 11.2002 18.9056 11.2002 19.2001C11.2002 19.4946 10.9614 19.7334 10.6669 19.7334Z" fill="#DB4661"/>
<path d="M10.6669 11.7334C9.7833 11.7334 9.06689 12.4498 9.06689 13.3334C9.06689 14.217 9.7833 14.9334 10.6669 14.9334C11.5505 14.9334 12.2669 14.217 12.2669 13.3334C12.2669 12.4498 11.5505 11.7334 10.6669 11.7334ZM10.6669 13.8667C10.3724 13.8667 10.1336 13.6279 10.1336 13.3334C10.1336 13.0389 10.3724 12.8001 10.6669 12.8001C10.9614 12.8001 11.2002 13.0389 11.2002 13.3334C11.2002 13.6279 10.9614 13.8667 10.6669 13.8667Z" fill="#DB4661"/>
<path d="M15.9999 6.3999C10.6981 6.3999 6.3999 10.6981 6.3999 15.9999C6.3999 21.3017 10.6981 25.5999 15.9999 25.5999C21.3017 25.5999 25.5999 21.3017 25.5999 15.9999C25.5937 10.7004 21.2994 6.40615 15.9999 6.3999ZM15.9999 24.5332C11.2871 24.5332 7.46657 20.7127 7.46657 15.9999C7.46657 11.2871 11.2871 7.46657 15.9999 7.46657C20.7127 7.46657 24.5332 11.2871 24.5332 15.9999C24.5278 20.7103 20.7103 24.5278 15.9999 24.5332Z" fill="#DB4661"/>
<path d="M31.4667 1.06667H30.4C30.2586 1.06667 30.1229 1.12292 30.0229 1.22292L26.1706 5.07526C24.7482 3.7513 23.0815 2.71693 21.2641 2.02943C21.0346 0.867188 20.1995 0 19.2 0C18.8161 0.00625 18.4443 0.134896 18.1385 0.366927C17.5096 -0.121094 16.6305 -0.122396 16 0.363802C15.3716 -0.121094 14.4951 -0.121094 13.8667 0.363802C13.5586 0.132552 13.1852 0.00520833 12.8 0C11.7807 0 10.9552 0.853385 10.7318 2.03047C8.91589 2.71823 7.25078 3.75234 5.82943 5.07526L1.97708 1.22292C1.87708 1.12292 1.74141 1.06667 1.6 1.06667H0.533333C0.238802 1.06667 0 1.30547 0 1.6V30.4C0 30.6945 0.238802 30.9333 0.533333 30.9333H1.6C1.74141 30.9333 1.87708 30.8771 1.97708 30.7771L5.82943 26.9247C7.25078 28.2477 8.91589 29.2818 10.7318 29.9695C10.9552 31.1466 11.7807 32 12.8 32C13.1852 31.9948 13.5586 31.8674 13.8667 31.6362C14.4951 32.1211 15.3716 32.1211 16 31.6362C16.6305 32.1224 17.5096 32.1211 18.1385 31.6331C18.4443 31.8651 18.8161 31.9938 19.2 32C20.1995 32 21.0346 31.1328 21.2651 29.9734C23.0826 29.2857 24.7492 28.2513 26.1716 26.9273L30.024 30.7797C30.1242 30.8786 30.2594 30.9339 30.4 30.9333H31.4667C31.7612 30.9333 32 30.6945 32 30.4V1.6C32 1.30547 31.7612 1.06667 31.4667 1.06667ZM19.2 1.06667C19.7781 1.06667 20.2667 1.79948 20.2667 2.66667C20.2667 3.53385 19.7781 4.26667 19.2 4.26667C18.6219 4.26667 18.1333 3.53385 18.1333 2.66667C18.1333 1.79948 18.6219 1.06667 19.2 1.06667ZM17.0667 1.06667C17.1961 1.06875 17.3224 1.10573 17.4326 1.17344C17.1885 1.63307 17.0628 2.14635 17.0667 2.66667C17.0628 3.18698 17.1885 3.70026 17.4326 4.1599C17.3224 4.2276 17.1961 4.26458 17.0667 4.26667C16.8073 4.2487 16.568 4.12031 16.4096 3.91406C16.1341 3.55755 15.9896 3.11719 16 2.66667C15.9896 2.21693 16.1336 1.77708 16.4081 1.42083C16.5664 1.21354 16.8065 1.08438 17.0667 1.06667ZM14.9333 1.06667C15.0628 1.06875 15.1891 1.10573 15.2992 1.17344C14.8115 2.10807 14.8115 3.22214 15.2992 4.15677C15.1893 4.22552 15.063 4.26354 14.9333 4.26667C14.674 4.2487 14.4346 4.12031 14.2763 3.91406C14.0008 3.55755 13.8563 3.11719 13.8667 2.66667C13.8563 2.21693 14.0003 1.77708 14.2747 1.42083C14.4331 1.21354 14.6732 1.08438 14.9333 1.06667ZM12.8 1.06667C12.9294 1.06875 13.0557 1.10573 13.1659 1.17344C12.6781 2.10807 12.6781 3.22214 13.1659 4.15677C13.056 4.22552 12.9297 4.26354 12.8 4.26667C12.2219 4.26667 11.7333 3.53385 11.7333 2.66667C11.7333 1.79948 12.2219 1.06667 12.8 1.06667ZM1.37917 29.8667H1.06667V2.13333H1.37917L6.20755 6.96172C1.4862 12.0625 1.4862 19.9375 6.20755 25.0383L1.37917 29.8667ZM11.7333 29.3333C11.7333 28.4661 12.2219 27.7333 12.8 27.7333C12.9294 27.7354 13.0557 27.7724 13.1659 27.8401C12.6781 28.7747 12.6781 29.8888 13.1659 30.8234C13.056 30.8922 12.9297 30.9302 12.8 30.9333C12.2219 30.9333 11.7333 30.2005 11.7333 29.3333ZM14.2763 30.5807C13.7313 29.8391 13.7313 28.8292 14.2763 28.0875C14.4344 27.8805 14.6737 27.7516 14.9333 27.7333C15.0628 27.7354 15.1891 27.7724 15.2992 27.8401C14.8115 28.7747 14.8115 29.8888 15.2992 30.8234C15.1893 30.8922 15.063 30.9302 14.9333 30.9333C14.674 30.9154 14.4346 30.787 14.2763 30.5807ZM16.4096 30.5807C15.8646 29.8391 15.8646 28.8292 16.4096 28.0875C16.5677 27.8805 16.807 27.7516 17.0667 27.7333C17.1961 27.7354 17.3224 27.7724 17.4326 27.8401C16.9448 28.7747 16.9448 29.8888 17.4326 30.8234C17.3227 30.8922 17.1964 30.9302 17.0667 30.9333C16.8073 30.9154 16.568 30.787 16.4096 30.5807ZM19.2 30.9333C18.6219 30.9333 18.1333 30.2005 18.1333 29.3333C18.1333 28.4661 18.6219 27.7333 19.2 27.7333C19.7781 27.7333 20.2667 28.4661 20.2667 29.3333C20.2667 30.2005 19.7781 30.9333 19.2 30.9333ZM21.2917 28.8188C21.0992 27.594 20.2352 26.6667 19.2 26.6667C18.8161 26.6729 18.4443 26.8016 18.1385 27.0336C17.5096 26.5456 16.6305 26.5443 16 27.0305C15.3716 26.5456 14.4951 26.5456 13.8667 27.0305C13.5586 26.7992 13.1852 26.6719 12.8 26.6667C11.7456 26.6667 10.8943 27.5781 10.7073 28.8182C9.18724 28.1859 7.79089 27.2896 6.58359 26.1706L7.33021 25.424C7.43021 25.324 7.48646 25.1883 7.48646 25.0466C7.48646 24.9052 7.43021 24.7693 7.33021 24.6693C5.0276 22.3729 3.73333 19.2547 3.73333 16.0026C3.73333 12.7508 5.0276 9.63229 7.33021 7.33594C7.43021 7.23594 7.48646 7.10026 7.48646 6.95859C7.48646 6.81719 7.43021 6.68125 7.33021 6.58125L6.58359 5.83464C7.79089 4.71563 9.18724 3.81927 10.7073 3.18724C10.8943 4.42188 11.7456 5.33333 12.8 5.33333C13.1852 5.32813 13.5586 5.20078 13.8667 4.96953C14.4951 5.45443 15.3716 5.45443 16 4.96953C16.6305 5.45573 17.5096 5.45443 18.1385 4.96641C18.4443 5.19844 18.8161 5.32708 19.2 5.33333C20.2352 5.33333 21.0992 4.40599 21.2917 3.18125C22.812 3.8138 24.2086 4.71016 25.4164 5.82943L24.6698 6.57604C24.5698 6.67604 24.5135 6.81172 24.5135 6.95339C24.5135 7.09479 24.5698 7.23073 24.6698 7.33073C26.9724 9.62708 28.2667 12.7453 28.2667 15.9974C28.2667 19.2492 26.9724 22.3677 24.6698 24.6641C24.5698 24.7641 24.5135 24.8997 24.5135 25.0414C24.5135 25.1828 24.5698 25.3188 24.6698 25.4188L25.4164 26.1654C24.2089 27.2862 22.8125 28.1846 21.2917 28.8188ZM30.9333 29.8667H30.6208L25.7924 25.0383C30.5138 19.9375 30.5138 12.0625 25.7924 6.96172L30.6208 2.13333H30.9333V29.8667Z" fill="#DB4661"/>
</g>
<defs>
<clipPath id="clip0_3452_972">
<rect width="32" height="32" fill="white"/>
</clipPath>
</defs>
</svg>
