<svg width="181" height="28" viewBox="0 0 181 28" fill="none" xmlns="http://www.w3.org/2000/svg">
<path fill-rule="evenodd" clip-rule="evenodd" d="M67.3819 9.70964V6.47017H79.7978V9.70964H75.3358V21.5013H71.9085V9.70964H67.3819ZM109.997 17.4196C108.962 18.197 107.798 18.521 106.763 18.521C104.048 18.521 102.237 16.6421 102.237 13.9857C102.237 11.0054 104.112 9.45048 106.44 9.45048C107.863 9.45048 108.703 9.90401 109.479 10.3575L110.967 7.76596C110.061 6.85891 108.38 6.21101 106.375 6.21101C101.202 6.21101 98.5509 9.64485 98.5509 13.9857C98.5509 18.6506 101.784 21.7605 106.375 21.7605C108.38 21.7605 110.32 21.0478 111.225 20.0111L109.997 17.4196ZM113.618 21.5013H122.736V18.2618H117.045V15.5407H121.831V12.3012H117.045V9.70964H122.477V6.47017H113.618V21.5013ZM9.95856 16.966C9.95856 20.1407 7.50125 21.5661 4.26795 21.5661C2.8453 21.5661 0.840657 21.5013 0 21.4365V6.53496C0.840657 6.47017 2.90997 6.40538 4.52662 6.40538C8.08324 6.40538 9.57056 8.02512 9.57056 10.1632C9.57056 11.7181 8.98857 12.7547 7.88925 13.5322V13.597C8.9239 13.9209 9.95856 15.0224 9.95856 16.966ZM3.4273 12.4308H4.52662C5.43194 12.4308 6.0786 12.0421 6.0786 11.0054C6.0786 10.0984 5.23794 9.64485 4.46195 9.64485C4.00929 9.64485 3.75063 9.70964 3.36263 9.70964V12.4308H3.4273ZM6.59593 16.7717C6.59593 15.7998 5.8846 15.4111 4.78528 15.4111H3.49196V18.197C3.75063 18.2618 4.00929 18.3266 4.65595 18.3266C5.8846 18.3266 6.59593 17.8083 6.59593 16.7717ZM47.7235 6.47017L53.9314 21.4365H50.2454L49.0168 18.2618H43.0675L41.8389 21.4365H38.4116L44.6842 6.47017H47.7235ZM47.7881 15.1519L46.1068 10.9406L44.4255 15.1519H47.7881ZM65.8946 16.966C65.8946 20.1407 63.4373 21.5661 60.204 21.5661C58.7814 21.5661 56.7767 21.5013 55.9361 21.4365V6.53496C56.7767 6.47017 58.846 6.40538 60.4627 6.40538C64.0193 6.40538 65.5066 8.02512 65.5066 10.1632C65.5066 11.7181 64.9246 12.7547 63.8253 13.5322V13.597C64.7953 13.9209 65.8946 15.0224 65.8946 16.966ZM59.2987 12.4308H60.4627C61.368 12.4308 62.0147 12.0421 62.0147 11.0054C62.0147 10.0984 61.174 9.64485 60.398 9.64485C59.9453 9.64485 59.6867 9.70964 59.2987 9.70964V12.4308ZM62.4673 16.7717C62.4673 15.7998 61.756 15.4111 60.6567 15.4111H59.3633V18.197C59.622 18.2618 59.8807 18.3266 60.5273 18.3266C61.756 18.3266 62.4673 17.8083 62.4673 16.7717ZM96.0936 13.9857C96.0936 18.521 92.6663 21.7605 88.1397 21.7605C83.6131 21.7605 80.1858 18.7802 80.1858 13.9857C80.1858 9.64485 83.3544 6.21101 88.1397 6.21101C92.731 6.21101 96.0936 9.19132 96.0936 13.9857ZM92.4723 13.9857C92.4723 11.2646 90.597 9.45048 88.1397 9.45048C85.6824 9.45048 83.8071 11.2646 83.8071 13.9857C83.8071 16.5773 85.7471 18.521 88.1397 18.521C90.985 18.521 92.4723 16.5125 92.4723 13.9857ZM136.574 11.3942C136.574 14.0505 134.505 16.4477 131.013 16.4477C130.69 16.4477 129.849 16.4477 129.332 16.3829V21.5013H125.905V6.47017C126.745 6.47017 129.332 6.40538 130.496 6.40538C135.023 6.47017 136.574 8.80259 136.574 11.3942ZM132.889 11.3942C132.889 10.0984 132.048 9.64485 130.819 9.64485C130.367 9.64485 130.043 9.64485 129.332 9.70964V13.1435C129.849 13.2083 130.431 13.2731 130.884 13.2731C131.789 13.2083 132.889 12.8195 132.889 11.3942ZM149.314 16.966C149.314 20.1407 146.856 21.5661 143.623 21.5661C142.2 21.5661 140.196 21.5013 139.355 21.4365V6.53496C140.196 6.47017 142.265 6.40538 143.882 6.40538C147.438 6.40538 148.926 8.02512 148.926 10.1632C148.926 11.7181 148.344 12.7547 147.244 13.5322V13.597C148.279 13.9209 149.314 15.0224 149.314 16.966ZM142.782 12.4308H143.946C144.852 12.4308 145.498 12.0421 145.498 11.0054C145.498 10.0984 144.658 9.64485 143.882 9.64485C143.429 9.64485 143.17 9.70964 142.782 9.70964V12.4308ZM145.886 16.7717C145.886 15.7998 145.175 15.4111 144.076 15.4111H142.782V18.197C143.041 18.2618 143.3 18.3266 143.946 18.3266C145.24 18.3266 145.886 17.8083 145.886 16.7717ZM155.522 21.5013L162.118 12.1716V21.5013H165.545V6.47017H162.57L155.974 15.7998V6.47017H152.547V21.4365H155.522V21.5013ZM179.771 17.4196C178.737 18.197 177.573 18.521 176.538 18.521C173.822 18.521 172.011 16.6421 172.011 13.9857C172.011 11.0054 173.887 9.45048 176.215 9.45048C177.637 9.45048 178.478 9.90401 179.254 10.3575L180.741 7.76596C179.836 6.85891 178.155 6.21101 176.15 6.21101C170.977 6.21101 168.325 9.64485 168.325 13.9857C168.325 18.6506 171.559 21.7605 176.15 21.7605C178.155 21.7605 180.095 21.0478 181 20.0111L179.771 17.4196Z" fill="#3A3A3A"/>
<path fill-rule="evenodd" clip-rule="evenodd" d="M37.7651 5.30396C36.6657 4.26733 34.5964 0.963074 31.8158 5.10959C31.1045 6.21101 30.5871 7.63638 30.1991 9.19132L22.1159 3.81381L14.2913 8.99696C14.55 7.5068 14.938 6.01664 15.52 4.72086C18.0419 -1.17498 20.8226 0.120812 28.1298 0.120812C30.0051 0.120812 34.7258 -0.203135 36.1484 0.444759C37.4417 1.02786 39.123 3.29549 39.511 5.30396H37.7651ZM29.7465 13.7266L22.1159 8.67301L13.9033 14.1153C13.9033 15.1519 13.968 16.2534 14.162 17.29L22.1159 11.9773L29.9405 17.1604C29.8111 16.059 29.7465 14.8928 29.7465 13.7266ZM22.1159 16.8365L15.0673 21.5013C15.52 22.8619 16.0373 24.1577 16.684 25.3887C18.6886 28.1098 20.9519 28.045 25.1552 27.9802H32.2038C34.0791 27.9802 35.6957 28.2394 37.1831 26.814C38.4117 25.7126 39.3817 23.9633 39.511 22.5379H37.7651C37.0537 23.5098 36.6011 24.6112 35.0491 24.9351C33.7558 25.1943 32.6564 24.4816 31.8158 23.2506L22.1159 16.8365Z" fill="#6081D2"/>
</svg>
