<svg width="69" height="17" viewBox="0 0 69 17" fill="none" xmlns="http://www.w3.org/2000/svg">
<rect width="69" height="17" rx="2" fill="#DB4661"/>
<path d="M6.95166 5.14746H9.28809C10.3014 5.14746 11.0659 5.29427 11.5815 5.58789C12.0972 5.88151 12.355 6.38818 12.355 7.10791C12.355 7.40869 12.3013 7.68083 12.1938 7.92432C12.09 8.16423 11.9378 8.36296 11.7373 8.52051C11.5368 8.67448 11.2897 8.77832 10.9961 8.83203V8.88574C11.3005 8.93945 11.5708 9.03434 11.8071 9.17041C12.047 9.30648 12.235 9.50163 12.3711 9.75586C12.5107 10.0101 12.5806 10.3395 12.5806 10.7441C12.5806 11.224 12.466 11.6322 12.2368 11.9688C12.0112 12.3053 11.6872 12.5614 11.2646 12.7368C10.8457 12.9123 10.348 13 9.77148 13H6.95166V5.14746ZM8.24072 8.38623H9.47607C10.0597 8.38623 10.4644 8.29134 10.6899 8.10156C10.9155 7.91178 11.0283 7.63428 11.0283 7.26904C11.0283 6.89665 10.894 6.62809 10.6255 6.46338C10.3605 6.29867 9.93799 6.21631 9.35791 6.21631H8.24072V8.38623ZM8.24072 9.42822V11.9204H9.59961C10.2012 11.9204 10.6237 11.804 10.8672 11.5713C11.1107 11.3385 11.2324 11.0234 11.2324 10.626C11.2324 10.3825 11.1769 10.1712 11.0659 9.99219C10.9585 9.81315 10.7812 9.67529 10.5342 9.57861C10.2871 9.47835 9.9541 9.42822 9.53516 9.42822H8.24072ZM14.0737 13V7.0542H15.3413V9.42822H16.5391C17.0977 9.42822 17.5578 9.49268 17.9194 9.62158C18.2811 9.74691 18.5496 9.93669 18.7251 10.1909C18.9006 10.4451 18.9883 10.7638 18.9883 11.147C18.9883 11.5229 18.9041 11.8506 18.7358 12.1299C18.5675 12.4056 18.3044 12.6204 17.9463 12.7744C17.5882 12.9248 17.1191 13 16.5391 13H14.0737ZM15.3413 12.0708H16.4531C16.8327 12.0708 17.1388 12.0028 17.3716 11.8667C17.6079 11.7271 17.7261 11.4979 17.7261 11.1792C17.7261 10.882 17.6169 10.6725 17.3984 10.5508C17.1836 10.4255 16.8685 10.3628 16.4531 10.3628H15.3413V12.0708ZM19.9067 13V7.0542H21.1743V13H19.9067ZM28.1729 7.0542V13H26.8999V8.05322H24.2466V13H22.979V7.0542H28.1729ZM35.2466 10.0137C35.2466 10.5078 35.1821 10.9465 35.0532 11.3296C34.9243 11.7127 34.7363 12.0368 34.4893 12.3018C34.2422 12.5632 33.945 12.7637 33.5977 12.9033C33.2503 13.0394 32.8582 13.1074 32.4214 13.1074C32.0132 13.1074 31.639 13.0394 31.2988 12.9033C30.9587 12.7637 30.6632 12.5632 30.4126 12.3018C30.1655 12.0368 29.974 11.7127 29.8379 11.3296C29.7018 10.9465 29.6338 10.5078 29.6338 10.0137C29.6338 9.3584 29.7466 8.80339 29.9722 8.34863C30.2013 7.8903 30.5272 7.54118 30.9497 7.30127C31.3722 7.06136 31.8753 6.94141 32.459 6.94141C33.0068 6.94141 33.4902 7.06136 33.9092 7.30127C34.3281 7.54118 34.6558 7.8903 34.8921 8.34863C35.1284 8.80697 35.2466 9.36198 35.2466 10.0137ZM30.9336 10.0137C30.9336 10.4469 30.9855 10.8175 31.0894 11.1255C31.1968 11.4334 31.3615 11.6698 31.5835 11.8345C31.8055 11.9956 32.092 12.0762 32.4429 12.0762C32.7938 12.0762 33.0802 11.9956 33.3022 11.8345C33.5243 11.6698 33.6872 11.4334 33.791 11.1255C33.8949 10.8175 33.9468 10.4469 33.9468 10.0137C33.9468 9.5804 33.8949 9.21338 33.791 8.9126C33.6872 8.60824 33.5243 8.37728 33.3022 8.21973C33.0802 8.05859 32.792 7.97803 32.4375 7.97803C31.9147 7.97803 31.5334 8.15348 31.2935 8.50439C31.0535 8.85531 30.9336 9.3584 30.9336 10.0137ZM41.5898 13H40.3169V8.04248H38.668C38.5964 8.94482 38.5068 9.71647 38.3994 10.3574C38.292 10.9984 38.1577 11.5212 37.9966 11.9258C37.8354 12.3268 37.6367 12.6204 37.4004 12.8066C37.1641 12.9928 36.8794 13.0859 36.5464 13.0859C36.3996 13.0859 36.2671 13.0752 36.1489 13.0537C36.0308 13.0358 35.9251 13.0072 35.832 12.9678V11.9741C35.8929 11.9956 35.9591 12.0135 36.0308 12.0278C36.1024 12.0422 36.1758 12.0493 36.251 12.0493C36.3835 12.0493 36.5052 11.9956 36.6162 11.8882C36.7308 11.7772 36.8364 11.6035 36.9331 11.3672C37.0298 11.1309 37.1175 10.8193 37.1963 10.4326C37.2751 10.0423 37.3467 9.56966 37.4111 9.01465C37.4756 8.45605 37.5329 7.80257 37.583 7.0542H41.5898V13ZM44.6675 7.0542V9.44434H47.4497V7.0542H48.7173V13H47.4497V10.4326H44.6675V13H43.3999V7.0542H44.6675ZM52.8906 6.94141C53.4206 6.94141 53.8753 7.05062 54.2549 7.26904C54.6344 7.48747 54.9263 7.7972 55.1304 8.19824C55.3345 8.59928 55.4365 9.0791 55.4365 9.6377V10.3145H51.4673C51.4816 10.891 51.6356 11.335 51.9292 11.6465C52.2264 11.958 52.6418 12.1138 53.1753 12.1138C53.5549 12.1138 53.895 12.078 54.1958 12.0063C54.5002 11.9312 54.8135 11.8219 55.1357 11.6787V12.7046C54.8385 12.8442 54.536 12.9463 54.228 13.0107C53.9201 13.0752 53.5513 13.1074 53.1216 13.1074C52.5379 13.1074 52.0241 12.9946 51.5801 12.769C51.1396 12.5399 50.7941 12.1997 50.5435 11.7485C50.2964 11.2974 50.1729 10.737 50.1729 10.0674C50.1729 9.40137 50.2856 8.83561 50.5112 8.37012C50.7368 7.90462 51.0537 7.55013 51.4619 7.30664C51.8701 7.06315 52.3464 6.94141 52.8906 6.94141ZM52.8906 7.89209C52.4932 7.89209 52.1709 8.021 51.9238 8.27881C51.6803 8.53662 51.5371 8.91439 51.4941 9.41211H54.2012C54.1976 9.11491 54.1475 8.85173 54.0508 8.62256C53.9577 8.39339 53.8145 8.21436 53.6211 8.08545C53.4313 7.95654 53.1878 7.89209 52.8906 7.89209ZM58.1274 7.0542V9.44434H60.9097V7.0542H62.1772V13H60.9097V10.4326H58.1274V13H56.8599V7.0542H58.1274Z" fill="white"/>
</svg>
