<svg width="47" height="17" viewBox="0 0 47 17" fill="none" xmlns="http://www.w3.org/2000/svg">
<rect width="47" height="17" rx="2" fill="#DB4661"/>
<path d="M12.2852 13H10.9961V9.46045H7.37598V13H6.09229V5.14746H7.37598V8.35938H10.9961V5.14746H12.2852V13ZM19.4878 10.019C19.4878 10.9894 19.2389 11.7467 18.7412 12.291C18.2435 12.8353 17.5506 13.1074 16.6626 13.1074C16.1076 13.1074 15.617 12.9821 15.1909 12.7314C14.7648 12.4808 14.4372 12.1209 14.208 11.6519C13.9788 11.1828 13.8643 10.6385 13.8643 10.019C13.8643 9.05583 14.1113 8.30387 14.6055 7.76318C15.0996 7.22249 15.7961 6.95215 16.6948 6.95215C17.5542 6.95215 18.2345 7.22965 18.7358 7.78467C19.2371 8.3361 19.4878 9.08089 19.4878 10.019ZM15.1641 10.019C15.1641 11.3905 15.6707 12.0762 16.6841 12.0762C17.6867 12.0762 18.188 11.3905 18.188 10.019C18.188 8.66195 17.6831 7.9834 16.6733 7.9834C16.1434 7.9834 15.7585 8.15885 15.5186 8.50977C15.2822 8.86068 15.1641 9.36377 15.1641 10.019ZM26.0996 8.57959C26.0996 9.28141 25.6896 9.70573 24.8696 9.85254V9.89551C25.328 9.94922 25.6789 10.0942 25.9224 10.3306C26.1659 10.5669 26.2876 10.873 26.2876 11.249C26.2876 11.8112 26.0728 12.2445 25.6431 12.5488C25.217 12.8496 24.5957 13 23.7793 13H20.9434V7.05957H23.7686C25.3226 7.05957 26.0996 7.56624 26.0996 8.57959ZM24.9932 11.1738C24.9932 10.8874 24.8822 10.6851 24.6602 10.5669C24.4382 10.4451 24.1051 10.3843 23.6611 10.3843H22.2056V12.0654H23.6934C24.5599 12.0654 24.9932 11.7682 24.9932 11.1738ZM24.8374 8.68701C24.8374 8.45068 24.7443 8.2806 24.5581 8.17676C24.3755 8.06934 24.1016 8.01562 23.7363 8.01562H22.2056V9.44434H23.5483C23.9709 9.44434 24.2913 9.39062 24.5098 9.2832C24.7282 9.1722 24.8374 8.97347 24.8374 8.68701ZM28.855 9.43359H30.0581C30.8888 9.43359 31.5029 9.57682 31.9004 9.86328C32.2979 10.1497 32.4966 10.5794 32.4966 11.1523C32.4966 11.7646 32.2889 12.2266 31.8735 12.5381C31.4618 12.846 30.8566 13 30.0581 13H27.5928V7.05957H28.855V9.43359ZM31.2451 11.1846C31.2451 10.8874 31.1341 10.6797 30.9121 10.5615C30.6937 10.4434 30.3786 10.3843 29.9668 10.3843H28.855V12.0654H29.8057C30.3141 12.0654 30.6812 11.9938 30.9067 11.8506C31.1323 11.7074 31.2451 11.4854 31.2451 11.1846ZM34.6987 13H33.4312V7.05957H34.6987V13ZM39.103 13.1074C38.1792 13.1074 37.4559 12.8389 36.9331 12.3018C36.4139 11.7611 36.1543 11.0181 36.1543 10.0728C36.1543 9.10238 36.396 8.33968 36.8794 7.78467C37.3628 7.22965 38.027 6.95215 38.8721 6.95215C39.6562 6.95215 40.2757 7.19027 40.7305 7.6665C41.1852 8.14274 41.4126 8.79801 41.4126 9.63232V10.3145H37.4541C37.472 10.891 37.6278 11.335 37.9214 11.6465C38.215 11.9544 38.6286 12.1084 39.1621 12.1084C39.513 12.1084 39.8389 12.0762 40.1396 12.0117C40.444 11.9437 40.7699 11.8327 41.1172 11.6787V12.7046C40.8092 12.8514 40.4977 12.9552 40.1826 13.0161C39.8675 13.077 39.5076 13.1074 39.103 13.1074ZM38.8721 7.9082C38.471 7.9082 38.1488 8.03532 37.9053 8.28955C37.6654 8.54378 37.5221 8.91439 37.4756 9.40137H40.1719C40.1647 8.91081 40.0465 8.5402 39.8174 8.28955C39.5882 8.03532 39.2731 7.9082 38.8721 7.9082Z" fill="white"/>
</svg>
