<svg width="78" height="14" viewBox="0 0 78 14" fill="none" xmlns="http://www.w3.org/2000/svg">
<path d="M6.55163 0.908494C6.73504 0.536871 7.26496 0.53687 7.44837 0.908493L8.94091 3.93272C9.01374 4.08029 9.15453 4.18258 9.31738 4.20624L12.6548 4.6912C13.0649 4.75079 13.2287 5.25478 12.9319 5.54404L10.5169 7.89808C10.3991 8.01294 10.3453 8.17844 10.3731 8.34064L10.9432 11.6646C11.0133 12.073 10.5846 12.3845 10.2178 12.1917L7.23267 10.6223C7.08701 10.5457 6.91299 10.5457 6.76733 10.6223L3.78224 12.1917C3.41543 12.3845 2.98671 12.073 3.05676 11.6646L3.62687 8.34064C3.65468 8.17844 3.60091 8.01294 3.48307 7.89808L1.06808 5.54404C0.771321 5.25478 0.935076 4.75079 1.34519 4.6912L4.68262 4.20624C4.84547 4.18258 4.98626 4.08029 5.05909 3.93272L6.55163 0.908494Z" fill="#FFD233"/>
<path d="M22.5516 0.908494C22.735 0.536871 23.265 0.53687 23.4484 0.908493L24.9409 3.93272C25.0137 4.08029 25.1545 4.18258 25.3174 4.20624L28.6548 4.6912C29.0649 4.75079 29.2287 5.25478 28.9319 5.54404L26.5169 7.89808C26.3991 8.01294 26.3453 8.17844 26.3731 8.34064L26.9432 11.6646C27.0133 12.073 26.5846 12.3845 26.2178 12.1917L23.2327 10.6223C23.087 10.5457 22.913 10.5457 22.7673 10.6223L19.7822 12.1917C19.4154 12.3845 18.9867 12.073 19.0568 11.6646L19.6269 8.34064C19.6547 8.17844 19.6009 8.01294 19.4831 7.89808L17.0681 5.54404C16.7713 5.25478 16.9351 4.75079 17.3452 4.6912L20.6826 4.20624C20.8455 4.18258 20.9863 4.08029 21.0591 3.93272L22.5516 0.908494Z" fill="#FFD233"/>
<path d="M38.5516 0.908494C38.735 0.536871 39.265 0.53687 39.4484 0.908493L40.9409 3.93272C41.0137 4.08029 41.1545 4.18258 41.3174 4.20624L44.6548 4.6912C45.0649 4.75079 45.2287 5.25478 44.9319 5.54404L42.5169 7.89808C42.3991 8.01294 42.3453 8.17844 42.3731 8.34064L42.9432 11.6646C43.0133 12.073 42.5846 12.3845 42.2178 12.1917L39.2327 10.6223C39.087 10.5457 38.913 10.5457 38.7673 10.6223L35.7822 12.1917C35.4154 12.3845 34.9867 12.073 35.0568 11.6646L35.6269 8.34064C35.6547 8.17844 35.6009 8.01294 35.4831 7.89808L33.0681 5.54404C32.7713 5.25478 32.9351 4.75079 33.3452 4.6912L36.6826 4.20624C36.8455 4.18258 36.9863 4.08029 37.0591 3.93272L38.5516 0.908494Z" fill="#FFD233"/>
<path d="M54.5516 0.908494C54.735 0.536871 55.265 0.53687 55.4484 0.908493L56.9409 3.93272C57.0137 4.08029 57.1545 4.18258 57.3174 4.20624L60.6548 4.6912C61.0649 4.75079 61.2287 5.25478 60.9319 5.54404L58.5169 7.89808C58.3991 8.01294 58.3453 8.17844 58.3731 8.34064L58.9432 11.6646C59.0133 12.073 58.5846 12.3845 58.2178 12.1917L55.2327 10.6223C55.087 10.5457 54.913 10.5457 54.7673 10.6223L51.7822 12.1917C51.4154 12.3845 50.9867 12.073 51.0568 11.6646L51.6269 8.34064C51.6547 8.17844 51.6009 8.01294 51.4831 7.89808L49.0681 5.54404C48.7713 5.25478 48.9351 4.75079 49.3452 4.6912L52.6826 4.20624C52.8455 4.18258 52.9863 4.08029 53.0591 3.93272L54.5516 0.908494Z" fill="#FFD233"/>
<path d="M71 1.12978L72.4925 4.154C72.6382 4.44915 72.9198 4.65372 73.2455 4.70104L76.5829 5.186L74.1679 7.54003C73.9322 7.76977 73.8247 8.10077 73.8803 8.42517L74.4504 11.7491L71.4653 10.1798C71.174 10.0266 70.826 10.0266 70.5347 10.1798L67.5496 11.7491L68.1197 8.42516C68.1753 8.10077 68.0678 7.76977 67.8321 7.54003L65.4171 5.186L68.7545 4.70104C69.0802 4.65372 69.3618 4.44915 69.5075 4.154L71 1.12978Z" stroke="#FFD233"/>
</svg>
