<svg width="76" height="14" viewBox="0 0 76 14" fill="none" xmlns="http://www.w3.org/2000/svg">
<path d="M6.55163 0.908494C6.73504 0.536871 7.26496 0.53687 7.44837 0.908493L8.94091 3.93272C9.01374 4.08029 9.15453 4.18258 9.31738 4.20624L12.6548 4.6912C13.0649 4.75079 13.2287 5.25478 12.9319 5.54404L10.5169 7.89808C10.3991 8.01294 10.3453 8.17844 10.3731 8.34064L10.9432 11.6646C11.0133 12.073 10.5846 12.3845 10.2178 12.1917L7.23267 10.6223C7.08701 10.5457 6.91299 10.5457 6.76733 10.6223L3.78224 12.1917C3.41543 12.3845 2.98671 12.073 3.05676 11.6646L3.62687 8.34064C3.65468 8.17844 3.60091 8.01294 3.48307 7.89808L1.06808 5.54404C0.771321 5.25478 0.935076 4.75079 1.34519 4.6912L4.68262 4.20624C4.84547 4.18258 4.98626 4.08029 5.05909 3.93272L6.55163 0.908494Z" fill="#FFD233"/>
<path d="M21.952 0.908494C22.1354 0.536871 22.6654 0.53687 22.8488 0.908493L24.3413 3.93272C24.4141 4.08029 24.5549 4.18258 24.7178 4.20624L28.0552 4.6912C28.4653 4.75079 28.6291 5.25478 28.3323 5.54404L25.9173 7.89808C25.7995 8.01294 25.7457 8.17844 25.7735 8.34064L26.3436 11.6646C26.4137 12.073 25.985 12.3845 25.6182 12.1917L22.6331 10.6223C22.4874 10.5457 22.3134 10.5457 22.1677 10.6223L19.1826 12.1917C18.8158 12.3845 18.3871 12.073 18.4572 11.6646L19.0273 8.34064C19.0551 8.17844 19.0013 8.01294 18.8835 7.89808L16.4685 5.54404C16.1717 5.25478 16.3355 4.75079 16.7456 4.6912L20.083 4.20624C20.2459 4.18258 20.3866 4.08029 20.4595 3.93272L21.952 0.908494Z" fill="#FFD233"/>
<path d="M37.3524 0.908494C37.5358 0.536871 38.0657 0.53687 38.2491 0.908493L39.7417 3.93272C39.8145 4.08029 39.9553 4.18258 40.1182 4.20624L43.4556 4.6912C43.8657 4.75079 44.0295 5.25478 43.7327 5.54404L41.3177 7.89808C41.1999 8.01294 41.1461 8.17844 41.1739 8.34064L41.744 11.6646C41.8141 12.073 41.3854 12.3845 41.0185 12.1917L38.0335 10.6223C37.8878 10.5457 37.7138 10.5457 37.5681 10.6223L34.583 12.1917C34.2162 12.3845 33.7875 12.073 33.8575 11.6646L34.4276 8.34064C34.4555 8.17844 34.4017 8.01294 34.2838 7.89808L31.8689 5.54404C31.5721 5.25478 31.7359 4.75079 32.146 4.6912L35.4834 4.20624C35.6463 4.18258 35.787 4.08029 35.8599 3.93272L37.3524 0.908494Z" fill="#FFD233"/>
<path d="M52.7509 0.908494C52.9343 0.536871 53.4642 0.53687 53.6476 0.908493L55.1401 3.93272C55.213 4.08029 55.3537 4.18258 55.5166 4.20624L58.854 4.6912C59.2641 4.75079 59.4279 5.25478 59.1311 5.54404L56.7162 7.89808C56.5983 8.01294 56.5445 8.17844 56.5724 8.34064L57.1425 11.6646C57.2125 12.073 56.7838 12.3845 56.417 12.1917L53.4319 10.6223C53.2862 10.5457 53.1122 10.5457 52.9665 10.6223L49.9815 12.1917C49.6146 12.3845 49.1859 12.073 49.256 11.6646L49.8261 8.34064C49.8539 8.17844 49.8001 8.01294 49.6823 7.89808L47.2673 5.54404C46.9705 5.25478 47.1343 4.75079 47.5444 4.6912L50.8818 4.20624C51.0447 4.18258 51.1855 4.08029 51.2583 3.93272L52.7509 0.908494Z" fill="#FFD233"/>
<path d="M68.1512 0.908494C68.3346 0.536871 68.8646 0.53687 69.048 0.908493L70.5405 3.93272C70.6134 4.08029 70.7541 4.18258 70.917 4.20624L74.2544 4.6912C74.6645 4.75079 74.8283 5.25478 74.5315 5.54404L72.1165 7.89808C71.9987 8.01294 71.9449 8.17844 71.9727 8.34064L72.5428 11.6646C72.6129 12.073 72.1842 12.3845 71.8174 12.1917L68.8323 10.6223C68.6866 10.5457 68.5126 10.5457 68.3669 10.6223L65.3818 12.1917C65.015 12.3845 64.5863 12.073 64.6564 11.6646L65.2265 8.34064C65.2543 8.17844 65.2005 8.01294 65.0827 7.89808L62.6677 5.54404C62.3709 5.25478 62.5347 4.75079 62.9448 4.6912L66.2822 4.20624C66.4451 4.18258 66.5859 4.08029 66.6587 3.93272L68.1512 0.908494Z" fill="#FFDA44"/>
</svg>
