<svg width="218" height="24" viewBox="0 0 218 24" fill="none" xmlns="http://www.w3.org/2000/svg">
<path d="M169.742 12.063C169.742 13.4201 169.527 14.4334 169.097 15.103C168.671 15.7726 168.018 16.1074 167.137 16.1074C166.292 16.1074 165.649 15.7655 165.208 15.0815C164.768 14.394 164.548 13.3879 164.548 12.063C164.548 10.6951 164.761 9.68001 165.187 9.01758C165.613 8.35514 166.263 8.02393 167.137 8.02393C167.989 8.02393 168.635 8.36947 169.076 9.06055C169.52 9.75163 169.742 10.7524 169.742 12.063ZM165.45 12.063C165.45 13.2052 165.584 14.0378 165.853 14.5605C166.122 15.0798 166.549 15.3394 167.137 15.3394C167.731 15.3394 168.161 15.0762 168.426 14.5498C168.694 14.0199 168.829 13.1909 168.829 12.063C168.829 10.9351 168.694 10.1097 168.426 9.58691C168.161 9.06055 167.731 8.79736 167.137 8.79736C166.549 8.79736 166.122 9.05697 165.853 9.57617C165.584 10.0918 165.45 10.9207 165.45 12.063ZM171.111 15.4307C171.111 15.1908 171.165 15.0099 171.272 14.8882C171.383 14.7629 171.541 14.7002 171.745 14.7002C171.953 14.7002 172.114 14.7629 172.229 14.8882C172.347 15.0099 172.406 15.1908 172.406 15.4307C172.406 15.6634 172.347 15.8424 172.229 15.9678C172.11 16.0931 171.949 16.1558 171.745 16.1558C171.562 16.1558 171.41 16.1003 171.289 15.9893C171.17 15.8747 171.111 15.6885 171.111 15.4307ZM171.111 10.688C171.111 10.2046 171.323 9.96289 171.745 9.96289C172.186 9.96289 172.406 10.2046 172.406 10.688C172.406 10.9207 172.347 11.0998 172.229 11.2251C172.11 11.3504 171.949 11.4131 171.745 11.4131C171.562 11.4131 171.41 11.3576 171.289 11.2466C171.17 11.132 171.111 10.9458 171.111 10.688ZM177.068 16H176.198V10.4033C176.198 9.93783 176.212 9.4974 176.241 9.08203C176.166 9.15723 176.081 9.236 175.988 9.31836C175.895 9.40072 175.469 9.74984 174.71 10.3657L174.237 9.75342L176.316 8.14746H177.068V16ZM182.514 11.2036C183.341 11.2036 183.991 11.4095 184.464 11.8213C184.94 12.2295 185.178 12.7899 185.178 13.5024C185.178 14.3153 184.919 14.9526 184.399 15.4146C183.884 15.8765 183.171 16.1074 182.262 16.1074C181.377 16.1074 180.702 15.966 180.237 15.6831V14.8237C180.487 14.9849 180.799 15.112 181.171 15.2051C181.544 15.2946 181.911 15.3394 182.272 15.3394C182.903 15.3394 183.391 15.1908 183.739 14.8936C184.09 14.5964 184.265 14.1667 184.265 13.6045C184.265 12.5088 183.594 11.9609 182.251 11.9609C181.911 11.9609 181.456 12.0129 180.887 12.1167L180.425 11.8213L180.72 8.14746H184.625V8.96924H181.483L181.284 11.3271C181.696 11.2448 182.106 11.2036 182.514 11.2036ZM192.601 8.14746L189.674 16H188.782L191.709 8.14746H192.601ZM201.313 12.063C201.313 13.4201 201.098 14.4334 200.668 15.103C200.242 15.7726 199.589 16.1074 198.708 16.1074C197.863 16.1074 197.22 15.7655 196.78 15.0815C196.339 14.394 196.119 13.3879 196.119 12.063C196.119 10.6951 196.332 9.68001 196.758 9.01758C197.184 8.35514 197.834 8.02393 198.708 8.02393C199.56 8.02393 200.207 8.36947 200.647 9.06055C201.091 9.75163 201.313 10.7524 201.313 12.063ZM197.021 12.063C197.021 13.2052 197.156 14.0378 197.424 14.5605C197.693 15.0798 198.121 15.3394 198.708 15.3394C199.302 15.3394 199.732 15.0762 199.997 14.5498C200.266 14.0199 200.4 13.1909 200.4 12.063C200.4 10.9351 200.266 10.1097 199.997 9.58691C199.732 9.06055 199.302 8.79736 198.708 8.79736C198.121 8.79736 197.693 9.05697 197.424 9.57617C197.156 10.0918 197.021 10.9207 197.021 12.063ZM202.683 15.4307C202.683 15.1908 202.736 15.0099 202.844 14.8882C202.955 14.7629 203.112 14.7002 203.316 14.7002C203.524 14.7002 203.685 14.7629 203.8 14.8882C203.918 15.0099 203.977 15.1908 203.977 15.4307C203.977 15.6634 203.918 15.8424 203.8 15.9678C203.682 16.0931 203.521 16.1558 203.316 16.1558C203.134 16.1558 202.982 16.1003 202.86 15.9893C202.742 15.8747 202.683 15.6885 202.683 15.4307ZM202.683 10.688C202.683 10.2046 202.894 9.96289 203.316 9.96289C203.757 9.96289 203.977 10.2046 203.977 10.688C203.977 10.9207 203.918 11.0998 203.8 11.2251C203.682 11.3504 203.521 11.4131 203.316 11.4131C203.134 11.4131 202.982 11.3576 202.86 11.2466C202.742 11.132 202.683 10.9458 202.683 10.688ZM207.791 11.2036C208.618 11.2036 209.268 11.4095 209.74 11.8213C210.216 12.2295 210.455 12.7899 210.455 13.5024C210.455 14.3153 210.195 14.9526 209.676 15.4146C209.16 15.8765 208.448 16.1074 207.538 16.1074C206.654 16.1074 205.979 15.966 205.513 15.6831V14.8237C205.764 14.9849 206.075 15.112 206.448 15.2051C206.82 15.2946 207.187 15.3394 207.549 15.3394C208.179 15.3394 208.668 15.1908 209.015 14.8936C209.366 14.5964 209.542 14.1667 209.542 13.6045C209.542 12.5088 208.87 11.9609 207.527 11.9609C207.187 11.9609 206.732 12.0129 206.163 12.1167L205.701 11.8213L205.997 8.14746H209.901V8.96924H206.759L206.561 11.3271C206.972 11.2448 207.382 11.2036 207.791 11.2036ZM216.792 16H211.631V15.2319L213.699 13.1533C214.329 12.516 214.744 12.0612 214.945 11.7891C215.145 11.5169 215.296 11.252 215.396 10.9941C215.496 10.7363 215.546 10.4588 215.546 10.1616C215.546 9.74268 215.419 9.41146 215.165 9.16797C214.911 8.9209 214.558 8.79736 214.107 8.79736C213.781 8.79736 213.471 8.85107 213.178 8.9585C212.888 9.06592 212.564 9.26107 212.206 9.54395L211.733 8.93701C212.456 8.33545 213.244 8.03467 214.096 8.03467C214.834 8.03467 215.412 8.22445 215.831 8.604C216.25 8.97998 216.459 9.48665 216.459 10.124C216.459 10.6217 216.32 11.1141 216.041 11.6011C215.761 12.0881 215.238 12.7039 214.472 13.4487L212.753 15.1299V15.1729H216.792V16Z" fill="#6081D2"/>
<line x1="34" y1="12" x2="154" y2="12" stroke="black" stroke-opacity="0.12" stroke-width="2"/>
<line x1="34" y1="12" x2="65" y2="12" stroke="#6081D2" stroke-width="2"/>
<circle cx="12" cy="12" r="12" fill="#6081D2"/>
<path d="M7 8C7 7.44772 7.44772 7 8 7H9C9.55228 7 10 7.44772 10 8V16C10 16.5523 9.55228 17 9 17H8C7.44772 17 7 16.5523 7 16V8Z" fill="white"/>
<path d="M14 8C14 7.44772 14.4477 7 15 7H16C16.5523 7 17 7.44772 17 8V16C17 16.5523 16.5523 17 16 17H15C14.4477 17 14 16.5523 14 16V8Z" fill="white"/>
</svg>
