<svg width="60" height="17" viewBox="0 0 60 17" fill="none" xmlns="http://www.w3.org/2000/svg">
<rect width="60" height="17" rx="2" fill="#DB4661"/>
<path d="M6.66797 5.14746H9.00439C10.0177 5.14746 10.7822 5.29427 11.2979 5.58789C11.8135 5.88151 12.0713 6.38818 12.0713 7.10791C12.0713 7.40869 12.0176 7.68083 11.9102 7.92432C11.8063 8.16423 11.6541 8.36296 11.4536 8.52051C11.2531 8.67448 11.006 8.77832 10.7124 8.83203V8.88574C11.0168 8.93945 11.2871 9.03434 11.5234 9.17041C11.7633 9.30648 11.9513 9.50163 12.0874 9.75586C12.2271 10.0101 12.2969 10.3395 12.2969 10.7441C12.2969 11.224 12.1823 11.6322 11.9531 11.9688C11.7275 12.3053 11.4035 12.5614 10.981 12.7368C10.562 12.9123 10.0643 13 9.48779 13H6.66797V5.14746ZM7.95703 8.38623H9.19238C9.77604 8.38623 10.1807 8.29134 10.4062 8.10156C10.6318 7.91178 10.7446 7.63428 10.7446 7.26904C10.7446 6.89665 10.6104 6.62809 10.3418 6.46338C10.0768 6.29867 9.6543 6.21631 9.07422 6.21631H7.95703V8.38623ZM7.95703 9.42822V11.9204H9.31592C9.91748 11.9204 10.34 11.804 10.5835 11.5713C10.827 11.3385 10.9487 11.0234 10.9487 10.626C10.9487 10.3825 10.8932 10.1712 10.7822 9.99219C10.6748 9.81315 10.4976 9.67529 10.2505 9.57861C10.0034 9.47835 9.67041 9.42822 9.25146 9.42822H7.95703ZM19.6982 6.94141C20.4036 6.94141 20.9694 7.19922 21.3955 7.71484C21.8252 8.23047 22.04 8.99674 22.04 10.0137C22.04 10.6868 21.9398 11.2544 21.7393 11.7163C21.5423 12.1746 21.2648 12.522 20.9067 12.7583C20.5522 12.991 20.1387 13.1074 19.666 13.1074C19.3652 13.1074 19.1038 13.068 18.8818 12.9893C18.6598 12.9105 18.4701 12.8084 18.3125 12.6831C18.1549 12.5542 18.0225 12.4146 17.915 12.2642H17.8398C17.8577 12.4074 17.8739 12.5667 17.8882 12.7422C17.9061 12.9141 17.915 13.0716 17.915 13.2148V15.6372H16.6475V7.0542H17.6787L17.856 7.87598H17.915C18.026 7.70768 18.1603 7.55192 18.3179 7.40869C18.479 7.26546 18.6724 7.15267 18.8979 7.07031C19.1271 6.98438 19.3939 6.94141 19.6982 6.94141ZM19.3599 7.97266C19.0125 7.97266 18.7332 8.04248 18.522 8.18213C18.3143 8.3182 18.1621 8.52409 18.0654 8.7998C17.9723 9.07552 17.9222 9.42106 17.915 9.83643V10.0137C17.915 10.4541 17.9598 10.8283 18.0493 11.1362C18.1424 11.4406 18.2946 11.6733 18.5059 11.8345C18.7207 11.992 19.0107 12.0708 19.376 12.0708C19.6839 12.0708 19.9382 11.9867 20.1387 11.8184C20.3428 11.6501 20.495 11.4102 20.5952 11.0986C20.6955 10.7871 20.7456 10.4201 20.7456 9.99756C20.7456 9.35661 20.631 8.85889 20.4019 8.50439C20.1763 8.1499 19.8289 7.97266 19.3599 7.97266ZM25.832 6.94141C26.584 6.94141 27.1515 7.10791 27.5347 7.44092C27.9214 7.77393 28.1147 8.29313 28.1147 8.99854V13H27.2178L26.9761 12.1567H26.9331C26.7648 12.3716 26.5911 12.5488 26.4121 12.6885C26.2331 12.8281 26.0254 12.932 25.7891 13C25.5563 13.0716 25.2716 13.1074 24.9351 13.1074C24.5806 13.1074 24.2637 13.043 23.9844 12.9141C23.7051 12.7816 23.4849 12.5811 23.3237 12.3125C23.1626 12.0439 23.082 11.7038 23.082 11.292C23.082 10.6797 23.3094 10.2196 23.7642 9.91162C24.2225 9.60368 24.9136 9.43359 25.8374 9.40137L26.8687 9.36377V9.05225C26.8687 8.64046 26.772 8.34684 26.5786 8.17139C26.3888 7.99593 26.1203 7.9082 25.7729 7.9082C25.4757 7.9082 25.1875 7.95117 24.9082 8.03711C24.6289 8.12305 24.3568 8.22868 24.0918 8.354L23.6836 7.4624C23.9736 7.30843 24.3031 7.18311 24.6719 7.08643C25.0443 6.98975 25.431 6.94141 25.832 6.94141ZM26.8633 10.1587L26.0952 10.1855C25.465 10.207 25.0228 10.3145 24.7686 10.5078C24.5143 10.7012 24.3872 10.9661 24.3872 11.3027C24.3872 11.5964 24.4749 11.8112 24.6504 11.9473C24.8258 12.0798 25.0568 12.146 25.3433 12.146C25.7801 12.146 26.1418 12.0225 26.4282 11.7754C26.7183 11.5247 26.8633 11.1577 26.8633 10.6743V10.1587ZM29.5435 9.43359C29.5435 8.57064 29.6383 7.83659 29.8281 7.23145C30.0179 6.6263 30.3169 6.14111 30.7251 5.77588C31.1333 5.41064 31.6632 5.16178 32.3149 5.0293C32.7375 4.93262 33.1672 4.85026 33.604 4.78223C34.0409 4.71419 34.4777 4.64795 34.9146 4.5835L35.0864 5.69531C34.8823 5.72038 34.6639 5.75081 34.4312 5.78662C34.1984 5.81885 33.9639 5.85286 33.7275 5.88867C33.4948 5.92448 33.271 5.96208 33.0562 6.00146C32.8449 6.03727 32.6551 6.07308 32.4868 6.10889C32.1502 6.1805 31.8656 6.29867 31.6328 6.46338C31.4036 6.62451 31.2246 6.86084 31.0957 7.17236C30.9668 7.48389 30.8898 7.89925 30.8647 8.41846H30.9346C31.0312 8.27165 31.1655 8.12484 31.3374 7.97803C31.5093 7.83122 31.717 7.70947 31.9604 7.61279C32.2075 7.51253 32.4886 7.4624 32.8037 7.4624C33.2979 7.4624 33.7168 7.56624 34.0605 7.77393C34.4079 7.98161 34.6711 8.28239 34.8501 8.67627C35.0327 9.07015 35.124 9.5446 35.124 10.0996C35.124 10.762 35.0059 11.3171 34.7695 11.7646C34.5368 12.2087 34.2109 12.5435 33.792 12.769C33.373 12.9946 32.8843 13.1074 32.3257 13.1074C31.896 13.1074 31.5093 13.0269 31.1655 12.8657C30.8254 12.7046 30.5335 12.4683 30.29 12.1567C30.0501 11.8416 29.8657 11.4567 29.7368 11.002C29.6079 10.5436 29.5435 10.0208 29.5435 9.43359ZM32.4116 12.0708C32.6981 12.0708 32.9451 12.0099 33.1528 11.8882C33.3641 11.7664 33.527 11.5695 33.6416 11.2974C33.7598 11.0252 33.8188 10.6654 33.8188 10.2178C33.8188 9.66634 33.7186 9.23307 33.5181 8.91797C33.3211 8.59928 32.9953 8.43994 32.5405 8.43994C32.2612 8.43994 32.0052 8.5026 31.7725 8.62793C31.5397 8.75326 31.3428 8.90007 31.1816 9.06836C31.0205 9.23307 30.9059 9.37809 30.8379 9.50342C30.8379 9.82926 30.8612 10.1444 30.9077 10.4487C30.9578 10.7531 31.0402 11.0288 31.1548 11.2759C31.2729 11.5194 31.4341 11.7127 31.6382 11.856C31.8423 11.9992 32.1001 12.0708 32.4116 12.0708ZM41.8379 10.0137C41.8379 10.5078 41.7734 10.9465 41.6445 11.3296C41.5156 11.7127 41.3276 12.0368 41.0806 12.3018C40.8335 12.5632 40.5363 12.7637 40.189 12.9033C39.8416 13.0394 39.4495 13.1074 39.0127 13.1074C38.6045 13.1074 38.2303 13.0394 37.8901 12.9033C37.55 12.7637 37.2546 12.5632 37.0039 12.3018C36.7568 12.0368 36.5653 11.7127 36.4292 11.3296C36.2931 10.9465 36.2251 10.5078 36.2251 10.0137C36.2251 9.3584 36.3379 8.80339 36.5635 8.34863C36.7926 7.8903 37.1185 7.54118 37.541 7.30127C37.9635 7.06136 38.4666 6.94141 39.0503 6.94141C39.5981 6.94141 40.0815 7.06136 40.5005 7.30127C40.9194 7.54118 41.2471 7.8903 41.4834 8.34863C41.7197 8.80697 41.8379 9.36198 41.8379 10.0137ZM37.5249 10.0137C37.5249 10.4469 37.5768 10.8175 37.6807 11.1255C37.7881 11.4334 37.9528 11.6698 38.1748 11.8345C38.3968 11.9956 38.6833 12.0762 39.0342 12.0762C39.3851 12.0762 39.6715 11.9956 39.8936 11.8345C40.1156 11.6698 40.2785 11.4334 40.3823 11.1255C40.4862 10.8175 40.5381 10.4469 40.5381 10.0137C40.5381 9.5804 40.4862 9.21338 40.3823 8.9126C40.2785 8.60824 40.1156 8.37728 39.8936 8.21973C39.6715 8.05859 39.3833 7.97803 39.0288 7.97803C38.506 7.97803 38.1247 8.15348 37.8848 8.50439C37.6449 8.85531 37.5249 9.3584 37.5249 10.0137ZM47.7783 8.04785H45.8232V13H44.5664V8.04785H42.6221V7.0542H47.7783V8.04785ZM51.2964 6.94141C51.8263 6.94141 52.2811 7.05062 52.6606 7.26904C53.0402 7.48747 53.332 7.7972 53.5361 8.19824C53.7402 8.59928 53.8423 9.0791 53.8423 9.6377V10.3145H49.873C49.8874 10.891 50.0413 11.335 50.335 11.6465C50.6322 11.958 51.0475 12.1138 51.5811 12.1138C51.9606 12.1138 52.3008 12.078 52.6016 12.0063C52.9059 11.9312 53.2192 11.8219 53.5415 11.6787V12.7046C53.2443 12.8442 52.9417 12.9463 52.6338 13.0107C52.3258 13.0752 51.957 13.1074 51.5273 13.1074C50.9437 13.1074 50.4299 12.9946 49.9858 12.769C49.5454 12.5399 49.1999 12.1997 48.9492 11.7485C48.7021 11.2974 48.5786 10.737 48.5786 10.0674C48.5786 9.40137 48.6914 8.83561 48.917 8.37012C49.1426 7.90462 49.4595 7.55013 49.8677 7.30664C50.2759 7.06315 50.7521 6.94141 51.2964 6.94141ZM51.2964 7.89209C50.8989 7.89209 50.5767 8.021 50.3296 8.27881C50.0861 8.53662 49.9429 8.91439 49.8999 9.41211H52.6069C52.6034 9.11491 52.5532 8.85173 52.4565 8.62256C52.3634 8.39339 52.2202 8.21436 52.0269 8.08545C51.8371 7.95654 51.5936 7.89209 51.2964 7.89209Z" fill="white"/>
</svg>
