<svg width="110" height="32" viewBox="0 0 110 32" fill="none" xmlns="http://www.w3.org/2000/svg">
<rect width="110" height="32" rx="4" fill="url(#paint0_linear_8188_4576)"/>
<path d="M17.7012 21V11.7197H24.8296V21H23.3188V13.0146H19.2246V21H17.7012ZM35.5254 16.3472C35.5254 17.0623 35.4344 17.714 35.2524 18.3022C35.0747 18.8862 34.806 19.3898 34.4463 19.813C34.0866 20.2319 33.6359 20.5557 33.0942 20.7842C32.5526 21.0127 31.9178 21.127 31.1899 21.127C30.4494 21.127 29.8062 21.0127 29.2603 20.7842C28.7186 20.5557 28.2679 20.2298 27.9082 19.8066C27.5527 19.3835 27.2861 18.8778 27.1084 18.2896C26.9307 17.7013 26.8418 17.0496 26.8418 16.3345C26.8418 15.3781 26.9984 14.5444 27.3115 13.8335C27.6289 13.1183 28.1092 12.564 28.7524 12.1704C29.3999 11.7726 30.2166 11.5737 31.2026 11.5737C32.1675 11.5737 32.9694 11.7705 33.6084 12.1641C34.2474 12.5576 34.7256 13.112 35.043 13.8271C35.3646 14.5381 35.5254 15.3781 35.5254 16.3472ZM28.4414 16.3472C28.4414 17.0623 28.5387 17.6823 28.7334 18.207C28.9281 18.7275 29.2264 19.1296 29.6284 19.4131C30.0347 19.6924 30.5552 19.832 31.1899 19.832C31.8289 19.832 32.3494 19.6924 32.7515 19.4131C33.1535 19.1296 33.4497 18.7275 33.6401 18.207C33.8306 17.6823 33.9258 17.0623 33.9258 16.3472C33.9258 15.2596 33.7078 14.409 33.272 13.7954C32.8403 13.1776 32.1506 12.8687 31.2026 12.8687C30.5679 12.8687 30.0452 13.0083 29.6348 13.2876C29.2285 13.5669 28.9281 13.9668 28.7334 14.4873C28.5387 15.0036 28.4414 15.6235 28.4414 16.3472ZM40.7368 21H39.207V13.0146H36.4902V11.7197H43.4473V13.0146H40.7368V21ZM47.5669 11.7197C48.7645 11.7197 49.6383 11.9652 50.1885 12.4561C50.7386 12.9469 51.0137 13.6346 51.0137 14.519C51.0137 14.9211 50.9502 15.304 50.8232 15.668C50.7005 16.0277 50.4974 16.3472 50.2139 16.6265C49.9303 16.9015 49.5558 17.1195 49.0903 17.2803C48.6291 17.4411 48.0599 17.5215 47.3828 17.5215H46.3926V21H44.8691V11.7197H47.5669ZM47.4653 12.9829H46.3926V16.252H47.2241C47.7023 16.252 48.1086 16.1969 48.4429 16.0869C48.7772 15.9727 49.0311 15.7928 49.2046 15.5474C49.3781 15.3019 49.4648 14.9782 49.4648 14.5762C49.4648 14.0387 49.3019 13.6388 48.9761 13.3765C48.6545 13.1141 48.1509 12.9829 47.4653 12.9829ZM58.6182 21L57.7104 18.4229H54.1621L53.2544 21H51.6484L55.1016 11.6816H56.79L60.2368 21H58.6182ZM57.3169 17.1152L56.4346 14.5762C56.4007 14.4661 56.3521 14.3117 56.2886 14.1128C56.2251 13.9097 56.1616 13.7044 56.0981 13.4971C56.0347 13.2855 55.9818 13.1077 55.9395 12.9639C55.8971 13.1374 55.8442 13.332 55.7808 13.5479C55.7215 13.7594 55.6623 13.9583 55.603 14.1445C55.548 14.3307 55.5057 14.4746 55.4761 14.5762L54.5874 17.1152H57.3169ZM64.6802 21H63.1504V13.0146H60.4336V11.7197H67.3906V13.0146H64.6802V21ZM68.8188 11.7197H70.209V16.6392C70.209 16.8507 70.2069 17.0835 70.2026 17.3374C70.1984 17.5913 70.1899 17.8389 70.1772 18.0801C70.1688 18.3213 70.1603 18.5371 70.1519 18.7275C70.1434 18.9137 70.1349 19.0492 70.1265 19.1338H70.1709L74.8936 11.7197H76.6646V21H75.2871V16.1187C75.2871 15.8901 75.2913 15.6426 75.2998 15.376C75.3083 15.1094 75.3188 14.8512 75.3315 14.6016C75.3442 14.3519 75.3569 14.1318 75.3696 13.9414C75.3823 13.751 75.3908 13.6156 75.395 13.5352H75.3379L70.6025 21H68.8188V11.7197ZM82.3267 21H80.7969V13.0146H78.0801V11.7197H85.0371V13.0146H82.3267V21ZM86.459 21V11.7197H87.9824V15.4712H89.252C90.1068 15.4712 90.8008 15.5897 91.334 15.8267C91.8672 16.0594 92.2565 16.381 92.502 16.7915C92.7516 17.202 92.8765 17.6696 92.8765 18.1943C92.8765 19.0661 92.5866 19.7516 92.0068 20.251C91.4313 20.7503 90.5321 21 89.3091 21H86.459ZM87.9824 19.7305H89.2139C89.8952 19.7305 90.4178 19.6099 90.7817 19.3687C91.1457 19.1232 91.3276 18.7318 91.3276 18.1943C91.3276 17.8177 91.2388 17.5257 91.061 17.3184C90.8833 17.1068 90.6252 16.9587 90.2866 16.874C89.9481 16.7894 89.5355 16.7471 89.0488 16.7471H87.9824V19.7305Z" fill="white"/>
<defs>
<linearGradient id="paint0_linear_8188_4576" x1="55" y1="0" x2="55" y2="32" gradientUnits="userSpaceOnUse">
<stop stop-color="#6081D2"/>
<stop offset="1" stop-color="#4362AD"/>
</linearGradient>
</defs>
</svg>
