<svg width="24" height="24" viewBox="0 0 24 24" fill="none" xmlns="http://www.w3.org/2000/svg">
<path fill-rule="evenodd" clip-rule="evenodd" d="M12 24C18.6274 24 24 18.6274 24 12C24 5.37258 18.6274 0 12 0C5.37258 0 0 5.37258 0 12C0 18.6274 5.37258 24 12 24ZM15.3905 6.41354C15.8591 5.94604 16.6178 5.94604 17.0864 6.41354L17.6492 6.9764C18.1169 7.44502 18.1169 8.20369 17.6492 8.67231L17.1405 9.18103L14.8818 6.92225L15.3905 6.41354ZM7.19679 14.6003L14.1985 7.57473L16.4566 9.84047L9.4549 16.8661L7.19679 14.6003ZM6.06293 17.9999L8.55112 17.3107L6.75212 15.5117L6.06293 17.9999Z" fill="#DB4661"/>
</svg>
