<svg width="18" height="18" viewBox="0 0 18 18" fill="none" xmlns="http://www.w3.org/2000/svg">
<g clip-path="url(#clip0_2014_148)">
<path d="M7.51104 10.4758C6.50382 9.89426 5.21116 10.2407 4.62961 11.2479C4.3479 11.7359 4.27305 12.3043 4.41888 12.8485C4.56471 13.3928 4.91378 13.8477 5.40171 14.1294C5.72673 14.317 6.08747 14.4129 6.45298 14.4129C6.63618 14.4129 6.82065 14.3888 7.0023 14.3401C7.54655 14.1943 8.00144 13.8453 8.28315 13.3573C8.8647 12.35 8.51834 11.0574 7.51104 10.4758Z" fill="#6081D2"/>
<path d="M13.7222 14.0617C12.7149 13.4801 11.4223 13.8266 10.8407 14.8338C10.559 15.3218 10.4842 15.8902 10.63 16.4344C10.7759 16.9787 11.1249 17.4335 11.6128 17.7152C11.9379 17.9029 12.2986 17.9987 12.6641 17.9987C12.8473 17.9987 13.0317 17.9747 13.2134 17.926C13.7577 17.7802 14.2125 17.4311 14.4942 16.9432C15.0758 15.9359 14.7295 14.6432 13.7222 14.0617Z" fill="#6081D2"/>
<path d="M9.19746 13.8846C9.10817 14.0393 9.00664 14.184 8.89537 14.3192L9.70294 14.7854C9.76432 14.6214 9.83889 14.4611 9.92818 14.3065C10.4914 13.331 11.5427 12.725 12.6721 12.7249L9.19553 10.7177C9.33236 10.9552 9.43969 11.2119 9.51257 11.4839C9.73148 12.3009 9.61955 13.1535 9.19746 13.8846Z" fill="#6081D2"/>
<path d="M17.9689 14.133C17.9618 14.1133 17.2547 12.1428 16.8286 10.553L16.7721 10.342L12.1793 7.69034L8.51316 8.41533L6.88841 7.47729C6.31916 7.14861 5.65597 7.06125 5.02102 7.23144C4.38606 7.40156 3.85541 7.80878 3.52673 8.37803C3.08443 9.14412 3.1025 10.0515 3.494 10.7785C3.38646 11.348 2.88548 11.7803 2.28519 11.7803C1.60671 11.7803 1.05472 11.2283 1.05472 10.5498C1.05472 9.87132 1.60671 9.31934 2.28519 9.31934H2.81254V6.00403C3.52494 5.77952 4.043 5.11275 4.043 4.32715C4.043 3.54155 3.52491 2.87477 2.8125 2.65023V0.00292969H1.75781V2.65023C1.04541 2.87474 0.527344 3.54151 0.527344 4.32711C0.527344 5.11272 1.04541 5.77949 1.75781 6.004V8.32603C0.751113 8.56467 0 9.47114 0 10.5498C0 11.8098 1.02512 12.8349 2.28516 12.8349C2.65212 12.8349 2.99897 12.7477 3.30648 12.5933C3.24531 11.9453 3.38484 11.2956 3.71686 10.7205C4.28006 9.74504 5.33137 9.13902 6.46077 9.13892C7.01343 9.13892 7.55923 9.28541 8.03904 9.56244C8.52673 9.84401 8.92149 10.2418 9.19553 10.7177L12.6721 12.7249C13.2247 12.7249 13.7702 12.8713 14.2501 13.1483C14.9812 13.5705 15.5044 14.2529 15.7233 15.0698C15.9422 15.8868 15.8303 16.7394 15.4082 17.4705C15.4037 17.4783 15.3988 17.4857 15.3942 17.4934C15.5319 17.4789 15.6694 17.4537 15.8057 17.4172C16.486 17.2349 17.0545 16.7986 17.4073 16.1875L18 15.1552V14.2196L17.9689 14.133ZM1.58203 4.32715C1.58203 3.93945 1.89745 3.62402 2.28516 3.62402C2.67286 3.62402 2.98828 3.93945 2.98828 4.32715C2.98828 4.71485 2.67286 5.03027 2.28516 5.03027C1.89745 5.03027 1.58203 4.71485 1.58203 4.32715Z" fill="#6081D2"/>
</g>
<defs>
<clipPath id="clip0_2014_148">
<rect width="18" height="18" fill="white"/>
</clipPath>
</defs>
</svg>
