<svg width="60" height="38" viewBox="0 0 60 38" fill="none" xmlns="http://www.w3.org/2000/svg">
<rect width="60" height="38" rx="4" fill="white"/>
<rect x="0.5" y="0.5" width="59" height="37" rx="3.5" stroke="black" stroke-opacity="0.12"/>
<path d="M16.3394 17.4873C16.3394 18.2744 16.4346 18.8669 16.625 19.2646C16.8154 19.6582 17.1138 19.855 17.52 19.855C18.3368 19.855 18.7451 19.0658 18.7451 17.4873C18.7451 16.7087 18.6393 16.1247 18.4277 15.7354C18.2204 15.3418 17.9178 15.145 17.52 15.145C17.1138 15.145 16.8154 15.3418 16.625 15.7354C16.4346 16.1247 16.3394 16.7087 16.3394 17.4873ZM19.3672 17.4873C19.3672 18.4437 19.2085 19.1715 18.8911 19.6709C18.5737 20.166 18.1167 20.4136 17.52 20.4136C16.9572 20.4136 16.515 20.1597 16.1934 19.6519C15.876 19.1398 15.7173 18.4183 15.7173 17.4873C15.7173 16.5436 15.8696 15.8242 16.1743 15.3291C16.479 14.834 16.9276 14.5864 17.52 14.5864C18.1082 14.5864 18.5632 14.8424 18.8848 15.3545C19.2064 15.8623 19.3672 16.5732 19.3672 17.4873ZM21.7476 21.2197C21.7476 22.0026 21.8428 22.5908 22.0332 22.9844C22.2236 23.3737 22.522 23.5684 22.9282 23.5684C23.745 23.5684 24.1533 22.7855 24.1533 21.2197C24.1533 19.6582 23.745 18.8774 22.9282 18.8774C22.522 18.8774 22.2236 19.0721 22.0332 19.4614C21.8428 19.8465 21.7476 20.4326 21.7476 21.2197ZM24.7754 21.2197C24.7754 22.1761 24.6188 22.904 24.3057 23.4033C23.9925 23.8984 23.5376 24.146 22.9409 24.146C22.3654 24.146 21.9189 23.89 21.6016 23.3779C21.2842 22.8617 21.1255 22.1423 21.1255 21.2197C21.1255 20.2676 21.2799 19.5461 21.5889 19.0552C21.902 18.5643 22.3527 18.3188 22.9409 18.3188C23.5207 18.3188 23.9714 18.5728 24.293 19.0806C24.6146 19.5884 24.7754 20.3014 24.7754 21.2197ZM23.125 14.7197L17.9771 24H17.3677L22.5156 14.7197H23.125Z" fill="black" fill-opacity="0.75"/>
</svg>
