<svg width="18" height="18" viewBox="0 0 18 18" fill="none" xmlns="http://www.w3.org/2000/svg">
<path d="M14.6147 14.5527C15.0275 14.5527 15.5229 14.4702 16.0183 14.2225V14.7179C16.0183 15.1307 15.6881 15.461 15.2752 15.461H14.5321C14.1193 15.461 13.789 15.1307 13.789 14.7179V14.4702H14.6147V14.5527ZM1.98165 14.2225V14.7179C1.98165 15.1307 2.31193 15.461 2.72477 15.461H3.46789C3.88073 15.461 4.21101 15.1307 4.21101 14.7179V14.4702H3.38532C2.97248 14.5527 2.47706 14.4702 1.98165 14.2225ZM4.29358 7.20413L4.62385 7.86468C5.77982 7.61697 7.43119 7.2867 9.08257 7.2867C10.7339 7.2867 12.3853 7.5344 13.4587 7.86468L13.789 7.12156C14.2018 6.04816 15.2752 5.30504 16.3486 5.30504C16.4312 5.30504 16.5138 5.30504 16.5138 5.30504C16.4312 3.5711 14.945 2.25 13.211 2.25C12.9633 2.25 5.0367 2.25 4.78899 2.25C3.05505 2.25 1.56881 3.5711 1.40367 5.30504C1.48624 5.30504 1.48624 5.30504 1.56881 5.30504C2.80734 5.30504 3.88073 6.04816 4.29358 7.20413ZM18 8.11238C18 7.20413 17.2569 6.46101 16.3486 6.46101C15.6881 6.46101 15.0275 6.87385 14.8624 7.5344L14.1193 9.26835C14.0367 9.26835 11.7248 8.52523 9.08257 8.52523C6.44037 8.52523 3.9633 9.18578 3.88073 9.26835L3.13761 7.61697C2.97248 6.95642 2.3945 6.46101 1.65138 6.46101C0.743119 6.46101 0 7.20413 0 8.11238C0 8.8555 0.495413 9.43348 1.15596 9.68119L1.48624 12.2408C1.81651 13.3142 3.38532 13.3968 3.38532 13.3968H14.6147C14.6147 13.3968 16.1835 13.3968 16.5138 12.2408L16.7615 9.68119C17.5046 9.43348 18 8.8555 18 8.11238Z" fill="#6081D2"/>
</svg>
